<svg width="43" height="44" viewBox="0 0 43 44" fill="none" xmlns="http://www.w3.org/2000/svg">
<g clip-path="url(#clip0_60_3292)">
<path d="M29.7747 0.399963C29.8748 0.399963 29.9748 0.399963 30.0806 0.399963C30.326 3.43241 29.1686 5.69825 27.7619 7.3391C26.3816 8.96862 24.4915 10.549 21.4345 10.3092C21.2306 7.32022 22.3899 5.22243 23.7948 3.58536C25.0976 2.05969 27.4862 0.702075 29.7747 0.399963Z" fill="black"/>
<path d="M39.029 31.9631C39.029 31.9933 39.029 32.0198 39.029 32.0481C38.1699 34.65 36.9444 36.88 35.449 38.9495C34.0838 40.8282 32.4108 43.3565 29.4237 43.3565C26.8425 43.3565 25.1281 41.6968 22.4827 41.6515C19.6844 41.6062 18.1455 43.0393 15.587 43.4C15.2943 43.4 15.0016 43.4 14.7146 43.4C12.8359 43.1281 11.3196 41.6402 10.215 40.2995C6.9579 36.3381 4.44093 31.2211 3.97266 24.6728C3.97266 24.0308 3.97266 23.3907 3.97266 22.7487C4.17092 18.0622 6.44809 14.2518 9.47487 12.4051C11.0723 11.4233 13.2683 10.5868 15.7135 10.9607C16.7614 11.1231 17.832 11.4818 18.7705 11.8368C19.6598 12.1786 20.772 12.7847 21.8256 12.7526C22.5393 12.7318 23.2493 12.3598 23.9687 12.0974C26.0759 11.3364 28.1416 10.4641 30.8644 10.8738C34.1367 11.3685 36.4592 12.8224 37.8942 15.0656C35.1261 16.8273 32.9377 19.4821 33.3115 24.0157C33.6438 28.1339 36.0381 30.5432 39.029 31.9631Z" fill="black"/>
</g>
<defs>
<clipPath id="clip0_60_3292">
<rect width="43" height="43" fill="white" transform="translate(0 0.399963)"/>
</clipPath>
</defs>
</svg>
