<svg width="254" height="311" viewBox="0 0 254 311" fill="none" xmlns="http://www.w3.org/2000/svg">
<g clip-path="url(#clip0_60_3936)">
<path d="M207.186 80.5C207.186 96.3897 202.469 111.842 193.546 125.188C192.334 127.002 190.341 127.982 188.312 127.982C187.111 127.982 185.896 127.64 184.823 126.921C181.935 124.991 181.16 121.085 183.089 118.198C190.625 106.928 194.607 93.8925 194.607 80.5C194.607 74.7453 193.888 69.0298 192.468 63.5146C191.602 60.1514 193.627 56.7219 196.99 55.856C200.356 54.9912 203.783 57.0155 204.649 60.3787C206.332 66.9183 207.186 73.6877 207.186 80.5ZM161.821 138.641C151.257 145.039 139.108 148.422 126.686 148.422C89.2337 148.422 58.7637 117.952 58.7637 80.5C58.7637 43.0481 89.2337 12.5781 126.686 12.5781C140.552 12.5781 153.886 16.7274 165.247 24.5777C168.104 26.5516 172.021 25.8355 173.996 22.9784C175.97 20.1213 175.255 16.2041 172.397 14.229C158.924 4.92067 143.118 -3.05176e-05 126.686 -3.05176e-05C105.184 -3.05176e-05 84.9677 8.37352 69.7634 23.5778C54.5591 38.7821 46.1855 58.998 46.1855 80.5C46.1855 102.002 54.5591 122.218 69.7634 137.422C84.9677 152.626 105.184 161 126.686 161C141.406 161 155.809 156.988 168.338 149.398C171.31 147.599 172.259 143.732 170.46 140.761C168.659 137.789 164.792 136.841 161.821 138.641ZM127.292 98.7358C126.296 98.7751 125.366 98.4214 124.644 97.7335L91.7063 66.5031C89.1858 64.1128 85.2048 64.2184 82.8157 66.739C80.4253 69.2595 80.531 73.2406 83.0515 75.6297L115.983 106.855C119.024 109.747 122.959 111.316 127.128 111.316C127.351 111.316 127.575 111.312 127.798 111.303C132.214 111.125 136.27 109.214 139.218 105.92C139.293 105.838 139.364 105.753 139.434 105.666L205.798 23.1221C207.974 20.4149 207.544 16.4559 204.837 14.2806C202.131 12.104 198.171 12.5339 195.994 15.2411L129.761 97.6242C129.11 98.3035 128.238 98.6978 127.292 98.7358Z" fill="#00263A"/>
</g>
<path d="M10.1629 213.14C9.18956 213.14 8.30956 212.973 7.52289 212.64C6.74956 212.307 6.13622 211.827 5.68289 211.2C5.22956 210.573 4.99622 209.833 4.98289 208.98H7.98289C8.02289 209.553 8.22289 210.007 8.58289 210.34C8.95622 210.673 9.46289 210.84 10.1029 210.84C10.7562 210.84 11.2696 210.687 11.6429 210.38C12.0162 210.06 12.2029 209.647 12.2029 209.14C12.2029 208.727 12.0762 208.387 11.8229 208.12C11.5696 207.853 11.2496 207.647 10.8629 207.5C10.4896 207.34 9.96956 207.167 9.30289 206.98C8.39622 206.713 7.65622 206.453 7.08289 206.2C6.52289 205.933 6.03622 205.54 5.62289 205.02C5.22289 204.487 5.02289 203.78 5.02289 202.9C5.02289 202.073 5.22956 201.353 5.64289 200.74C6.05622 200.127 6.63622 199.66 7.38289 199.34C8.12956 199.007 8.98289 198.84 9.94289 198.84C11.3829 198.84 12.5496 199.193 13.4429 199.9C14.3496 200.593 14.8496 201.567 14.9429 202.82H11.8629C11.8362 202.34 11.6296 201.947 11.2429 201.64C10.8696 201.32 10.3696 201.16 9.74289 201.16C9.19622 201.16 8.75622 201.3 8.42289 201.58C8.10289 201.86 7.94289 202.267 7.94289 202.8C7.94289 203.173 8.06289 203.487 8.30289 203.74C8.55622 203.98 8.86289 204.18 9.22289 204.34C9.59622 204.487 10.1162 204.66 10.7829 204.86C11.6896 205.127 12.4296 205.393 13.0029 205.66C13.5762 205.927 14.0696 206.327 14.4829 206.86C14.8962 207.393 15.1029 208.093 15.1029 208.96C15.1029 209.707 14.9096 210.4 14.5229 211.04C14.1362 211.68 13.5696 212.193 12.8229 212.58C12.0762 212.953 11.1896 213.14 10.1629 213.14ZM27.9904 201.92V213H25.1704V211.6C24.8104 212.08 24.3371 212.46 23.7504 212.74C23.1771 213.007 22.5504 213.14 21.8704 213.14C21.0037 213.14 20.2371 212.96 19.5704 212.6C18.9037 212.227 18.3771 211.687 17.9904 210.98C17.6171 210.26 17.4304 209.407 17.4304 208.42V201.92H20.2304V208.02C20.2304 208.9 20.4504 209.58 20.8904 210.06C21.3304 210.527 21.9304 210.76 22.6904 210.76C23.4637 210.76 24.0704 210.527 24.5104 210.06C24.9504 209.58 25.1704 208.9 25.1704 208.02V201.92H27.9904ZM30.033 207.46C30.033 206.313 30.2664 205.313 30.733 204.46C31.1997 203.593 31.8464 202.927 32.673 202.46C33.4997 201.98 34.4464 201.74 35.513 201.74C36.8864 201.74 38.0197 202.087 38.913 202.78C39.8197 203.46 40.4264 204.42 40.733 205.66H37.713C37.553 205.18 37.2797 204.807 36.893 204.54C36.5197 204.26 36.053 204.12 35.493 204.12C34.693 204.12 34.0597 204.413 33.593 205C33.1264 205.573 32.893 206.393 32.893 207.46C32.893 208.513 33.1264 209.333 33.593 209.92C34.0597 210.493 34.693 210.78 35.493 210.78C36.6264 210.78 37.3664 210.273 37.713 209.26H40.733C40.4264 210.46 39.8197 211.413 38.913 212.12C38.0064 212.827 36.873 213.18 35.513 213.18C34.4464 213.18 33.4997 212.947 32.673 212.48C31.8464 212 31.1997 211.333 30.733 210.48C30.2664 209.613 30.033 208.607 30.033 207.46ZM42.0643 207.46C42.0643 206.313 42.2976 205.313 42.7643 204.46C43.231 203.593 43.8776 202.927 44.7043 202.46C45.531 201.98 46.4776 201.74 47.5443 201.74C48.9176 201.74 50.051 202.087 50.9443 202.78C51.851 203.46 52.4576 204.42 52.7643 205.66H49.7443C49.5843 205.18 49.311 204.807 48.9243 204.54C48.551 204.26 48.0843 204.12 47.5243 204.12C46.7243 204.12 46.091 204.413 45.6243 205C45.1576 205.573 44.9243 206.393 44.9243 207.46C44.9243 208.513 45.1576 209.333 45.6243 209.92C46.091 210.493 46.7243 210.78 47.5243 210.78C48.6576 210.78 49.3976 210.273 49.7443 209.26H52.7643C52.4576 210.46 51.851 211.413 50.9443 212.12C50.0376 212.827 48.9043 213.18 47.5443 213.18C46.4776 213.18 45.531 212.947 44.7043 212.48C43.8776 212 43.231 211.333 42.7643 210.48C42.2976 209.613 42.0643 208.607 42.0643 207.46ZM65.1155 207.22C65.1155 207.62 65.0889 207.98 65.0355 208.3H56.9355C57.0022 209.1 57.2822 209.727 57.7755 210.18C58.2689 210.633 58.8755 210.86 59.5955 210.86C60.6355 210.86 61.3755 210.413 61.8155 209.52H64.8355C64.5155 210.587 63.9022 211.467 62.9955 212.16C62.0889 212.84 60.9755 213.18 59.6555 213.18C58.5889 213.18 57.6289 212.947 56.7755 212.48C55.9355 212 55.2755 211.327 54.7955 210.46C54.3289 209.593 54.0955 208.593 54.0955 207.46C54.0955 206.313 54.3289 205.307 54.7955 204.44C55.2622 203.573 55.9155 202.907 56.7555 202.44C57.5955 201.973 58.5622 201.74 59.6555 201.74C60.7089 201.74 61.6489 201.967 62.4755 202.42C63.3155 202.873 63.9622 203.52 64.4155 204.36C64.8822 205.187 65.1155 206.14 65.1155 207.22ZM62.2155 206.42C62.2022 205.7 61.9422 205.127 61.4355 204.7C60.9289 204.26 60.3089 204.04 59.5755 204.04C58.8822 204.04 58.2955 204.253 57.8155 204.68C57.3489 205.093 57.0622 205.673 56.9555 206.42H62.2155ZM71.3993 213.18C70.4926 213.18 69.6793 213.02 68.9593 212.7C68.2393 212.367 67.666 211.92 67.2393 211.36C66.826 210.8 66.5993 210.18 66.5593 209.5H69.3793C69.4326 209.927 69.6393 210.28 69.9993 210.56C70.3726 210.84 70.8326 210.98 71.3793 210.98C71.9126 210.98 72.326 210.873 72.6193 210.66C72.926 210.447 73.0793 210.173 73.0793 209.84C73.0793 209.48 72.8926 209.213 72.5193 209.04C72.1593 208.853 71.5793 208.653 70.7793 208.44C69.9526 208.24 69.2726 208.033 68.7393 207.82C68.2193 207.607 67.766 207.28 67.3793 206.84C67.006 206.4 66.8193 205.807 66.8193 205.06C66.8193 204.447 66.9926 203.887 67.3393 203.38C67.6993 202.873 68.206 202.473 68.8593 202.18C69.526 201.887 70.306 201.74 71.1993 201.74C72.5193 201.74 73.5726 202.073 74.3593 202.74C75.146 203.393 75.5793 204.28 75.6593 205.4H72.9793C72.9393 204.96 72.7526 204.613 72.4193 204.36C72.0993 204.093 71.666 203.96 71.1193 203.96C70.6126 203.96 70.2193 204.053 69.9393 204.24C69.6726 204.427 69.5393 204.687 69.5393 205.02C69.5393 205.393 69.726 205.68 70.0993 205.88C70.4726 206.067 71.0526 206.26 71.8393 206.46C72.6393 206.66 73.2993 206.867 73.8193 207.08C74.3393 207.293 74.786 207.627 75.1593 208.08C75.546 208.52 75.746 209.107 75.7593 209.84C75.7593 210.48 75.5793 211.053 75.2193 211.56C74.8726 212.067 74.366 212.467 73.6993 212.76C73.046 213.04 72.2793 213.18 71.3993 213.18ZM82.2977 213.18C81.3911 213.18 80.5777 213.02 79.8577 212.7C79.1377 212.367 78.5644 211.92 78.1377 211.36C77.7244 210.8 77.4977 210.18 77.4577 209.5H80.2777C80.3311 209.927 80.5377 210.28 80.8977 210.56C81.2711 210.84 81.7311 210.98 82.2777 210.98C82.8111 210.98 83.2244 210.873 83.5177 210.66C83.8244 210.447 83.9777 210.173 83.9777 209.84C83.9777 209.48 83.7911 209.213 83.4177 209.04C83.0577 208.853 82.4777 208.653 81.6777 208.44C80.8511 208.24 80.1711 208.033 79.6377 207.82C79.1177 207.607 78.6644 207.28 78.2777 206.84C77.9044 206.4 77.7177 205.807 77.7177 205.06C77.7177 204.447 77.8911 203.887 78.2377 203.38C78.5977 202.873 79.1044 202.473 79.7577 202.18C80.4244 201.887 81.2044 201.74 82.0977 201.74C83.4177 201.74 84.4711 202.073 85.2577 202.74C86.0444 203.393 86.4777 204.28 86.5577 205.4H83.8777C83.8377 204.96 83.6511 204.613 83.3177 204.36C82.9977 204.093 82.5644 203.96 82.0177 203.96C81.5111 203.96 81.1177 204.053 80.8377 204.24C80.5711 204.427 80.4377 204.687 80.4377 205.02C80.4377 205.393 80.6244 205.68 80.9977 205.88C81.3711 206.067 81.9511 206.26 82.7377 206.46C83.5377 206.66 84.1977 206.867 84.7177 207.08C85.2377 207.293 85.6844 207.627 86.0577 208.08C86.4444 208.52 86.6444 209.107 86.6577 209.84C86.6577 210.48 86.4777 211.053 86.1177 211.56C85.7711 212.067 85.2644 212.467 84.5977 212.76C83.9444 213.04 83.1777 213.18 82.2977 213.18ZM94.0362 204.22H92.0962V213H89.2562V204.22H87.9962V201.92H89.2562V201.36C89.2562 200 89.6428 199 90.4162 198.36C91.1895 197.72 92.3562 197.42 93.9162 197.46V199.82C93.2362 199.807 92.7628 199.92 92.4962 200.16C92.2295 200.4 92.0962 200.833 92.0962 201.46V201.92H94.0362V204.22ZM106.311 201.92V213H103.491V211.6C103.131 212.08 102.657 212.46 102.071 212.74C101.497 213.007 100.871 213.14 100.191 213.14C99.324 213.14 98.5574 212.96 97.8907 212.6C97.224 212.227 96.6974 211.687 96.3107 210.98C95.9374 210.26 95.7507 209.407 95.7507 208.42V201.92H98.5507V208.02C98.5507 208.9 98.7707 209.58 99.2107 210.06C99.6507 210.527 100.251 210.76 101.011 210.76C101.784 210.76 102.391 210.527 102.831 210.06C103.271 209.58 103.491 208.9 103.491 208.02V201.92H106.311ZM111.873 198.2V213H109.073V198.2H111.873ZM117.44 198.2V213H114.64V198.2H117.44ZM130.806 201.92L123.946 218.24H120.966L123.366 212.72L118.926 201.92H122.066L124.926 209.66L127.826 201.92H130.806ZM144.281 213L141.201 207.56H139.881V213H137.081V199.04H142.321C143.401 199.04 144.321 199.233 145.081 199.62C145.841 199.993 146.408 200.507 146.781 201.16C147.168 201.8 147.361 202.52 147.361 203.32C147.361 204.24 147.095 205.073 146.561 205.82C146.028 206.553 145.235 207.06 144.181 207.34L147.521 213H144.281ZM139.881 205.46H142.221C142.981 205.46 143.548 205.28 143.921 204.92C144.295 204.547 144.481 204.033 144.481 203.38C144.481 202.74 144.295 202.247 143.921 201.9C143.548 201.54 142.981 201.36 142.221 201.36H139.881V205.46ZM160.194 207.22C160.194 207.62 160.167 207.98 160.114 208.3H152.014C152.08 209.1 152.36 209.727 152.854 210.18C153.347 210.633 153.954 210.86 154.674 210.86C155.714 210.86 156.454 210.413 156.894 209.52H159.914C159.594 210.587 158.98 211.467 158.074 212.16C157.167 212.84 156.054 213.18 154.734 213.18C153.667 213.18 152.707 212.947 151.854 212.48C151.014 212 150.354 211.327 149.874 210.46C149.407 209.593 149.174 208.593 149.174 207.46C149.174 206.313 149.407 205.307 149.874 204.44C150.34 203.573 150.994 202.907 151.834 202.44C152.674 201.973 153.64 201.74 154.734 201.74C155.787 201.74 156.727 201.967 157.554 202.42C158.394 202.873 159.04 203.52 159.494 204.36C159.96 205.187 160.194 206.14 160.194 207.22ZM157.294 206.42C157.28 205.7 157.02 205.127 156.514 204.7C156.007 204.26 155.387 204.04 154.654 204.04C153.96 204.04 153.374 204.253 152.894 204.68C152.427 205.093 152.14 205.673 152.034 206.42H157.294ZM166.577 201.74C167.404 201.74 168.131 201.907 168.757 202.24C169.384 202.56 169.877 202.98 170.237 203.5V201.92H173.057V213.08C173.057 214.107 172.851 215.02 172.437 215.82C172.024 216.633 171.404 217.273 170.577 217.74C169.751 218.22 168.751 218.46 167.577 218.46C166.004 218.46 164.711 218.093 163.697 217.36C162.697 216.627 162.131 215.627 161.997 214.36H164.777C164.924 214.867 165.237 215.267 165.717 215.56C166.211 215.867 166.804 216.02 167.497 216.02C168.311 216.02 168.971 215.773 169.477 215.28C169.984 214.8 170.237 214.067 170.237 213.08V211.36C169.877 211.88 169.377 212.313 168.737 212.66C168.111 213.007 167.391 213.18 166.577 213.18C165.644 213.18 164.791 212.94 164.017 212.46C163.244 211.98 162.631 211.307 162.177 210.44C161.737 209.56 161.517 208.553 161.517 207.42C161.517 206.3 161.737 205.307 162.177 204.44C162.631 203.573 163.237 202.907 163.997 202.44C164.771 201.973 165.631 201.74 166.577 201.74ZM170.237 207.46C170.237 206.78 170.104 206.2 169.837 205.72C169.571 205.227 169.211 204.853 168.757 204.6C168.304 204.333 167.817 204.2 167.297 204.2C166.777 204.2 166.297 204.327 165.857 204.58C165.417 204.833 165.057 205.207 164.777 205.7C164.511 206.18 164.377 206.753 164.377 207.42C164.377 208.087 164.511 208.673 164.777 209.18C165.057 209.673 165.417 210.053 165.857 210.32C166.311 210.587 166.791 210.72 167.297 210.72C167.817 210.72 168.304 210.593 168.757 210.34C169.211 210.073 169.571 209.7 169.837 209.22C170.104 208.727 170.237 208.14 170.237 207.46ZM177.212 200.6C176.719 200.6 176.305 200.447 175.972 200.14C175.652 199.82 175.492 199.427 175.492 198.96C175.492 198.493 175.652 198.107 175.972 197.8C176.305 197.48 176.719 197.32 177.212 197.32C177.705 197.32 178.112 197.48 178.432 197.8C178.765 198.107 178.932 198.493 178.932 198.96C178.932 199.427 178.765 199.82 178.432 200.14C178.112 200.447 177.705 200.6 177.212 200.6ZM178.592 201.92V213H175.792V201.92H178.592ZM185.599 213.18C184.692 213.18 183.879 213.02 183.159 212.7C182.439 212.367 181.865 211.92 181.439 211.36C181.025 210.8 180.799 210.18 180.759 209.5H183.579C183.632 209.927 183.839 210.28 184.199 210.56C184.572 210.84 185.032 210.98 185.579 210.98C186.112 210.98 186.525 210.873 186.819 210.66C187.125 210.447 187.279 210.173 187.279 209.84C187.279 209.48 187.092 209.213 186.719 209.04C186.359 208.853 185.779 208.653 184.979 208.44C184.152 208.24 183.472 208.033 182.939 207.82C182.419 207.607 181.965 207.28 181.579 206.84C181.205 206.4 181.019 205.807 181.019 205.06C181.019 204.447 181.192 203.887 181.539 203.38C181.899 202.873 182.405 202.473 183.059 202.18C183.725 201.887 184.505 201.74 185.399 201.74C186.719 201.74 187.772 202.073 188.559 202.74C189.345 203.393 189.779 204.28 189.859 205.4H187.179C187.139 204.96 186.952 204.613 186.619 204.36C186.299 204.093 185.865 203.96 185.319 203.96C184.812 203.96 184.419 204.053 184.139 204.24C183.872 204.427 183.739 204.687 183.739 205.02C183.739 205.393 183.925 205.68 184.299 205.88C184.672 206.067 185.252 206.26 186.039 206.46C186.839 206.66 187.499 206.867 188.019 207.08C188.539 207.293 188.985 207.627 189.359 208.08C189.745 208.52 189.945 209.107 189.959 209.84C189.959 210.48 189.779 211.053 189.419 211.56C189.072 212.067 188.565 212.467 187.899 212.76C187.245 213.04 186.479 213.18 185.599 213.18ZM195.517 204.22V209.58C195.517 209.953 195.604 210.227 195.777 210.4C195.964 210.56 196.27 210.64 196.697 210.64H197.997V213H196.237C193.877 213 192.697 211.853 192.697 209.56V204.22H191.377V201.92H192.697V199.18H195.517V201.92H197.997V204.22H195.517ZM210.311 207.22C210.311 207.62 210.284 207.98 210.231 208.3H202.131C202.198 209.1 202.478 209.727 202.971 210.18C203.464 210.633 204.071 210.86 204.791 210.86C205.831 210.86 206.571 210.413 207.011 209.52H210.031C209.711 210.587 209.098 211.467 208.191 212.16C207.284 212.84 206.171 213.18 204.851 213.18C203.784 213.18 202.824 212.947 201.971 212.48C201.131 212 200.471 211.327 199.991 210.46C199.524 209.593 199.291 208.593 199.291 207.46C199.291 206.313 199.524 205.307 199.991 204.44C200.458 203.573 201.111 202.907 201.951 202.44C202.791 201.973 203.758 201.74 204.851 201.74C205.904 201.74 206.844 201.967 207.671 202.42C208.511 202.873 209.158 203.52 209.611 204.36C210.078 205.187 210.311 206.14 210.311 207.22ZM207.411 206.42C207.398 205.7 207.138 205.127 206.631 204.7C206.124 204.26 205.504 204.04 204.771 204.04C204.078 204.04 203.491 204.253 203.011 204.68C202.544 205.093 202.258 205.673 202.151 206.42H207.411ZM215.155 203.64C215.515 203.053 215.981 202.593 216.555 202.26C217.141 201.927 217.808 201.76 218.555 201.76V204.7H217.815C216.935 204.7 216.268 204.907 215.815 205.32C215.375 205.733 215.155 206.453 215.155 207.48V213H212.355V201.92H215.155V203.64ZM230.741 207.22C230.741 207.62 230.714 207.98 230.661 208.3H222.561C222.627 209.1 222.907 209.727 223.401 210.18C223.894 210.633 224.501 210.86 225.221 210.86C226.261 210.86 227.001 210.413 227.441 209.52H230.461C230.141 210.587 229.527 211.467 228.621 212.16C227.714 212.84 226.601 213.18 225.281 213.18C224.214 213.18 223.254 212.947 222.401 212.48C221.561 212 220.901 211.327 220.421 210.46C219.954 209.593 219.721 208.593 219.721 207.46C219.721 206.313 219.954 205.307 220.421 204.44C220.887 203.573 221.541 202.907 222.381 202.44C223.221 201.973 224.187 201.74 225.281 201.74C226.334 201.74 227.274 201.967 228.101 202.42C228.941 202.873 229.587 203.52 230.041 204.36C230.507 205.187 230.741 206.14 230.741 207.22ZM227.841 206.42C227.827 205.7 227.567 205.127 227.061 204.7C226.554 204.26 225.934 204.04 225.201 204.04C224.507 204.04 223.921 204.253 223.441 204.68C222.974 205.093 222.687 205.673 222.581 206.42H227.841ZM232.064 207.42C232.064 206.3 232.284 205.307 232.724 204.44C233.178 203.573 233.791 202.907 234.564 202.44C235.338 201.973 236.198 201.74 237.144 201.74C237.864 201.74 238.551 201.9 239.204 202.22C239.858 202.527 240.378 202.94 240.764 203.46V198.2H243.604V213H240.764V211.36C240.418 211.907 239.931 212.347 239.304 212.68C238.678 213.013 237.951 213.18 237.124 213.18C236.191 213.18 235.338 212.94 234.564 212.46C233.791 211.98 233.178 211.307 232.724 210.44C232.284 209.56 232.064 208.553 232.064 207.42ZM240.784 207.46C240.784 206.78 240.651 206.2 240.384 205.72C240.118 205.227 239.758 204.853 239.304 204.6C238.851 204.333 238.364 204.2 237.844 204.2C237.324 204.2 236.844 204.327 236.404 204.58C235.964 204.833 235.604 205.207 235.324 205.7C235.058 206.18 234.924 206.753 234.924 207.42C234.924 208.087 235.058 208.673 235.324 209.18C235.604 209.673 235.964 210.053 236.404 210.32C236.858 210.587 237.338 210.72 237.844 210.72C238.364 210.72 238.851 210.593 239.304 210.34C239.758 210.073 240.118 209.7 240.384 209.22C240.651 208.727 240.784 208.14 240.784 207.46ZM249.399 210.06L247.059 215.68H245.259L246.559 210.06H249.399ZM81.005 229.04V231.3H77.285V243H74.485V231.3H70.765V229.04H81.005ZM89.288 231.76C90.128 231.76 90.8746 231.947 91.528 232.32C92.1813 232.68 92.688 233.22 93.048 233.94C93.4213 234.647 93.608 235.5 93.608 236.5V243H90.808V236.88C90.808 236 90.588 235.327 90.148 234.86C89.708 234.38 89.108 234.14 88.348 234.14C87.5746 234.14 86.9613 234.38 86.508 234.86C86.068 235.327 85.848 236 85.848 236.88V243H83.048V228.2H85.848V233.3C86.208 232.82 86.688 232.447 87.288 232.18C87.888 231.9 88.5546 231.76 89.288 231.76ZM95.5506 237.42C95.5506 236.3 95.7706 235.307 96.2106 234.44C96.664 233.573 97.2706 232.907 98.0306 232.44C98.804 231.973 99.664 231.74 100.611 231.74C101.437 231.74 102.157 231.907 102.771 232.24C103.397 232.573 103.897 232.993 104.271 233.5V231.92H107.091V243H104.271V241.38C103.911 241.9 103.411 242.333 102.771 242.68C102.144 243.013 101.417 243.18 100.591 243.18C99.6573 243.18 98.804 242.94 98.0306 242.46C97.2706 241.98 96.664 241.307 96.2106 240.44C95.7706 239.56 95.5506 238.553 95.5506 237.42ZM104.271 237.46C104.271 236.78 104.137 236.2 103.871 235.72C103.604 235.227 103.244 234.853 102.791 234.6C102.337 234.333 101.851 234.2 101.331 234.2C100.811 234.2 100.331 234.327 99.8906 234.58C99.4506 234.833 99.0906 235.207 98.8106 235.7C98.544 236.18 98.4106 236.753 98.4106 237.42C98.4106 238.087 98.544 238.673 98.8106 239.18C99.0906 239.673 99.4506 240.053 99.8906 240.32C100.344 240.587 100.824 240.72 101.331 240.72C101.851 240.72 102.337 240.593 102.791 240.34C103.244 240.073 103.604 239.7 103.871 239.22C104.137 238.727 104.271 238.14 104.271 237.46ZM115.965 231.76C117.285 231.76 118.352 232.18 119.165 233.02C119.979 233.847 120.385 235.007 120.385 236.5V243H117.585V236.88C117.585 236 117.365 235.327 116.925 234.86C116.485 234.38 115.885 234.14 115.125 234.14C114.352 234.14 113.739 234.38 113.285 234.86C112.845 235.327 112.625 236 112.625 236.88V243H109.825V231.92H112.625V233.3C112.999 232.82 113.472 232.447 114.045 232.18C114.632 231.9 115.272 231.76 115.965 231.76ZM129.608 243L125.848 238.28V243H123.048V228.2H125.848V236.62L129.568 231.92H133.208L128.328 237.48L133.248 243H129.608ZM150.593 229.04L145.873 238.14V243H143.073V238.14L138.333 229.04H141.493L144.493 235.42L147.473 229.04H150.593ZM157.128 243.18C156.061 243.18 155.101 242.947 154.248 242.48C153.395 242 152.721 241.327 152.228 240.46C151.748 239.593 151.508 238.593 151.508 237.46C151.508 236.327 151.755 235.327 152.248 234.46C152.755 233.593 153.441 232.927 154.308 232.46C155.175 231.98 156.141 231.74 157.208 231.74C158.275 231.74 159.241 231.98 160.108 232.46C160.975 232.927 161.655 233.593 162.148 234.46C162.655 235.327 162.908 236.327 162.908 237.46C162.908 238.593 162.648 239.593 162.128 240.46C161.621 241.327 160.928 242 160.048 242.48C159.181 242.947 158.208 243.18 157.128 243.18ZM157.128 240.74C157.635 240.74 158.108 240.62 158.548 240.38C159.001 240.127 159.361 239.753 159.628 239.26C159.895 238.767 160.028 238.167 160.028 237.46C160.028 236.407 159.748 235.6 159.188 235.04C158.641 234.467 157.968 234.18 157.168 234.18C156.368 234.18 155.695 234.467 155.148 235.04C154.615 235.6 154.348 236.407 154.348 237.46C154.348 238.513 154.608 239.327 155.128 239.9C155.661 240.46 156.328 240.74 157.128 240.74ZM175.422 231.92V243H172.602V241.6C172.242 242.08 171.769 242.46 171.182 242.74C170.609 243.007 169.982 243.14 169.302 243.14C168.435 243.14 167.669 242.96 167.002 242.6C166.335 242.227 165.809 241.687 165.422 240.98C165.049 240.26 164.862 239.407 164.862 238.42V231.92H167.662V238.02C167.662 238.9 167.882 239.58 168.322 240.06C168.762 240.527 169.362 240.76 170.122 240.76C170.895 240.76 171.502 240.527 171.942 240.06C172.382 239.58 172.602 238.9 172.602 238.02V231.92H175.422ZM181.805 228.8L181.485 238.46H179.125L178.785 228.8H181.805ZM180.365 243.14C179.858 243.14 179.438 242.987 179.105 242.68C178.785 242.36 178.625 241.967 178.625 241.5C178.625 241.033 178.785 240.647 179.105 240.34C179.438 240.02 179.858 239.86 180.365 239.86C180.858 239.86 181.265 240.02 181.585 240.34C181.905 240.647 182.065 241.033 182.065 241.5C182.065 241.967 181.905 242.36 181.585 242.68C181.265 242.987 180.858 243.14 180.365 243.14Z" fill="#137054"/>
<path d="M39.8276 259.02L35.8676 273H34.3076L30.7876 261.08L27.1876 273L25.6676 273.02L21.7876 259.02H23.2876L26.4876 271.28L30.0676 259.02H31.6276L35.1076 271.28L38.3276 259.02H39.8276ZM51.8491 266.98C51.8491 267.46 51.8358 267.827 51.8091 268.08H42.7491C42.7891 268.907 42.9891 269.613 43.3491 270.2C43.7091 270.787 44.1825 271.233 44.7691 271.54C45.3558 271.833 45.9958 271.98 46.6891 271.98C47.5958 271.98 48.3558 271.76 48.9691 271.32C49.5958 270.88 50.0091 270.287 50.2091 269.54H51.6891C51.4225 270.607 50.8491 271.48 49.9691 272.16C49.1025 272.827 48.0091 273.16 46.6891 273.16C45.6625 273.16 44.7425 272.933 43.9291 272.48C43.1158 272.013 42.4758 271.36 42.0091 270.52C41.5558 269.667 41.3291 268.673 41.3291 267.54C41.3291 266.407 41.5558 265.413 42.0091 264.56C42.4625 263.707 43.0958 263.053 43.9091 262.6C44.7225 262.147 45.6491 261.92 46.6891 261.92C47.7291 261.92 48.6358 262.147 49.4091 262.6C50.1958 263.053 50.7958 263.667 51.2091 264.44C51.6358 265.2 51.8491 266.047 51.8491 266.98ZM50.4291 266.94C50.4425 266.127 50.2758 265.433 49.9291 264.86C49.5958 264.287 49.1358 263.853 48.5491 263.56C47.9625 263.267 47.3225 263.12 46.6291 263.12C45.5891 263.12 44.7025 263.453 43.9691 264.12C43.2358 264.787 42.8291 265.727 42.7491 266.94H50.4291ZM65.0988 261.88C65.9255 261.88 66.6655 262.053 67.3188 262.4C67.9855 262.747 68.5055 263.28 68.8788 264C69.2655 264.707 69.4588 265.573 69.4588 266.6V273H68.0788V266.76C68.0788 265.573 67.7788 264.667 67.1788 264.04C66.5922 263.413 65.7855 263.1 64.7588 263.1C63.7055 263.1 62.8655 263.433 62.2388 264.1C61.6122 264.767 61.2988 265.747 61.2988 267.04V273H59.8988V258.2H61.2988V263.94C61.6455 263.287 62.1522 262.78 62.8188 262.42C63.4988 262.06 64.2588 261.88 65.0988 261.88ZM71.9151 267.52C71.9151 266.4 72.1351 265.42 72.5751 264.58C73.0284 263.727 73.6484 263.073 74.4351 262.62C75.2351 262.153 76.1351 261.92 77.1351 261.92C78.1751 261.92 79.0684 262.16 79.8151 262.64C80.5751 263.12 81.1217 263.733 81.4551 264.48V262.08H82.8551V273H81.4551V270.58C81.1084 271.327 80.5551 271.947 79.7951 272.44C79.0484 272.92 78.1551 273.16 77.1151 273.16C76.1284 273.16 75.2351 272.927 74.4351 272.46C73.6484 271.993 73.0284 271.333 72.5751 270.48C72.1351 269.627 71.9151 268.64 71.9151 267.52ZM81.4551 267.54C81.4551 266.66 81.2751 265.887 80.9151 265.22C80.5551 264.553 80.0617 264.04 79.4351 263.68C78.8217 263.32 78.1417 263.14 77.3951 263.14C76.6217 263.14 75.9284 263.313 75.3151 263.66C74.7017 264.007 74.2151 264.513 73.8551 265.18C73.5084 265.833 73.3351 266.613 73.3351 267.52C73.3351 268.413 73.5084 269.2 73.8551 269.88C74.2151 270.547 74.7017 271.06 75.3151 271.42C75.9284 271.767 76.6217 271.94 77.3951 271.94C78.1417 271.94 78.8217 271.76 79.4351 271.4C80.0617 271.04 80.5551 270.527 80.9151 269.86C81.2751 269.193 81.4551 268.42 81.4551 267.54ZM89.9312 271.64L93.6112 262.08H95.0912L90.7112 273H89.1312L84.7512 262.08H86.2512L89.9312 271.64ZM106.869 266.98C106.869 267.46 106.855 267.827 106.829 268.08H97.7687C97.8087 268.907 98.0087 269.613 98.3687 270.2C98.7287 270.787 99.202 271.233 99.7887 271.54C100.375 271.833 101.015 271.98 101.709 271.98C102.615 271.98 103.375 271.76 103.989 271.32C104.615 270.88 105.029 270.287 105.229 269.54H106.709C106.442 270.607 105.869 271.48 104.989 272.16C104.122 272.827 103.029 273.16 101.709 273.16C100.682 273.16 99.762 272.933 98.9487 272.48C98.1353 272.013 97.4953 271.36 97.0287 270.52C96.5753 269.667 96.3487 268.673 96.3487 267.54C96.3487 266.407 96.5753 265.413 97.0287 264.56C97.482 263.707 98.1153 263.053 98.9287 262.6C99.742 262.147 100.669 261.92 101.709 261.92C102.749 261.92 103.655 262.147 104.429 262.6C105.215 263.053 105.815 263.667 106.229 264.44C106.655 265.2 106.869 266.047 106.869 266.98ZM105.449 266.94C105.462 266.127 105.295 265.433 104.949 264.86C104.615 264.287 104.155 263.853 103.569 263.56C102.982 263.267 102.342 263.12 101.649 263.12C100.609 263.12 99.722 263.453 98.9887 264.12C98.2553 264.787 97.8487 265.727 97.7687 266.94H105.449ZM118.678 273.16C117.425 273.16 116.398 272.873 115.598 272.3C114.812 271.713 114.372 270.92 114.278 269.92H115.718C115.785 270.533 116.072 271.033 116.578 271.42C117.098 271.793 117.792 271.98 118.658 271.98C119.418 271.98 120.012 271.8 120.438 271.44C120.878 271.08 121.098 270.633 121.098 270.1C121.098 269.727 120.978 269.42 120.738 269.18C120.498 268.94 120.192 268.753 119.818 268.62C119.458 268.473 118.965 268.32 118.338 268.16C117.525 267.947 116.865 267.733 116.358 267.52C115.852 267.307 115.418 266.993 115.058 266.58C114.712 266.153 114.538 265.587 114.538 264.88C114.538 264.347 114.698 263.853 115.018 263.4C115.338 262.947 115.792 262.587 116.378 262.32C116.965 262.053 117.632 261.92 118.378 261.92C119.552 261.92 120.498 262.22 121.218 262.82C121.938 263.407 122.325 264.22 122.378 265.26H120.978C120.938 264.62 120.685 264.107 120.218 263.72C119.765 263.32 119.138 263.12 118.338 263.12C117.632 263.12 117.058 263.287 116.618 263.62C116.178 263.953 115.958 264.367 115.958 264.86C115.958 265.287 116.085 265.64 116.338 265.92C116.605 266.187 116.932 266.4 117.318 266.56C117.705 266.707 118.225 266.873 118.878 267.06C119.665 267.273 120.292 267.48 120.758 267.68C121.225 267.88 121.625 268.173 121.958 268.56C122.292 268.947 122.465 269.46 122.478 270.1C122.478 270.687 122.318 271.213 121.998 271.68C121.678 272.133 121.232 272.493 120.658 272.76C120.085 273.027 119.425 273.16 118.678 273.16ZM134.574 262.08V273H133.174V271.08C132.854 271.76 132.36 272.28 131.694 272.64C131.027 273 130.28 273.18 129.454 273.18C128.147 273.18 127.08 272.78 126.254 271.98C125.427 271.167 125.014 269.993 125.014 268.46V262.08H126.394V268.3C126.394 269.487 126.687 270.393 127.274 271.02C127.874 271.647 128.687 271.96 129.714 271.96C130.767 271.96 131.607 271.627 132.234 270.96C132.86 270.293 133.174 269.313 133.174 268.02V262.08H134.574ZM137.13 267.54C137.13 266.407 137.357 265.42 137.81 264.58C138.263 263.727 138.89 263.073 139.69 262.62C140.49 262.153 141.403 261.92 142.43 261.92C143.777 261.92 144.883 262.253 145.75 262.92C146.63 263.587 147.197 264.493 147.45 265.64H145.95C145.763 264.853 145.357 264.24 144.73 263.8C144.117 263.347 143.35 263.12 142.43 263.12C141.697 263.12 141.037 263.287 140.45 263.62C139.863 263.953 139.397 264.453 139.05 265.12C138.717 265.773 138.55 266.58 138.55 267.54C138.55 268.5 138.717 269.313 139.05 269.98C139.397 270.647 139.863 271.147 140.45 271.48C141.037 271.813 141.697 271.98 142.43 271.98C143.35 271.98 144.117 271.76 144.73 271.32C145.357 270.867 145.763 270.24 145.95 269.44H147.45C147.197 270.56 146.63 271.46 145.75 272.14C144.87 272.82 143.763 273.16 142.43 273.16C141.403 273.16 140.49 272.933 139.69 272.48C138.89 272.013 138.263 271.36 137.81 270.52C137.357 269.667 137.13 268.673 137.13 267.54ZM149.396 267.54C149.396 266.407 149.622 265.42 150.076 264.58C150.529 263.727 151.156 263.073 151.956 262.62C152.756 262.153 153.669 261.92 154.696 261.92C156.042 261.92 157.149 262.253 158.016 262.92C158.896 263.587 159.462 264.493 159.716 265.64H158.216C158.029 264.853 157.622 264.24 156.996 263.8C156.382 263.347 155.616 263.12 154.696 263.12C153.962 263.12 153.302 263.287 152.716 263.62C152.129 263.953 151.662 264.453 151.316 265.12C150.982 265.773 150.816 266.58 150.816 267.54C150.816 268.5 150.982 269.313 151.316 269.98C151.662 270.647 152.129 271.147 152.716 271.48C153.302 271.813 153.962 271.98 154.696 271.98C155.616 271.98 156.382 271.76 156.996 271.32C157.622 270.867 158.029 270.24 158.216 269.44H159.716C159.462 270.56 158.896 271.46 158.016 272.14C157.136 272.82 156.029 273.16 154.696 273.16C153.669 273.16 152.756 272.933 151.956 272.48C151.156 272.013 150.529 271.36 150.076 270.52C149.622 269.667 149.396 268.673 149.396 267.54ZM172.181 266.98C172.181 267.46 172.168 267.827 172.141 268.08H163.081C163.121 268.907 163.321 269.613 163.681 270.2C164.041 270.787 164.515 271.233 165.101 271.54C165.688 271.833 166.328 271.98 167.021 271.98C167.928 271.98 168.688 271.76 169.301 271.32C169.928 270.88 170.341 270.287 170.541 269.54H172.021C171.755 270.607 171.181 271.48 170.301 272.16C169.435 272.827 168.341 273.16 167.021 273.16C165.995 273.16 165.075 272.933 164.261 272.48C163.448 272.013 162.808 271.36 162.341 270.52C161.888 269.667 161.661 268.673 161.661 267.54C161.661 266.407 161.888 265.413 162.341 264.56C162.795 263.707 163.428 263.053 164.241 262.6C165.055 262.147 165.981 261.92 167.021 261.92C168.061 261.92 168.968 262.147 169.741 262.6C170.528 263.053 171.128 263.667 171.541 264.44C171.968 265.2 172.181 266.047 172.181 266.98ZM170.761 266.94C170.775 266.127 170.608 265.433 170.261 264.86C169.928 264.287 169.468 263.853 168.881 263.56C168.295 263.267 167.655 263.12 166.961 263.12C165.921 263.12 165.035 263.453 164.301 264.12C163.568 264.787 163.161 265.727 163.081 266.94H170.761ZM178.503 273.16C177.249 273.16 176.223 272.873 175.423 272.3C174.636 271.713 174.196 270.92 174.103 269.92H175.543C175.609 270.533 175.896 271.033 176.403 271.42C176.923 271.793 177.616 271.98 178.483 271.98C179.243 271.98 179.836 271.8 180.263 271.44C180.703 271.08 180.923 270.633 180.923 270.1C180.923 269.727 180.803 269.42 180.563 269.18C180.323 268.94 180.016 268.753 179.643 268.62C179.283 268.473 178.789 268.32 178.163 268.16C177.349 267.947 176.689 267.733 176.183 267.52C175.676 267.307 175.243 266.993 174.883 266.58C174.536 266.153 174.363 265.587 174.363 264.88C174.363 264.347 174.523 263.853 174.843 263.4C175.163 262.947 175.616 262.587 176.203 262.32C176.789 262.053 177.456 261.92 178.203 261.92C179.376 261.92 180.323 262.22 181.043 262.82C181.763 263.407 182.149 264.22 182.203 265.26H180.803C180.763 264.62 180.509 264.107 180.043 263.72C179.589 263.32 178.963 263.12 178.163 263.12C177.456 263.12 176.883 263.287 176.443 263.62C176.003 263.953 175.783 264.367 175.783 264.86C175.783 265.287 175.909 265.64 176.163 265.92C176.429 266.187 176.756 266.4 177.143 266.56C177.529 266.707 178.049 266.873 178.703 267.06C179.489 267.273 180.116 267.48 180.583 267.68C181.049 267.88 181.449 268.173 181.783 268.56C182.116 268.947 182.289 269.46 182.303 270.1C182.303 270.687 182.143 271.213 181.823 271.68C181.503 272.133 181.056 272.493 180.483 272.76C179.909 273.027 179.249 273.16 178.503 273.16ZM188.698 273.16C187.445 273.16 186.418 272.873 185.618 272.3C184.831 271.713 184.391 270.92 184.298 269.92H185.738C185.805 270.533 186.091 271.033 186.598 271.42C187.118 271.793 187.811 271.98 188.678 271.98C189.438 271.98 190.031 271.8 190.458 271.44C190.898 271.08 191.118 270.633 191.118 270.1C191.118 269.727 190.998 269.42 190.758 269.18C190.518 268.94 190.211 268.753 189.838 268.62C189.478 268.473 188.985 268.32 188.358 268.16C187.545 267.947 186.885 267.733 186.378 267.52C185.871 267.307 185.438 266.993 185.078 266.58C184.731 266.153 184.558 265.587 184.558 264.88C184.558 264.347 184.718 263.853 185.038 263.4C185.358 262.947 185.811 262.587 186.398 262.32C186.985 262.053 187.651 261.92 188.398 261.92C189.571 261.92 190.518 262.22 191.238 262.82C191.958 263.407 192.345 264.22 192.398 265.26H190.998C190.958 264.62 190.705 264.107 190.238 263.72C189.785 263.32 189.158 263.12 188.358 263.12C187.651 263.12 187.078 263.287 186.638 263.62C186.198 263.953 185.978 264.367 185.978 264.86C185.978 265.287 186.105 265.64 186.358 265.92C186.625 266.187 186.951 266.4 187.338 266.56C187.725 266.707 188.245 266.873 188.898 267.06C189.685 267.273 190.311 267.48 190.778 267.68C191.245 267.88 191.645 268.173 191.978 268.56C192.311 268.947 192.485 269.46 192.498 270.1C192.498 270.687 192.338 271.213 192.018 271.68C191.698 272.133 191.251 272.493 190.678 272.76C190.105 273.027 189.445 273.16 188.698 273.16ZM199.433 263.26H196.893V273H195.493V263.26H193.973V262.08H195.493V261.32C195.493 260.133 195.793 259.26 196.393 258.7C197.007 258.14 197.993 257.86 199.353 257.86V259.06C198.447 259.06 197.807 259.233 197.433 259.58C197.073 259.927 196.893 260.507 196.893 261.32V262.08H199.433V263.26ZM211.097 262.08V273H209.697V271.08C209.377 271.76 208.884 272.28 208.217 272.64C207.55 273 206.804 273.18 205.977 273.18C204.67 273.18 203.604 272.78 202.777 271.98C201.95 271.167 201.537 269.993 201.537 268.46V262.08H202.917V268.3C202.917 269.487 203.21 270.393 203.797 271.02C204.397 271.647 205.21 271.96 206.237 271.96C207.29 271.96 208.13 271.627 208.757 270.96C209.384 270.293 209.697 269.313 209.697 268.02V262.08H211.097ZM215.693 258.2V273H214.293V258.2H215.693ZM220.264 258.2V273H218.864V258.2H220.264ZM232.434 262.08L225.954 278.14H224.494L226.614 272.94L222.134 262.08H223.674L227.394 271.4L230.994 262.08H232.434ZM19.7471 297.54C19.7471 296.407 19.9738 295.42 20.4271 294.58C20.8804 293.727 21.5071 293.073 22.3071 292.62C23.1071 292.153 24.0204 291.92 25.0471 291.92C26.3938 291.92 27.5004 292.253 28.3671 292.92C29.2471 293.587 29.8138 294.493 30.0671 295.64H28.5671C28.3804 294.853 27.9738 294.24 27.3471 293.8C26.7338 293.347 25.9671 293.12 25.0471 293.12C24.3138 293.12 23.6538 293.287 23.0671 293.62C22.4804 293.953 22.0138 294.453 21.6671 295.12C21.3338 295.773 21.1671 296.58 21.1671 297.54C21.1671 298.5 21.3338 299.313 21.6671 299.98C22.0138 300.647 22.4804 301.147 23.0671 301.48C23.6538 301.813 24.3138 301.98 25.0471 301.98C25.9671 301.98 26.7338 301.76 27.3471 301.32C27.9738 300.867 28.3804 300.24 28.5671 299.44H30.0671C29.8138 300.56 29.2471 301.46 28.3671 302.14C27.4871 302.82 26.3804 303.16 25.0471 303.16C24.0204 303.16 23.1071 302.933 22.3071 302.48C21.5071 302.013 20.8804 301.36 20.4271 300.52C19.9738 299.667 19.7471 298.673 19.7471 297.54ZM34.0527 294.02C34.3594 293.34 34.8261 292.813 35.4527 292.44C36.0927 292.067 36.8727 291.88 37.7927 291.88V293.34H37.4127C36.3994 293.34 35.5861 293.613 34.9727 294.16C34.3594 294.707 34.0527 295.62 34.0527 296.9V303H32.6527V292.08H34.0527V294.02ZM49.7788 296.98C49.7788 297.46 49.7655 297.827 49.7388 298.08H40.6788C40.7188 298.907 40.9188 299.613 41.2788 300.2C41.6388 300.787 42.1122 301.233 42.6988 301.54C43.2855 301.833 43.9255 301.98 44.6188 301.98C45.5255 301.98 46.2855 301.76 46.8988 301.32C47.5255 300.88 47.9388 300.287 48.1388 299.54H49.6188C49.3522 300.607 48.7788 301.48 47.8988 302.16C47.0322 302.827 45.9388 303.16 44.6188 303.16C43.5922 303.16 42.6722 302.933 41.8588 302.48C41.0455 302.013 40.4055 301.36 39.9388 300.52C39.4855 299.667 39.2588 298.673 39.2588 297.54C39.2588 296.407 39.4855 295.413 39.9388 294.56C40.3922 293.707 41.0255 293.053 41.8388 292.6C42.6522 292.147 43.5788 291.92 44.6188 291.92C45.6588 291.92 46.5655 292.147 47.3388 292.6C48.1255 293.053 48.7255 293.667 49.1388 294.44C49.5655 295.2 49.7788 296.047 49.7788 296.98ZM48.3588 296.94C48.3722 296.127 48.2055 295.433 47.8588 294.86C47.5255 294.287 47.0655 293.853 46.4788 293.56C45.8922 293.267 45.2522 293.12 44.5588 293.12C43.5188 293.12 42.6322 293.453 41.8988 294.12C41.1655 294.787 40.7588 295.727 40.6788 296.94H48.3588ZM51.7002 297.52C51.7002 296.4 51.9202 295.42 52.3602 294.58C52.8136 293.727 53.4336 293.073 54.2202 292.62C55.0202 292.153 55.9202 291.92 56.9202 291.92C57.9602 291.92 58.8536 292.16 59.6002 292.64C60.3602 293.12 60.9069 293.733 61.2402 294.48V292.08H62.6402V303H61.2402V300.58C60.8936 301.327 60.3402 301.947 59.5802 302.44C58.8336 302.92 57.9402 303.16 56.9002 303.16C55.9136 303.16 55.0202 302.927 54.2202 302.46C53.4336 301.993 52.8136 301.333 52.3602 300.48C51.9202 299.627 51.7002 298.64 51.7002 297.52ZM61.2402 297.54C61.2402 296.66 61.0602 295.887 60.7002 295.22C60.3402 294.553 59.8469 294.04 59.2202 293.68C58.6069 293.32 57.9269 293.14 57.1802 293.14C56.4069 293.14 55.7136 293.313 55.1002 293.66C54.4869 294.007 54.0002 294.513 53.6402 295.18C53.2936 295.833 53.1202 296.613 53.1202 297.52C53.1202 298.413 53.2936 299.2 53.6402 299.88C54.0002 300.547 54.4869 301.06 55.1002 301.42C55.7136 301.767 56.4069 301.94 57.1802 301.94C57.9269 301.94 58.6069 301.76 59.2202 301.4C59.8469 301.04 60.3402 300.527 60.7002 299.86C61.0602 299.193 61.2402 298.42 61.2402 297.54ZM67.6563 293.26V300.04C67.6563 300.707 67.783 301.167 68.0363 301.42C68.2897 301.673 68.7363 301.8 69.3763 301.8H70.6563V303H69.1563C68.1697 303 67.4363 302.773 66.9563 302.32C66.4763 301.853 66.2363 301.093 66.2363 300.04V293.26H64.7163V292.08H66.2363V289.34H67.6563V292.08H70.6563V293.26H67.6563ZM82.8452 296.98C82.8452 297.46 82.8319 297.827 82.8052 298.08H73.7452C73.7852 298.907 73.9852 299.613 74.3452 300.2C74.7052 300.787 75.1786 301.233 75.7652 301.54C76.3519 301.833 76.9919 301.98 77.6852 301.98C78.5919 301.98 79.3519 301.76 79.9652 301.32C80.5919 300.88 81.0052 300.287 81.2052 299.54H82.6852C82.4186 300.607 81.8452 301.48 80.9652 302.16C80.0986 302.827 79.0052 303.16 77.6852 303.16C76.6586 303.16 75.7386 302.933 74.9252 302.48C74.1119 302.013 73.4719 301.36 73.0052 300.52C72.5519 299.667 72.3252 298.673 72.3252 297.54C72.3252 296.407 72.5519 295.413 73.0052 294.56C73.4586 293.707 74.0919 293.053 74.9052 292.6C75.7186 292.147 76.6452 291.92 77.6852 291.92C78.7252 291.92 79.6319 292.147 80.4052 292.6C81.1919 293.053 81.7919 293.667 82.2052 294.44C82.6319 295.2 82.8452 296.047 82.8452 296.98ZM81.4252 296.94C81.4386 296.127 81.2719 295.433 80.9252 294.86C80.5919 294.287 80.1319 293.853 79.5452 293.56C78.9586 293.267 78.3186 293.12 77.6252 293.12C76.5852 293.12 75.6986 293.453 74.9652 294.12C74.2319 294.787 73.8252 295.727 73.7452 296.94H81.4252ZM84.7666 297.52C84.7666 296.4 84.9933 295.42 85.4466 294.58C85.9 293.727 86.52 293.073 87.3066 292.62C88.1066 292.153 89.0066 291.92 90.0066 291.92C90.9666 291.92 91.8333 292.153 92.6066 292.62C93.38 293.087 93.9466 293.693 94.3066 294.44V288.2H95.7066V303H94.3066V300.56C93.9733 301.32 93.4266 301.947 92.6666 302.44C91.9066 302.92 91.0133 303.16 89.9866 303.16C88.9866 303.16 88.0866 302.927 87.2866 302.46C86.5 301.993 85.88 301.333 85.4266 300.48C84.9866 299.627 84.7666 298.64 84.7666 297.52ZM94.3066 297.54C94.3066 296.66 94.1266 295.887 93.7666 295.22C93.4066 294.553 92.9133 294.04 92.2866 293.68C91.6733 293.32 90.9933 293.14 90.2466 293.14C89.4733 293.14 88.78 293.313 88.1666 293.66C87.5533 294.007 87.0666 294.513 86.7066 295.18C86.36 295.833 86.1866 296.613 86.1866 297.52C86.1866 298.413 86.36 299.2 86.7066 299.88C87.0666 300.547 87.5533 301.06 88.1666 301.42C88.78 301.767 89.4733 301.94 90.2466 301.94C90.9933 301.94 91.6733 301.76 92.2866 301.4C92.9133 301.04 93.4066 300.527 93.7666 299.86C94.1266 299.193 94.3066 298.42 94.3066 297.54ZM113.391 292.08L106.911 308.14H105.451L107.571 302.94L103.091 292.08H104.631L108.351 301.4L111.951 292.08H113.391ZM120.069 303.16C119.043 303.16 118.116 302.933 117.289 302.48C116.476 302.013 115.829 301.36 115.349 300.52C114.883 299.667 114.649 298.673 114.649 297.54C114.649 296.407 114.889 295.42 115.369 294.58C115.849 293.727 116.503 293.073 117.329 292.62C118.156 292.153 119.083 291.92 120.109 291.92C121.136 291.92 122.063 292.153 122.889 292.62C123.729 293.073 124.383 293.727 124.849 294.58C125.329 295.42 125.569 296.407 125.569 297.54C125.569 298.66 125.329 299.647 124.849 300.5C124.369 301.353 123.709 302.013 122.869 302.48C122.029 302.933 121.096 303.16 120.069 303.16ZM120.069 301.94C120.789 301.94 121.456 301.78 122.069 301.46C122.683 301.127 123.176 300.633 123.549 299.98C123.936 299.313 124.129 298.5 124.129 297.54C124.129 296.58 123.943 295.773 123.569 295.12C123.196 294.453 122.703 293.96 122.089 293.64C121.476 293.307 120.809 293.14 120.089 293.14C119.369 293.14 118.703 293.307 118.089 293.64C117.476 293.96 116.983 294.453 116.609 295.12C116.249 295.773 116.069 296.58 116.069 297.54C116.069 298.5 116.249 299.313 116.609 299.98C116.983 300.633 117.469 301.127 118.069 301.46C118.683 301.78 119.349 301.94 120.069 301.94ZM137.581 292.08V303H136.181V301.08C135.861 301.76 135.368 302.28 134.701 302.64C134.035 303 133.288 303.18 132.461 303.18C131.155 303.18 130.088 302.78 129.261 301.98C128.435 301.167 128.021 299.993 128.021 298.46V292.08H129.401V298.3C129.401 299.487 129.695 300.393 130.281 301.02C130.881 301.647 131.695 301.96 132.721 301.96C133.775 301.96 134.615 301.627 135.241 300.96C135.868 300.293 136.181 299.313 136.181 298.02V292.08H137.581ZM142.178 294.02C142.484 293.34 142.951 292.813 143.578 292.44C144.218 292.067 144.998 291.88 145.918 291.88V293.34H145.538C144.524 293.34 143.711 293.613 143.098 294.16C142.484 294.707 142.178 295.62 142.178 296.9V303H140.778V292.08H142.178V294.02ZM152.872 297.52C152.872 296.4 153.092 295.42 153.532 294.58C153.985 293.727 154.605 293.073 155.392 292.62C156.192 292.153 157.092 291.92 158.092 291.92C159.132 291.92 160.025 292.16 160.772 292.64C161.532 293.12 162.079 293.733 162.412 294.48V292.08H163.812V303H162.412V300.58C162.065 301.327 161.512 301.947 160.752 302.44C160.005 302.92 159.112 303.16 158.072 303.16C157.085 303.16 156.192 302.927 155.392 302.46C154.605 301.993 153.985 301.333 153.532 300.48C153.092 299.627 152.872 298.64 152.872 297.52ZM162.412 297.54C162.412 296.66 162.232 295.887 161.872 295.22C161.512 294.553 161.019 294.04 160.392 293.68C159.779 293.32 159.099 293.14 158.352 293.14C157.579 293.14 156.885 293.313 156.272 293.66C155.659 294.007 155.172 294.513 154.812 295.18C154.465 295.833 154.292 296.613 154.292 297.52C154.292 298.413 154.465 299.2 154.812 299.88C155.172 300.547 155.659 301.06 156.272 301.42C156.885 301.767 157.579 301.94 158.352 301.94C159.099 301.94 159.779 301.76 160.392 301.4C161.019 301.04 161.512 300.527 161.872 299.86C162.232 299.193 162.412 298.42 162.412 297.54ZM166.368 297.54C166.368 296.407 166.595 295.42 167.048 294.58C167.502 293.727 168.128 293.073 168.928 292.62C169.728 292.153 170.642 291.92 171.668 291.92C173.015 291.92 174.122 292.253 174.988 292.92C175.868 293.587 176.435 294.493 176.688 295.64H175.188C175.002 294.853 174.595 294.24 173.968 293.8C173.355 293.347 172.588 293.12 171.668 293.12C170.935 293.12 170.275 293.287 169.688 293.62C169.102 293.953 168.635 294.453 168.288 295.12C167.955 295.773 167.788 296.58 167.788 297.54C167.788 298.5 167.955 299.313 168.288 299.98C168.635 300.647 169.102 301.147 169.688 301.48C170.275 301.813 170.935 301.98 171.668 301.98C172.588 301.98 173.355 301.76 173.968 301.32C174.595 300.867 175.002 300.24 175.188 299.44H176.688C176.435 300.56 175.868 301.46 174.988 302.14C174.108 302.82 173.002 303.16 171.668 303.16C170.642 303.16 169.728 302.933 168.928 302.48C168.128 302.013 167.502 301.36 167.048 300.52C166.595 299.667 166.368 298.673 166.368 297.54ZM178.634 297.54C178.634 296.407 178.86 295.42 179.314 294.58C179.767 293.727 180.394 293.073 181.194 292.62C181.994 292.153 182.907 291.92 183.934 291.92C185.28 291.92 186.387 292.253 187.254 292.92C188.134 293.587 188.7 294.493 188.954 295.64H187.454C187.267 294.853 186.86 294.24 186.234 293.8C185.62 293.347 184.854 293.12 183.934 293.12C183.2 293.12 182.54 293.287 181.954 293.62C181.367 293.953 180.9 294.453 180.554 295.12C180.22 295.773 180.054 296.58 180.054 297.54C180.054 298.5 180.22 299.313 180.554 299.98C180.9 300.647 181.367 301.147 181.954 301.48C182.54 301.813 183.2 301.98 183.934 301.98C184.854 301.98 185.62 301.76 186.234 301.32C186.86 300.867 187.267 300.24 187.454 299.44H188.954C188.7 300.56 188.134 301.46 187.254 302.14C186.374 302.82 185.267 303.16 183.934 303.16C182.907 303.16 181.994 302.933 181.194 302.48C180.394 302.013 179.767 301.36 179.314 300.52C178.86 299.667 178.634 298.673 178.634 297.54ZM196.319 303.16C195.293 303.16 194.366 302.933 193.539 302.48C192.726 302.013 192.079 301.36 191.599 300.52C191.133 299.667 190.899 298.673 190.899 297.54C190.899 296.407 191.139 295.42 191.619 294.58C192.099 293.727 192.753 293.073 193.579 292.62C194.406 292.153 195.333 291.92 196.359 291.92C197.386 291.92 198.313 292.153 199.139 292.62C199.979 293.073 200.633 293.727 201.099 294.58C201.579 295.42 201.819 296.407 201.819 297.54C201.819 298.66 201.579 299.647 201.099 300.5C200.619 301.353 199.959 302.013 199.119 302.48C198.279 302.933 197.346 303.16 196.319 303.16ZM196.319 301.94C197.039 301.94 197.706 301.78 198.319 301.46C198.933 301.127 199.426 300.633 199.799 299.98C200.186 299.313 200.379 298.5 200.379 297.54C200.379 296.58 200.193 295.773 199.819 295.12C199.446 294.453 198.953 293.96 198.339 293.64C197.726 293.307 197.059 293.14 196.339 293.14C195.619 293.14 194.953 293.307 194.339 293.64C193.726 293.96 193.233 294.453 192.859 295.12C192.499 295.773 192.319 296.58 192.319 297.54C192.319 298.5 192.499 299.313 192.859 299.98C193.233 300.633 193.719 301.127 194.319 301.46C194.933 301.78 195.599 301.94 196.319 301.94ZM213.831 292.08V303H212.431V301.08C212.111 301.76 211.618 302.28 210.951 302.64C210.285 303 209.538 303.18 208.711 303.18C207.405 303.18 206.338 302.78 205.511 301.98C204.685 301.167 204.271 299.993 204.271 298.46V292.08H205.651V298.3C205.651 299.487 205.945 300.393 206.531 301.02C207.131 301.647 207.945 301.96 208.971 301.96C210.025 301.96 210.865 301.627 211.491 300.96C212.118 300.293 212.431 299.313 212.431 298.02V292.08H213.831ZM222.148 291.88C223.454 291.88 224.521 292.287 225.348 293.1C226.174 293.9 226.588 295.067 226.588 296.6V303H225.208V296.76C225.208 295.573 224.908 294.667 224.308 294.04C223.721 293.413 222.914 293.1 221.888 293.1C220.834 293.1 219.994 293.433 219.368 294.1C218.741 294.767 218.428 295.747 218.428 297.04V303H217.028V292.08H218.428V293.94C218.774 293.273 219.274 292.767 219.928 292.42C220.581 292.06 221.321 291.88 222.148 291.88ZM231.504 293.26V300.04C231.504 300.707 231.631 301.167 231.884 301.42C232.137 301.673 232.584 301.8 233.224 301.8H234.504V303H233.004C232.017 303 231.284 302.773 230.804 302.32C230.324 301.853 230.084 301.093 230.084 300.04V293.26H228.564V292.08H230.084V289.34H231.504V292.08H234.504V293.26H231.504Z" fill="#00263A"/>
<defs>
<clipPath id="clip0_60_3936">
<rect width="161" height="161" fill="white" transform="translate(46.5)"/>
</clipPath>
</defs>
</svg>
