<svg width="43" height="44" viewBox="0 0 43 44" fill="none" xmlns="http://www.w3.org/2000/svg">
<g clip-path="url(#clip0_60_3304)">
<path d="M21.5 43.4C33.3741 43.4 43 33.7741 43 21.9C43 10.0258 33.3741 0.399963 21.5 0.399963C9.62588 0.399963 0 10.0258 0 21.9C0 33.7741 9.62588 43.4 21.5 43.4Z" fill="#3A559F"/>
<path d="M28.3117 19.3542L27.8793 23.0996C27.8613 23.2705 27.7813 23.4288 27.6542 23.5446C27.5272 23.6603 27.3621 23.7254 27.1903 23.7275H23.2812L23.2617 34.8317C23.263 34.9633 23.2125 35.0901 23.121 35.1848C23.0296 35.2794 22.9046 35.3343 22.773 35.3375H18.8126C18.7468 35.3375 18.6816 35.3243 18.621 35.2985C18.5604 35.2727 18.5057 35.235 18.46 35.1875C18.4144 35.14 18.3788 35.0838 18.3554 35.0223C18.3321 34.9607 18.3214 34.8951 18.324 34.8293V23.7275H15.3922C15.3001 23.7265 15.2091 23.7074 15.1244 23.6713C15.0397 23.6352 14.9629 23.5827 14.8985 23.5169C14.8341 23.4511 14.7832 23.3733 14.7489 23.2878C14.7145 23.2024 14.6974 23.111 14.6983 23.0189L14.6837 19.2735C14.6824 19.1811 14.6993 19.0894 14.7335 19.0035C14.7676 18.9177 14.8184 18.8394 14.8828 18.7731C14.9473 18.7069 15.0241 18.654 15.109 18.6174C15.1939 18.5809 15.2851 18.5614 15.3775 18.5601H18.324V14.9442C18.324 10.7468 20.8161 8.46246 24.4711 8.46246H27.4664C27.559 8.46342 27.6505 8.48265 27.7357 8.51905C27.8208 8.55545 27.898 8.60831 27.9627 8.67459C28.0274 8.74087 28.0783 8.81927 28.1127 8.90529C28.147 8.99131 28.164 9.08326 28.1627 9.17587V12.3276C28.164 12.4202 28.147 12.5121 28.1127 12.5982C28.0783 12.6842 28.0274 12.7626 27.9627 12.8289C27.898 12.8951 27.8208 12.948 27.7357 12.9844C27.6505 13.0208 27.559 13.04 27.4664 13.041H25.6291C23.6428 13.041 23.2568 14.0183 23.2568 15.4304V18.5601H27.6228C27.722 18.5614 27.8199 18.5836 27.91 18.6254C28.0001 18.6672 28.0803 18.7276 28.1454 18.8026C28.2105 18.8776 28.2589 18.9655 28.2876 19.0606C28.3163 19.1556 28.3245 19.2557 28.3117 19.3542Z" fill="white"/>
</g>
<defs>
<clipPath id="clip0_60_3304">
<rect width="43" height="43" fill="white" transform="translate(0 0.399963)"/>
</clipPath>
</defs>
</svg>
