<svg width="35" height="36" viewBox="0 0 35 36" fill="none" xmlns="http://www.w3.org/2000/svg">
<g clip-path="url(#clip0_60_3297)">
<path d="M33.6783 14.8572L19.4021 14.8565C18.7717 14.8565 18.2607 15.3675 18.2607 15.9979V20.5585C18.2607 21.1887 18.7717 21.6998 19.4021 21.6998H27.4415C26.5612 23.9844 24.9181 25.8977 22.8218 27.1134L26.2498 33.0476C31.7488 29.8674 34.9998 24.2873 34.9998 18.0407C34.9998 17.1513 34.9343 16.5155 34.8032 15.7996C34.7035 15.2556 34.2313 14.8572 33.6783 14.8572Z" fill="#167EE6"/>
<path d="M17.5002 28.5521C13.5659 28.5521 10.1312 26.4025 8.28654 23.2215L2.35254 26.6418C5.37231 31.8756 11.0293 35.4 17.5002 35.4C20.6746 35.4 23.6699 34.5453 26.2502 33.0558V33.0476L22.8222 27.1134C21.2542 28.0228 19.4396 28.5521 17.5002 28.5521Z" fill="#12B347"/>
<path d="M26.25 33.0558V33.0476L22.822 27.1134C21.254 28.0228 19.4396 28.5521 17.5 28.5521V35.4C20.6744 35.4 23.6698 34.5453 26.25 33.0558Z" fill="#0F993E"/>
<path d="M6.84783 17.9C6.84783 15.9607 7.37707 14.1464 8.28632 12.5784L2.35231 9.1581C0.854629 11.7303 0 14.7174 0 17.9C0 21.0825 0.854629 24.0697 2.35231 26.6418L8.28632 23.2215C7.37707 21.6536 6.84783 19.8393 6.84783 17.9Z" fill="#FFD500"/>
<path d="M17.5002 7.2478C20.0658 7.2478 22.4224 8.15943 24.2632 9.67585C24.7173 10.0499 25.3773 10.0229 25.7932 9.60695L29.0246 6.3756C29.4965 5.90364 29.4629 5.13112 28.9588 4.69375C25.8747 2.01823 21.862 0.399963 17.5002 0.399963C11.0293 0.399963 5.37231 3.92437 2.35254 9.1581L8.28654 12.5784C10.1312 9.39742 13.5659 7.2478 17.5002 7.2478Z" fill="#FF4B26"/>
<path d="M24.2629 9.67585C24.717 10.0499 25.3771 10.0229 25.793 9.60695L29.0244 6.3756C29.4962 5.90365 29.4626 5.13112 28.9585 4.69375C25.8745 2.01817 21.8618 0.399963 17.5 0.399963V7.2478C20.0655 7.2478 22.4222 8.15944 24.2629 9.67585Z" fill="#D93F21"/>
</g>
<defs>
<clipPath id="clip0_60_3297">
<rect width="35" height="35" fill="white" transform="translate(0 0.399963)"/>
</clipPath>
</defs>
</svg>
