<?xml version="1.0" encoding="UTF-8"?>
<!-- Generator: visioncortex VTracer 0.6.3 -->
<svg version="1.1" xmlns="http://www.w3.org/2000/svg" width="1280" height="381">
<path d="M0 0 C4.62 0 9.24 0 14 0 C14 0.66 14 1.32 14 2 C14.99 1.67 15.98 1.34 17 1 C24.17 1.68 31.49 3.98 38 7 C38.49 7.99 38.49 7.99 39 9 C40.66 9.69 42.33 10.35 44 11 C52.81 15.63 59.26 23.89 63 33 C63.75 36 63.75 36 64 38 C64.66 38 65.32 38 66 38 C66.12 38.64 66.24 39.28 66.37 39.94 C66.53 40.81 66.7 41.67 66.88 42.56 C67.04 43.41 67.2 44.26 67.37 45.13 C67.95 48.04 67.95 48.04 69.03 50.93 C70.53 56.2 70.26 61.56 70.23 66.99 C70.23 68.18 70.23 69.38 70.23 70.6 C70.23 73.85 70.22 77.1 70.2 80.35 C70.19 83.75 70.19 87.15 70.19 90.55 C70.18 96.98 70.16 103.41 70.14 109.84 C70.12 117.17 70.11 124.49 70.1 131.82 C70.08 146.88 70.04 161.94 70 177 C69.01 177.33 68.02 177.66 67 178 C67.03 179.92 67.03 179.92 67.06 181.88 C67.12 185.75 67.12 185.75 66 188 C65.34 188 64.68 188 64 188 C63.97 188.68 63.95 189.35 63.92 190.05 C62.53 194.49 59.54 197 56.25 200.19 C55.63 200.82 55.01 201.44 54.37 202.09 C51.11 205.3 48.48 207.69 44 209 C42.67 209.59 42.67 209.59 41.31 210.19 C40.17 210.59 40.17 210.59 39 211 C38.34 210.67 37.68 210.34 37 210 C37 210.66 37 211.32 37 212 C29.98 215.41 23.47 215.43 15.74 215.34 C13.67 215.31 11.61 215.32 9.54 215.32 C-0.6 215.27 -0.6 215.27 -4 213 C-6.01 212.77 -8.02 212.55 -10.03 212.33 C-12.84 211.86 -14.64 210.58 -17 209 C-18.64 208.17 -20.29 207.36 -21.94 206.56 C-28.2 203.44 -32.61 200.48 -37 195 C-38.03 194.32 -39.06 193.64 -40.12 192.94 C-42.95 191.03 -43.98 190.17 -45 187 C-45 186.01 -45 185.02 -45 184 C-45.66 184 -46.32 184 -47 184 C-48.55 181.68 -49.84 179.32 -51.06 176.81 C-51.98 174.82 -51.98 174.82 -54 173 C-54.12 170.38 -54.12 170.38 -54 168 C-54.66 168 -55.32 168 -56 168 C-59.94 154.58 -62.57 140.89 -65.34 127.19 C-66.05 123.77 -66.8 120.36 -67.57 116.96 C-68.24 113.9 -68.84 110.83 -69.44 107.75 C-70.38 102.96 -71.43 98.23 -72.62 93.5 C-75.55 80.94 -77.24 65.1 -72 53 C-71.64 51.65 -71.3 50.3 -71 48.94 C-70.31 46.06 -69.5 43.58 -68 41 C-67.34 41 -66.68 41 -66 41 C-66.14 40.32 -66.29 39.64 -66.44 38.94 C-65.83 34.86 -63.68 33.42 -60.73 30.69 C-58.67 28.68 -57.46 26.47 -56 24 C-52.74 20.24 -49.4 17.37 -45 15 C-44.13 14.44 -43.27 13.89 -42.38 13.31 C-40 12 -40 12 -37 12 C-37 11.34 -37 10.68 -37 10 C-35.68 10 -34.36 10 -33 10 C-33 9.34 -33 8.68 -33 8 C-27.9 6.09 -23.54 4.57 -18 5 C-18 4.34 -18 3.68 -18 3 C-11.97 1.93 -6.11 1.9 0 2 C0 1.34 0 0.68 0 0 Z M62 34 C63 36 63 36 63 36 Z M49 203 C50 205 50 205 50 205 Z " fill="#106E53" transform="translate(1210,100)"/>
<path d="M0 0 C1.28 0 2.56 0.01 3.88 0.01 C5.15 0.01 6.43 0 7.75 0 C10.88 0.13 10.88 0.13 11.88 1.13 C13.7 1.35 15.52 1.55 17.35 1.73 C27.84 2.73 37.81 4.45 46.88 10.13 C48.7 11.14 50.54 12.14 52.38 13.13 C62.97 18.85 62.97 18.85 65.88 23.13 C67.05 24.31 68.25 25.47 69.5 26.57 C70.88 28.13 70.88 28.13 70.88 31.13 C71.49 31.36 72.11 31.59 72.75 31.82 C75.52 33.53 75.78 35.13 76.88 38.13 C77.37 38.57 77.87 39 78.38 39.45 C81.39 42.84 81.82 47.73 82 52.13 C81.96 52.79 81.92 53.45 81.88 54.13 C82.54 54.13 83.19 54.13 83.88 54.13 C86.79 60.35 86.2 66.64 86.19 73.38 C86.2 74.67 86.22 75.95 86.24 77.28 C86.24 84.59 85.63 90.35 82.88 97.13 C82.88 97.46 82.88 97.79 82.88 98.13 C82.73 98.79 82.59 99.45 82.44 100.13 C81.96 102.69 81.71 105.11 81.5 107.7 C81.13 111.29 80.58 113.54 77.88 116.13 C77.55 116.13 77.21 116.13 76.88 116.13 C76.92 117.35 76.96 118.57 77 119.82 C77 128.41 75.48 136.96 72.88 145.13 C71.47 149.98 71.14 155.02 70.57 160.02 C69.88 163.13 69.88 163.13 66.88 165.13 C66.37 167.23 66.37 167.23 66.31 169.57 C66.12 173.1 65.93 174.05 63.88 177.13 C61.25 177.82 61.25 177.82 58.88 178.13 C58.88 179.12 58.88 180.11 58.88 181.13 C59.54 181.46 60.19 181.79 60.88 182.13 C60.19 182.75 60.19 182.75 59.5 183.38 C57.82 184.99 57.82 184.99 57.16 186.85 C55.25 190.24 52.53 192.69 49.75 195.38 C49.19 195.94 48.62 196.49 48.04 197.06 C46.66 198.42 45.27 199.78 43.88 201.13 C42.88 200.8 41.89 200.47 40.88 200.13 C40.41 201.09 40.41 201.09 39.94 202.07 C38.88 204.13 38.88 204.13 37.88 205.13 C36.21 205.17 34.54 205.18 32.88 205.13 C32.88 206.12 32.88 207.11 32.88 208.13 C29.03 209.73 25.15 211.07 21.19 212.32 C19.48 212.87 19.48 212.87 17.74 213.43 C14.88 214.13 14.88 214.13 12.88 213.13 C12.88 213.79 12.88 214.45 12.88 215.13 C8.55 215.21 4.23 215.26 -0.09 215.3 C-1.56 215.31 -3.03 215.33 -4.5 215.36 C-6.62 215.4 -8.74 215.41 -10.86 215.43 C-12.13 215.44 -13.4 215.46 -14.71 215.47 C-18.35 215.11 -20.26 214.38 -23.12 212.13 C-23.12 211.47 -23.12 210.81 -23.12 210.13 C-24.12 210.46 -25.11 210.79 -26.12 211.13 C-29.25 210.3 -30.72 209.8 -32.44 207.01 C-32.78 206.08 -32.78 206.08 -33.12 205.13 C-34.12 205.46 -35.11 205.79 -36.12 206.13 C-39.25 204.88 -39.25 204.88 -42.12 203.13 C-42.46 202.14 -42.78 201.15 -43.12 200.13 C-43.74 199.68 -44.36 199.23 -45 198.76 C-47.49 196.85 -48.57 194.82 -50.12 192.13 C-50.78 191.8 -51.45 191.47 -52.12 191.13 C-52.91 189.38 -52.91 189.38 -53.62 187.13 C-53.86 186.41 -54.1 185.69 -54.34 184.95 C-56.56 176.97 -57.41 169.73 -57.37 161.44 C-57.37 160.3 -57.37 159.17 -57.37 157.99 C-57.38 154.26 -57.37 150.53 -57.36 146.79 C-57.35 144.18 -57.35 141.58 -57.35 138.97 C-57.35 133.51 -57.34 128.05 -57.33 122.59 C-57.32 116.3 -57.31 110.01 -57.31 103.72 C-57.31 97.64 -57.31 91.57 -57.3 85.49 C-57.29 82.92 -57.29 80.34 -57.29 77.77 C-57.29 74.16 -57.28 70.56 -57.27 66.96 C-57.27 65.9 -57.27 64.85 -57.27 63.77 C-57.2 46.2 -57.2 46.2 -55.12 44.13 C-55.06 43.02 -55 41.91 -54.94 40.76 C-53.6 28.77 -43.88 19.33 -35.25 11.78 C-32.35 9.53 -29.56 8.41 -26.12 7.13 C-25.13 6.47 -24.14 5.81 -23.12 5.13 C-17.72 3.29 -12.24 2.44 -6.6 1.6 C-3.42 1 -3.45 0.15 0 0 Z M52.88 188.13 C53.88 190.13 53.88 190.13 53.88 190.13 Z M16.88 210.13 C17.21 210.79 17.53 211.45 17.88 212.13 C18.53 211.47 19.19 210.81 19.88 210.13 C18.88 210.13 17.89 210.13 16.88 210.13 Z " fill="#106E53" transform="translate(1005.125,99.8671875)"/>
<path d="M0 0 C9.96 -0.55 16.08 0.04 23.88 6.31 C26.36 9.45 27.12 12.12 28 16 C28.33 16.66 28.66 17.32 29 18 C29.1 19.69 29.13 21.39 29.13 23.09 C29.13 24.1 29.14 25.11 29.14 26.16 C29.13 27.22 29.13 28.28 29.12 29.38 C29.13 30.43 29.13 31.48 29.14 32.57 C29.13 34.09 29.13 34.09 29.13 35.65 C29.13 37.04 29.13 37.04 29.13 38.47 C29.01 40.79 28.66 42.77 28 45 C33.09 44.91 38.18 44.8 43.27 44.68 C45 44.64 46.74 44.61 48.47 44.58 C50.96 44.53 53.44 44.47 55.93 44.41 C56.71 44.4 57.48 44.39 58.28 44.38 C62.61 44.41 62.61 44.41 66 42 C66.34 39.12 66.34 39.12 66.34 35.75 C66.37 34.5 66.4 33.25 66.43 31.97 C66.47 30 66.47 30 66.5 28 C66.54 25.42 66.59 22.83 66.66 20.25 C66.68 18.53 66.68 18.53 66.71 16.77 C67 14 67 14 69 12 C71.58 11.86 74.05 11.81 76.62 11.88 C77.33 11.88 78.04 11.89 78.77 11.9 C80.51 11.93 82.26 11.96 84 12 C84 12.66 84 13.32 84 14 C84.66 14.33 85.32 14.66 86 15 C85.97 16.27 85.97 16.27 85.94 17.57 C85.87 20.73 85.82 23.9 85.78 27.06 C85.76 28.43 85.73 29.79 85.7 31.16 C85.65 33.13 85.63 35.1 85.61 37.07 C85.58 38.85 85.58 38.85 85.55 40.66 C86.1 44.73 87.39 46.86 90 50 C93.44 51.33 93.44 51.33 97 51 C99.34 49.53 99.34 49.53 101 47 C101.39 44.35 101.56 42.11 101.54 39.46 C101.55 38.74 101.56 38.02 101.57 37.27 C101.61 34.97 101.62 32.67 101.62 30.38 C101.64 28.07 101.66 25.76 101.7 23.46 C101.72 22.02 101.73 20.59 101.72 19.16 C101.78 14.22 101.78 14.22 104 12 C106.58 11.86 109.05 11.81 111.62 11.88 C112.33 11.88 113.04 11.89 113.77 11.9 C115.51 11.93 117.26 11.96 119 12 C119.01 12.98 119.02 13.96 119.03 14.97 C119.07 18.6 119.13 22.24 119.21 25.88 C119.24 27.45 119.26 29.03 119.27 30.6 C119.29 32.86 119.34 35.13 119.39 37.39 C119.39 38.44 119.39 38.44 119.39 39.52 C119.5 43 119.72 44.68 122.04 47.35 C122.69 47.89 123.33 48.44 124 49 C124 49.66 124 50.32 124 51 C129.4 51.61 129.4 51.61 134.1 49.49 C136.72 46.05 136.55 42.95 136.5 38.8 C136.52 37.62 136.52 37.62 136.53 36.41 C136.56 33.9 136.56 31.39 136.56 28.88 C136.57 26.35 136.58 23.83 136.6 21.31 C136.62 19.75 136.62 18.18 136.61 16.61 C136.63 14.47 136.63 14.47 137 11 C140.63 8.58 142.38 8.79 146.69 8.88 C147.87 8.89 149.05 8.91 150.26 8.93 C151.62 8.96 151.62 8.96 153 9 C154.67 12.34 154.16 16.1 154.17 19.77 C154.17 20.64 154.17 21.52 154.18 22.42 C154.18 24.27 154.19 26.12 154.19 27.97 C154.19 30.79 154.21 33.61 154.22 36.44 C154.23 38.24 154.23 40.03 154.23 41.83 C154.24 42.67 154.24 43.52 154.25 44.39 C154.23 49.7 153.86 53.73 150.38 57.98 C149.78 58.57 149.18 59.15 148.56 59.75 C147.97 60.34 147.37 60.94 146.75 61.55 C143.31 64.4 139.85 64.16 135.56 64.19 C134.43 64.2 133.3 64.22 132.13 64.23 C129.08 64.01 127.56 63.59 125 62 C123.39 61.01 123.39 61.01 121.75 60 C120.84 59.34 119.93 58.68 119 58 C119 57.34 119 56.68 119 56 C118.07 56.62 117.14 57.24 116.19 57.88 C107.7 63.53 101.31 65.68 91 64 C88.32 62.11 86.63 60.29 84.71 57.65 C83.12 55.73 83.12 55.73 80.66 56 C77.86 56.91 77.86 56.91 75.34 59.03 C71.4 61.35 68.28 61.59 63.83 61.57 C63.06 61.59 62.3 61.6 61.51 61.62 C59.09 61.66 56.67 61.67 54.25 61.69 C51.81 61.72 49.38 61.75 46.94 61.79 C45.43 61.81 43.92 61.83 42.41 61.84 C38.58 61.81 38.58 61.81 35 63 C34.67 63.99 34.34 64.98 34 66 C34.66 66 35.32 66 36 66 C34.62 72.23 32.54 77.38 27 81 C23.05 82.02 19.19 82.16 15.12 82.25 C14.07 82.32 13.02 82.39 11.94 82.46 C5.34 82.7 1.55 81.88 -3.46 77.48 C-4.22 76.75 -4.22 76.75 -5 76 C-5.74 75.4 -6.49 74.8 -7.25 74.19 C-9.53 71.34 -10.79 68.29 -12.17 64.93 C-12.85 63.03 -12.85 63.03 -14 62 C-15.47 61.9 -16.94 61.86 -18.41 61.86 C-19.84 61.84 -19.84 61.84 -21.3 61.83 C-22.36 61.83 -23.41 61.83 -24.5 61.83 C-25.6 61.82 -26.71 61.81 -27.84 61.81 C-30.25 61.79 -32.66 61.78 -35.07 61.77 C-38.87 61.75 -42.68 61.73 -46.49 61.71 C-57.32 61.63 -68.14 61.57 -78.97 61.52 C-85.59 61.49 -92.2 61.45 -98.82 61.4 C-101.34 61.39 -103.86 61.37 -106.39 61.37 C-109.92 61.35 -113.45 61.33 -116.98 61.3 C-118.03 61.3 -119.08 61.3 -120.15 61.3 C-121.12 61.29 -122.08 61.28 -123.08 61.27 C-123.91 61.27 -124.75 61.26 -125.61 61.26 C-128.41 60.96 -130.49 60.27 -133 59 C-133.66 58.01 -134.32 57.02 -135 56 C-138.61 56.34 -140.71 57.44 -143.57 59.52 C-148.33 62.56 -152.35 62.66 -157.88 62.44 C-159.16 62.43 -159.16 62.43 -160.46 62.42 C-166.7 62.3 -166.7 62.3 -169 60 C-169.58 59.71 -170.15 59.42 -170.75 59.12 C-178.6 55.2 -178.6 55.2 -180 51 C-180.47 50.53 -180.94 50.06 -181.43 49.57 C-183.21 47.79 -184.11 46.09 -185.19 43.81 C-185.53 43.1 -185.88 42.38 -186.23 41.64 C-186.48 41.1 -186.74 40.56 -187 40 C-189.06 39.89 -191.12 39.81 -193.19 39.75 C-194.34 39.7 -195.48 39.66 -196.67 39.61 C-200.67 40.08 -202.17 41.2 -205 44 C-207.44 47.66 -207.35 50.49 -207.41 54.73 C-207.43 55.48 -207.45 56.23 -207.47 57 C-207.53 59.4 -207.58 61.79 -207.62 64.19 C-207.66 65.81 -207.7 67.44 -207.74 69.06 C-207.84 73.04 -207.92 77.02 -208 81 C-212.95 81 -217.9 81 -223 81 C-225.54 75.91 -224.31 67.91 -224.35 62.25 C-224.37 60.39 -224.39 58.52 -224.43 56.66 C-224.84 36.76 -224.84 36.76 -219 30 C-218.34 30 -217.68 30 -217 30 C-216.67 29.01 -216.34 28.02 -216 27 C-205.95 20.87 -195.31 21.46 -184 22 C-183.76 21.1 -183.52 20.19 -183.27 19.26 C-181.89 15.71 -180.61 14.25 -177.75 11.81 C-177 11.16 -176.25 10.51 -175.48 9.83 C-167.91 4.25 -161.17 4.16 -152 5 C-144.76 6.61 -139.52 10.14 -135 16 C-133.3 19.24 -132.62 22.4 -132 26 C-131.34 26 -130.68 26 -130 26 C-129.5 33.43 -129.5 33.43 -129 41 C-127.51 41.5 -127.51 41.5 -126 42 C-125.67 42.66 -125.34 43.32 -125 44 C-88.37 44.33 -51.74 44.66 -14 45 C-14 36.42 -14 27.84 -14 19 C-9.02 5.31 -9.02 5.31 -3 2 C-2.01 2 -1.02 2 0 2 C0 1.34 0 0.68 0 0 Z M5.25 18.65 C3.69 21.57 3.73 23.34 3.93 26.64 C3.98 27.71 4.04 28.78 4.09 29.88 C4.16 30.99 4.24 32.11 4.31 33.25 C4.37 34.38 4.43 35.5 4.5 36.66 C4.65 39.44 4.82 42.22 5 45 C6.32 45 7.64 45 9 45 C10.99 41.68 11.24 39.2 11.2 35.36 C11.19 34.29 11.18 33.22 11.18 32.12 C11.16 31.01 11.14 29.89 11.12 28.75 C11.12 27.62 11.11 26.5 11.1 25.34 C11.07 22.56 11.04 19.78 11 17 C7.08 16.54 7.08 16.54 5.25 18.65 Z M-165 22 C-165.99 22.5 -165.99 22.5 -167 23 C-167.7 25.32 -168.37 27.66 -169 30 C-169.33 30.33 -169.66 30.66 -170 31 C-170.29 35.24 -169.86 38.19 -168 42 C-167.63 42.91 -167.26 43.81 -166.88 44.75 C-165.06 47.39 -165.06 47.39 -161.19 47.94 C-157.42 48.2 -154.49 47.48 -151 46 C-151 45.01 -151 44.02 -151 43 C-150.34 43 -149.68 43 -149 43 C-146.81 37.38 -146.44 32.79 -147.62 26.88 C-149.51 22.93 -151.35 21.43 -155 19 C-159.23 18.17 -161.52 19.65 -165 22 Z M3 21 C3 28.59 3 36.18 3 44 C3.33 44 3.66 44 4 44 C4 36.41 4 28.82 4 21 C3.67 21 3.34 21 3 21 Z M83 35 C83 36.98 83 38.96 83 41 C83.33 41 83.66 41 84 41 C84 39.02 84 37.04 84 35 C83.67 35 83.34 35 83 35 Z M10.38 61.25 C9.18 61.38 9.18 61.38 7.96 61.52 C6.99 61.76 6.99 61.76 6 62 C4.74 63.95 4.74 63.95 5.56 66 C7.62 68.87 9.61 69.25 13 70 C15.37 69.67 16.87 69.06 19 68 C18.73 65.56 18.73 65.56 18 63 C14.7 60.8 14.11 60.79 10.38 61.25 Z " fill="#002237" transform="translate(663,233)"/>
<path d="M0 0 C1.26 -0.01 2.51 -0.03 3.8 -0.04 C7.12 0.19 7.12 0.19 10.12 2.19 C10.52 4.52 10.52 4.52 10.56 7.46 C10.58 8.56 10.6 9.67 10.62 10.8 C10.62 11.99 10.63 13.19 10.64 14.41 C10.65 15.63 10.67 16.85 10.69 18.1 C10.75 22.01 10.78 25.91 10.81 29.81 C10.85 32.45 10.88 35.09 10.92 37.73 C11 44.22 11.07 50.7 11.12 57.19 C14.57 59.28 17.27 59.45 21.26 59.47 C22.52 59.48 23.78 59.49 25.08 59.5 C26.47 59.5 27.86 59.5 29.26 59.51 C30.73 59.52 32.19 59.53 33.66 59.54 C37.65 59.56 41.63 59.58 45.62 59.59 C49.78 59.61 53.95 59.63 58.11 59.66 C66 59.71 73.89 59.74 81.78 59.78 C90.75 59.82 99.73 59.86 108.71 59.91 C127.18 60.02 145.65 60.11 164.12 60.19 C164.46 59.2 164.78 58.21 165.12 57.19 C165.78 57.19 166.44 57.19 167.12 57.19 C167.12 56.53 167.12 55.87 167.12 55.19 C167.78 55.19 168.44 55.19 169.12 55.19 C169.12 46.28 169.12 37.37 169.12 28.19 C171.82 26.84 174 26.98 177 26.94 C178.05 26.91 179.1 26.89 180.18 26.86 C183.45 27.22 184.7 28.05 187.12 30.19 C187.45 30.19 187.79 30.19 188.12 30.19 C188.11 30.96 188.09 31.73 188.08 32.53 C188.02 36.02 187.98 39.51 187.94 43 C187.91 44.21 187.89 45.43 187.86 46.68 C187.85 47.85 187.84 49.01 187.83 50.21 C187.82 51.28 187.8 52.35 187.78 53.46 C187.91 56.13 187.91 56.13 189.22 57.83 C192.09 59.87 194.49 59.59 197.98 59.62 C198.68 59.63 199.37 59.64 200.08 59.65 C202.37 59.68 204.66 59.69 206.95 59.7 C208.54 59.72 210.12 59.73 211.71 59.75 C215.89 59.8 220.07 59.83 224.24 59.86 C228.51 59.89 232.77 59.93 237.03 59.98 C245.4 60.06 253.76 60.13 262.12 60.19 C263.24 56.86 263 55.44 262.31 52.06 C262.14 51.17 261.97 50.28 261.79 49.37 C261.57 48.65 261.35 47.93 261.12 47.19 C260.46 46.86 259.81 46.53 259.12 46.19 C259 45.55 258.88 44.91 258.75 44.25 C258.33 42.05 258.33 42.05 256.38 41.12 C255.26 40.66 255.26 40.66 254.12 40.19 C253.41 39.68 252.69 39.18 251.95 38.66 C246.49 35.81 240.1 36.48 234.12 37.19 C229.79 39.09 228.23 41.98 226.12 46.19 C220.85 46.19 215.56 46.19 210.12 46.19 C211.26 38.24 211.26 38.24 213.44 34.44 C214.05 33.33 214.05 33.33 214.68 32.2 C216.27 29.98 217.82 28.64 220.12 27.19 C220.79 27.19 221.44 27.19 222.12 27.19 C222.12 26.53 222.12 25.87 222.12 25.19 C227.5 21.79 231.99 21.86 238.12 22.19 C238.12 21.53 238.12 20.87 238.12 20.19 C248.49 20.87 258.61 23.67 266.12 31.19 C266.74 31.44 267.36 31.68 268 31.94 C271.03 33.72 272.29 36.25 274.12 39.19 C274.79 39.85 275.44 40.51 276.12 41.19 C276.83 42.84 277.49 44.51 278.12 46.19 C278.45 46.85 278.79 47.51 279.12 48.19 C279.26 50.86 279.17 53.51 279.12 56.19 C279.79 56.19 280.44 56.19 281.12 56.19 C281.45 57.51 281.79 58.83 282.12 60.19 C286.65 60.09 291.17 59.99 295.69 59.87 C297.23 59.83 298.76 59.8 300.3 59.77 C302.51 59.72 304.72 59.66 306.93 59.6 C307.96 59.58 307.96 59.58 309.02 59.57 C313.02 59.54 313.02 59.54 316.12 57.19 C316.37 54.76 316.5 52.43 316.54 49.99 C316.56 49.28 316.58 48.58 316.6 47.85 C316.66 45.59 316.7 43.32 316.75 41.06 C316.79 39.53 316.83 38 316.87 36.46 C316.96 32.71 317.05 28.95 317.12 25.19 C320.13 23.69 322.92 24.09 326.25 24.12 C327.53 24.13 328.81 24.14 330.13 24.15 C331.61 24.17 331.61 24.17 333.12 24.19 C334.7 27.34 334.29 30.73 334.29 34.19 C334.3 34.98 334.3 35.77 334.3 36.59 C334.31 38.26 334.31 39.93 334.31 41.61 C334.31 44.18 334.33 46.74 334.35 49.31 C334.35 50.94 334.35 52.56 334.36 54.19 C334.36 54.96 334.37 55.73 334.38 56.52 C334.35 61.96 334.35 61.96 332.12 64.19 C331.84 65.32 331.55 66.46 331.25 67.62 C330.04 71.45 329.58 72.37 326.12 74.19 C324.14 74.9 322.14 75.57 320.12 76.19 C319.46 76.52 318.81 76.85 318.12 77.19 C316.48 77.29 314.84 77.33 313.19 77.34 C312.15 77.35 311.11 77.36 310.03 77.37 C308.88 77.37 307.73 77.38 306.55 77.38 C305.34 77.39 304.14 77.4 302.89 77.41 C298.88 77.43 294.88 77.45 290.87 77.46 C289.49 77.47 288.11 77.47 286.72 77.48 C280.98 77.5 275.23 77.52 269.48 77.53 C261.25 77.54 253.02 77.58 244.79 77.64 C239 77.67 233.22 77.69 227.43 77.7 C223.97 77.7 220.51 77.71 217.06 77.75 C213.2 77.78 209.34 77.78 205.48 77.77 C204.34 77.79 203.2 77.8 202.03 77.82 C195.8 77.77 191.81 77.16 186.84 73.26 C184.18 71.6 181.98 71.99 179 72.59 C176.22 73.48 173.72 74.86 171.12 76.19 C166.6 77 162.23 77.31 157.64 77.32 C155.75 77.33 155.75 77.33 153.82 77.33 C152.44 77.33 151.06 77.33 149.68 77.33 C148.22 77.34 146.75 77.34 145.29 77.34 C141.32 77.35 137.36 77.35 133.39 77.35 C130.92 77.36 128.44 77.36 125.96 77.36 C117.32 77.37 108.69 77.37 100.05 77.37 C91.99 77.37 83.93 77.38 75.87 77.4 C68.95 77.41 62.03 77.42 55.11 77.42 C50.98 77.42 46.85 77.42 42.72 77.43 C38.84 77.44 34.96 77.44 31.08 77.43 C29.65 77.43 28.22 77.43 26.8 77.44 C24.86 77.45 22.92 77.44 20.98 77.43 C19.89 77.44 18.8 77.44 17.68 77.44 C15.12 77.19 15.12 77.19 13.12 75.19 C11.14 74.47 9.14 73.8 7.12 73.19 C6.14 75.17 6.14 75.17 5.12 77.19 C4.47 77.19 3.81 77.19 3.12 77.19 C3.45 78.18 3.78 79.17 4.12 80.19 C2.84 81.53 1.55 82.86 0.25 84.19 C-0.47 84.93 -1.19 85.67 -1.93 86.44 C-3.88 88.19 -3.88 88.19 -5.88 88.19 C-7.52 90.65 -7.52 90.65 -8.88 93.19 C-9.87 92.86 -10.85 92.53 -11.88 92.19 C-11.88 92.85 -11.88 93.51 -11.88 94.19 C-17.35 95.98 -22.45 96.65 -28.19 96.94 C-29 96.99 -29.81 97.05 -30.64 97.11 C-32.72 97.22 -34.8 97.21 -36.88 97.19 C-37.53 96.53 -38.2 95.87 -38.88 95.19 C-41.2 94.49 -43.53 93.82 -45.88 93.19 C-50.39 91.79 -52.63 89.59 -55.88 86.19 C-56.93 85.34 -57.99 84.51 -59.06 83.69 C-61.98 81.09 -62.75 79.83 -63.88 76.19 C-64.37 75.09 -64.86 74 -65.38 72.88 C-68.62 64.89 -69.47 57.79 -68.88 49.19 C-68.38 48.69 -68.38 48.69 -67.88 48.19 C-67.77 47.07 -67.67 45.96 -67.56 44.81 C-66.88 41.19 -66.88 41.19 -65.25 39.47 C-62.08 37.76 -59.71 37.89 -56.12 38 C-54.37 38.04 -54.37 38.04 -52.58 38.08 C-51.69 38.12 -50.79 38.15 -49.88 38.19 C-48.64 40.66 -48.89 41.96 -49.19 44.69 C-49.27 45.48 -49.34 46.28 -49.43 47.09 C-49.88 49.19 -49.88 49.19 -51.88 51.19 C-52.19 53.79 -52.19 53.79 -52.12 56.69 C-52.13 57.67 -52.14 58.65 -52.14 59.66 C-52.13 62.36 -52.13 62.36 -49.88 64.19 C-49.88 65.51 -49.88 66.83 -49.88 68.19 C-49.22 68.19 -48.55 68.19 -47.88 68.19 C-46.85 69.84 -45.85 71.51 -44.88 73.19 C-42.75 75.78 -41.18 76.62 -37.88 77.19 C-37.88 77.85 -37.88 78.51 -37.88 79.19 C-37.24 79 -36.6 78.82 -35.94 78.62 C-34.92 78.41 -34.92 78.41 -33.88 78.19 C-33.55 78.52 -33.22 78.85 -32.88 79.19 C-28.79 79.46 -26.45 79.03 -22.88 77.19 C-20.12 77.06 -20.12 77.06 -17.88 77.19 C-17.88 76.53 -17.88 75.87 -17.88 75.19 C-16.88 74.86 -15.9 74.53 -14.88 74.19 C-14.38 72.7 -14.38 72.7 -13.88 71.19 C-13.22 71.19 -12.55 71.19 -11.88 71.19 C-7.32 62.75 -7.61 53.35 -7.71 44 C-7.72 42.77 -7.73 41.54 -7.73 40.28 C-7.75 36.39 -7.78 32.51 -7.81 28.62 C-7.84 24.71 -7.86 20.79 -7.88 16.87 C-7.9 14.44 -7.91 12.01 -7.94 9.58 C-7.94 8.49 -7.95 7.4 -7.96 6.28 C-7.97 5.32 -7.97 4.36 -7.98 3.37 C-7.75 -1.35 -3.9 0.02 0 0 Z M185.12 45.19 C185.12 47.5 185.12 49.81 185.12 52.19 C185.46 52.19 185.78 52.19 186.12 52.19 C186.12 49.88 186.12 47.57 186.12 45.19 C185.79 45.19 185.47 45.19 185.12 45.19 Z M186.12 52.19 C187.12 55.19 187.12 55.19 187.12 55.19 Z M-60.88 79.19 C-59.88 81.19 -59.88 81.19 -59.88 81.19 Z " fill="#002237" transform="translate(68.875,217.8125)"/>
<path d="M0 0 C0.33 0 0.66 0 1 0 C1.05 0.71 1.1 1.42 1.15 2.15 C1.22 3.07 1.3 3.99 1.38 4.94 C1.48 6.31 1.48 6.31 1.59 7.71 C1.79 8.85 1.79 8.85 2 10 C2.66 10.33 3.32 10.66 4 11 C4.63 13.07 4.63 13.07 5.12 15.56 C5.38 16.8 5.38 16.8 5.63 18.07 C5.81 19.02 5.81 19.02 6 20 C6.33 20 6.66 20 7 20 C6.9 20.68 6.79 21.36 6.69 22.06 C7.08 25.8 8.61 27.57 10.91 30.45 C12 32 12 32 12 34 C12.66 34 13.32 34 14 34 C15.12 36.61 15.98 38.87 16.38 41.69 C16.58 42.45 16.79 43.21 17 44 C18.32 44.68 19.66 45.35 21 46 C21.72 47.64 22.39 49.31 23 51 C23.66 51.33 24.32 51.66 25 52 C25.29 52.93 25.58 53.86 25.88 54.81 C26.75 58.02 26.75 58.02 28.87 59.86 C31.2 62.2 32.65 64.49 34.25 67.38 C34.77 68.29 35.29 69.21 35.83 70.15 C37.13 73.31 37.22 75.61 37 79 C37.66 79 38.32 79 39 79 C39.09 83.54 39.14 88.08 39.19 92.62 C39.21 93.91 39.24 95.2 39.26 96.52 C39.27 97.76 39.28 99.01 39.29 100.29 C39.31 101.43 39.32 102.57 39.34 103.75 C38.95 107.44 37.81 109.79 36 113 C35.61 113.95 35.22 114.9 34.81 115.88 C31.32 121.89 26.68 126.78 20 129 C18.34 129.37 16.68 129.71 15 130 C14.67 130.99 14.34 131.98 14 133 C10.92 133.29 10.92 133.29 7.85 133.59 C7.24 133.72 6.63 133.86 6 134 C5.67 134.66 5.34 135.32 5 136 C3.38 136.05 1.75 136.09 0.12 136.12 C-0.78 136.15 -1.68 136.17 -2.62 136.2 C-5 136 -5 136 -7 134 C-9.43 133.32 -9.43 133.32 -12.12 132.88 C-13.49 132.62 -13.49 132.62 -14.88 132.37 C-15.58 132.25 -16.28 132.12 -17 132 C-17.49 130.02 -17.49 130.02 -18 128 C-18.85 127.96 -19.69 127.92 -20.56 127.88 C-26 126.49 -29.29 122.94 -32.94 118.81 C-34 117 -34 117 -34 114 C-34.66 113.67 -35.32 113.34 -36 113 C-42.59 104.4 -42.41 93.3 -42 83 C-41.34 83 -40.68 83 -40 83 C-40 80.69 -40 78.38 -40 76 C-39.34 76 -38.68 76 -38 76 C-37.88 75.28 -37.75 74.56 -37.62 73.81 C-37.01 71.04 -36.12 68.6 -35 66 C-34.34 66 -33.68 66 -33 66 C-32.88 65.28 -32.75 64.56 -32.62 63.81 C-31.66 59.45 -30.6 55.85 -27 53 C-26.34 53 -25.68 53 -25 53 C-24.67 51.35 -24.34 49.7 -24 48 C-23.34 48 -22.68 48 -22 48 C-21.75 46.93 -21.51 45.86 -21.25 44.75 C-19.98 40.93 -18.9 39.62 -16 37 C-15.67 36.01 -15.34 35.02 -15 34 C-14.34 34 -13.68 34 -13 34 C-12.67 32.02 -12.34 30.04 -12 28 C-11.34 28 -10.68 28 -10 28 C-10 26.68 -10 25.36 -10 24 C-9.34 24 -8.68 24 -8 24 C-7.9 23.18 -7.79 22.35 -7.69 21.5 C-7.02 18.13 -6.02 15.27 -4.76 12.09 C-3.98 9.95 -3.44 7.84 -2.94 5.62 C-2 2 -2 2 0 0 Z M2 12 C3 16 3 16 3 16 Z M7 27 C8 29 8 29 8 29 Z M35 110 C36 112 36 112 36 112 Z " fill="#4C9D5D" transform="translate(1114,245)"/>
<path d="M0 0 C1.29 -0 2.59 -0 3.92 -0 C4.59 -0 5.27 0 5.96 0 C8.02 0.01 10.08 0 12.14 -0 C13.44 -0 14.73 -0 16.06 0 C17.25 0 18.45 0 19.67 0 C22.53 0.13 22.53 0.13 24.53 1.13 C27.24 1.37 29.94 1.55 32.66 1.7 C33.79 1.76 33.79 1.76 34.94 1.83 C36.8 1.93 38.67 2.03 40.53 2.13 C40.53 2.79 40.53 3.45 40.53 4.13 C41.83 4.09 41.83 4.09 43.16 4.05 C50.73 4.23 57.89 6.58 64.53 10.13 C65.64 10.44 66.76 10.75 67.91 11.07 C71.46 12.11 74.42 13.49 77.68 15.19 C79.64 16.22 79.64 16.22 82.22 17.2 C84.85 18.26 87.12 19.63 89.53 21.13 C90.89 21.91 90.89 21.91 92.28 22.7 C94.53 24.13 94.53 24.13 95.53 26.13 C97.17 26.85 98.84 27.53 100.53 28.13 C100.53 28.46 100.53 28.79 100.53 29.13 C99.75 29.19 98.97 29.25 98.16 29.32 C97.15 29.4 96.14 29.48 95.09 29.57 C94.08 29.65 93.08 29.73 92.04 29.82 C89.59 29.86 89.59 29.86 88.53 31.13 C82.83 32.04 77.3 32.26 71.53 32.2 C70.76 32.19 69.98 32.19 69.18 32.18 C67.3 32.17 65.42 32.15 63.53 32.13 C63.53 32.79 63.53 33.45 63.53 34.13 C62.54 34.38 61.56 34.63 60.54 34.88 C56.22 36.12 52.38 38.06 48.41 40.13 C47.03 40.84 45.65 41.55 44.27 42.26 C43.67 42.57 43.07 42.88 42.46 43.2 C40.53 44.13 40.53 44.13 38.04 45.03 C35.3 46.23 33.73 47.55 31.61 49.65 C30.92 50.35 30.22 51.04 29.5 51.75 C28.43 52.84 28.43 52.84 27.34 53.95 C26.62 54.66 25.9 55.37 25.15 56.1 C24.11 57.15 24.11 57.15 23.05 58.21 C22.42 58.85 21.79 59.48 21.15 60.13 C19.35 62.36 18.53 64.47 17.53 67.13 C15.59 69.45 15.59 69.45 13.53 71.13 C12.54 71.13 11.55 71.13 10.53 71.13 C11.19 71.46 11.85 71.79 12.53 72.13 C10.66 77.88 10.66 77.88 9.53 80.13 C7.59 79.51 7.59 79.51 5.53 78.13 C4.78 75.01 4.78 75.01 4.53 72.13 C3.87 72.13 3.21 72.13 2.53 72.13 C1.24 70.45 1.24 70.45 -0.09 68.26 C-0.54 67.54 -0.99 66.82 -1.45 66.08 C-2.47 64.13 -2.47 64.13 -2.47 62.13 C-3.13 61.8 -3.79 61.47 -4.47 61.13 C-5.44 60.08 -6.37 58.99 -7.28 57.88 C-9.21 55.57 -11.17 53.4 -13.34 51.32 C-15.47 49.13 -15.47 49.13 -15.47 47.13 C-16.23 47.03 -16.99 46.93 -17.78 46.82 C-20.76 46.06 -21.41 45.28 -23.47 43.13 C-26.07 41.94 -26.07 41.94 -28.47 41.13 C-28.47 40.47 -28.47 39.81 -28.47 39.13 C-29.19 39.01 -29.91 38.89 -30.66 38.76 C-33.44 38.14 -35.83 37.2 -38.47 36.13 C-40.8 35.45 -43.13 34.78 -45.47 34.13 C-45.47 33.8 -45.47 33.47 -45.47 33.13 C-46.76 33.07 -48.05 33.01 -49.38 32.95 C-51.1 32.86 -52.81 32.78 -54.53 32.7 C-55.8 32.64 -55.8 32.64 -57.1 32.58 C-70.71 31.89 -70.71 31.89 -72.47 30.13 C-74.32 29.9 -76.17 29.72 -78.03 29.57 C-79.04 29.49 -80.06 29.4 -81.1 29.32 C-82.27 29.23 -82.27 29.23 -83.47 29.13 C-81.12 25.8 -79.02 24.14 -75.47 22.13 C-74.81 21.47 -74.15 20.81 -73.47 20.13 C-70.18 18.62 -67.03 17.74 -63.47 17.13 C-63.47 16.47 -63.47 15.81 -63.47 15.13 C-62.22 14.62 -60.97 14.13 -59.72 13.63 C-59.02 13.35 -58.33 13.08 -57.61 12.79 C-55.47 12.13 -55.47 12.13 -51.47 12.13 C-51.47 11.47 -51.47 10.81 -51.47 10.13 C-50.48 9.86 -49.49 9.6 -48.47 9.32 C-45.79 8.57 -43.38 7.69 -40.78 6.63 C-36.28 4.88 -31.68 4.24 -26.91 3.56 C-24.53 3.38 -24.53 3.38 -23.47 2.13 C-20.99 1.92 -18.52 1.76 -16.03 1.63 C-10.46 1.35 -5.56 0.01 0 0 Z M85.53 28.13 C83.55 29.12 83.55 29.12 81.53 30.13 C83.51 30.13 85.49 30.13 87.53 30.13 C86.87 29.47 86.21 28.81 85.53 28.13 Z M15.53 64.13 C16.53 66.13 16.53 66.13 16.53 66.13 Z M13.53 65.13 C14.53 68.13 14.53 68.13 14.53 68.13 Z M7.53 77.13 C8.53 79.13 8.53 79.13 8.53 79.13 Z " fill="#77CC7C" transform="translate(1105.46875,-0.1328125)"/>
<path d="M0 0 C0.76 0.12 1.51 0.24 2.29 0.36 C10.16 1.68 16.77 4.38 23.75 8.25 C28.83 11.05 28.83 11.05 34 13.69 C34 14.35 34 15.01 34 15.69 C35.32 16.35 36.64 17.01 38 17.69 C38 18.35 38 19.01 38 19.69 C38.62 19.96 39.24 20.22 39.88 20.5 C42 21.69 42 21.69 44 24.69 C44 25.35 44 26.01 44 26.69 C44.8 27.47 45.61 28.25 46.44 29.06 C49.78 32.49 49.78 32.49 50 35.69 C49.51 36.68 49.51 36.68 49 37.69 C49.62 37.85 50.24 38.02 50.88 38.19 C54.28 40.59 54.23 43.69 55 47.69 C55.33 47.69 55.66 47.69 56 47.69 C56.67 50.02 57.34 52.35 58 54.69 C58.18 55.28 58.35 55.86 58.53 56.47 C59.2 59.61 59.35 62.73 59.56 65.94 C59.65 67.2 59.73 68.46 59.82 69.77 C59.88 70.73 59.94 71.69 60 72.69 C60.33 72.69 60.66 72.69 61 72.69 C61 84.57 61 96.45 61 108.69 C60.67 108.69 60.34 108.69 60 108.69 C59.67 113.64 59.34 118.59 59 123.69 C58.67 123.69 58.34 123.69 58 123.69 C58 117.75 58 111.81 58 105.69 C57.34 105.69 56.68 105.69 56 105.69 C54.84 102.53 54 99.66 53.56 96.31 C52.52 89.62 49.61 83.68 46.77 77.57 C46 75.69 46 75.69 46 73.69 C45.34 73.36 44.68 73.03 44 72.69 C41.19 69.58 39.11 66.9 37.12 63.19 C34.15 57.74 29.48 54.36 24 51.69 C23.01 51.01 22.02 50.33 21 49.62 C18.48 48 16.9 47.13 14 46.69 C14.49 45.7 14.49 45.7 15 44.69 C14.39 44.66 13.77 44.64 13.14 44.61 C11.92 44.52 11.92 44.52 10.69 44.44 C9.89 44.39 9.09 44.34 8.26 44.3 C6 43.69 6 43.69 4.82 41.68 C2.56 39.21 1.77 39.36 -1.49 39.18 C-3.29 39.15 -5.08 39.13 -6.88 39.12 C-13.06 39.09 -16.65 38.9 -22 35.69 C-25.05 35.41 -28.02 35.63 -31.06 35.88 C-31.86 35.92 -32.67 35.96 -33.49 36.01 C-37.9 36.24 -37.9 36.24 -42 37.71 C-44.24 38.81 -45.64 38.92 -48.11 38.88 C-48.86 38.88 -49.62 38.87 -50.39 38.86 C-51.17 38.85 -51.95 38.83 -52.75 38.81 C-53.54 38.8 -54.34 38.79 -55.15 38.79 C-57.1 38.76 -59.05 38.73 -61 38.69 C-61 39.35 -61 40.01 -61 40.69 C-61.64 40.75 -62.28 40.81 -62.93 40.87 C-63.76 40.95 -64.59 41.04 -65.44 41.12 C-66.26 41.21 -67.08 41.29 -67.93 41.37 C-69.99 41.48 -69.99 41.48 -71 42.69 C-73 42.73 -75 42.73 -77 42.69 C-76.01 42.19 -76.01 42.19 -75 41.69 C-75.34 40.33 -75.34 40.33 -75.69 38.94 C-76 35.69 -76 35.69 -74.69 33.31 C-73 31.69 -73 31.69 -71 31.69 C-70.91 30.95 -70.82 30.21 -70.73 29.45 C-69.87 26.19 -68.72 24.89 -66.36 22.52 C-65.62 21.77 -64.88 21.02 -64.11 20.25 C-63.33 19.49 -62.55 18.73 -61.75 17.94 C-60.99 17.16 -60.22 16.38 -59.43 15.57 C-58.69 14.83 -57.94 14.09 -57.17 13.33 C-56.49 12.65 -55.81 11.98 -55.11 11.28 C-52.72 9.48 -50.95 9.05 -48 8.69 C-48 8.03 -48 7.37 -48 6.69 C-39.57 3.26 -39.57 3.26 -35 3.69 C-35 3.03 -35 2.37 -35 1.69 C-23.15 -1.2 -12.06 -2.07 0 0 Z M-73 38.69 C-72 40.69 -72 40.69 -72 40.69 Z M-71 38.69 C-71 39.02 -71 39.35 -71 39.69 C-68.03 39.69 -65.06 39.69 -62 39.69 C-62 39.36 -62 39.03 -62 38.69 C-64.97 38.69 -67.94 38.69 -71 38.69 Z " fill="#4B9C5D" transform="translate(1047,48.3125)"/>
<path d="M0 0 C0 0.66 0 1.32 0 2 C0.62 2.14 1.24 2.29 1.88 2.44 C4 3 4 3 6 4 C6 4.66 6 5.32 6 6 C6.66 6 7.32 6 8 6 C12.36 10.13 15.47 14.56 18 20 C18.98 21.02 19.98 22.02 21 23 C21 23.66 21 24.32 21 25 C21.66 25 22.32 25 23 25 C23 26.98 23 28.96 23 31 C20.07 31.98 18.04 32.08 15 32 C15 31.67 15 31.34 15 31 C13.35 30.67 11.7 30.34 10 30 C10 29.67 10 29.34 10 29 C9.44 28.98 8.88 28.96 8.3 28.94 C5.76 28.84 3.23 28.73 0.69 28.62 C-0.19 28.59 -1.07 28.56 -1.98 28.53 C-2.83 28.49 -3.68 28.45 -4.55 28.41 C-5.33 28.38 -6.11 28.35 -6.92 28.32 C-9 28 -9 28 -12 26 C-13.95 25.69 -13.95 25.69 -16.05 25.73 C-16.83 25.73 -17.61 25.73 -18.42 25.73 C-19.23 25.73 -20.04 25.74 -20.88 25.75 C-22.08 25.74 -22.08 25.74 -23.31 25.73 C-27.98 25.73 -27.98 25.73 -32.43 26.98 C-36.58 28.63 -40.88 28.47 -45.31 28.62 C-46.71 28.68 -46.71 28.68 -48.13 28.74 C-50.42 28.84 -52.71 28.92 -55 29 C-55.33 29.99 -55.66 30.98 -56 32 C-58.41 33.2 -59.95 33.1 -62.62 33.06 C-63.85 33.05 -63.85 33.05 -65.1 33.04 C-65.73 33.02 -66.35 33.01 -67 33 C-67 33.99 -67 34.98 -67 36 C-73.62 39.12 -73.62 39.12 -77 38 C-77 38.99 -77 39.98 -77 41 C-78.47 42.54 -78.47 42.54 -80.5 44.19 C-84.37 47.41 -87.87 50.85 -91.34 54.5 C-93 56 -93 56 -95 56 C-94.92 56.74 -94.84 57.48 -94.75 58.25 C-95.07 61.81 -96.41 62.65 -99 65 C-99.33 65.99 -99.66 66.98 -100 68 C-100.66 68 -101.32 68 -102 68 C-102.15 68.99 -102.15 68.99 -102.31 70 C-102.88 72.46 -103.56 74.49 -104.5 76.81 C-106.09 80.88 -106.55 84.66 -107 89 C-107.49 89.99 -107.49 89.99 -108 91 C-107.94 92.92 -107.94 92.92 -107.88 94.88 C-107.82 97.89 -107.89 98.82 -109.5 101.5 C-109.99 102 -110.49 102.49 -111 103 C-113.17 97.7 -113.29 93.02 -113.27 87.39 C-113.27 86.47 -113.27 85.55 -113.27 84.61 C-113.27 82.66 -113.27 80.72 -113.26 78.78 C-113.25 75.84 -113.26 72.9 -113.27 69.96 C-113.29 47.58 -113.29 47.58 -110 41 C-109.73 40.01 -109.46 39.02 -109.19 38 C-107.85 33.18 -105.91 28.61 -104 24 C-103.34 24 -102.68 24 -102 24 C-101.67 22.35 -101.34 20.7 -101 19 C-100.34 19 -99.68 19 -99 19 C-98.98 18.15 -98.96 17.31 -98.94 16.44 C-96.8 8.59 -88.71 3.91 -82 0 C-68.5 -7.52 -68.5 -7.52 -63 -7 C-63 -7.66 -63 -8.32 -63 -9 C-59.86 -9.51 -56.71 -10.01 -53.56 -10.5 C-52.68 -10.64 -51.81 -10.79 -50.9 -10.93 C-32.11 -13.85 -16.28 -9.24 0 0 Z M-108 76 C-108 77.65 -108 79.3 -108 81 C-107.67 81 -107.34 81 -107 81 C-107 79.35 -107 77.7 -107 76 C-107.33 76 -107.66 76 -108 76 Z M-111 85 C-110 87 -110 87 -110 87 Z M-111 88 C-110 91 -110 91 -110 91 Z " fill="#4B9B5C" transform="translate(1233,59)"/>
<path d="M0 0 C5.83 -0.31 10.05 0.15 14.87 3.59 C17.61 6.42 18.35 9.47 19.46 13.22 C20.12 13.88 20.78 14.54 21.46 15.22 C21.72 17.24 21.97 19.25 22.17 21.27 C22.37 23.32 22.37 23.32 23.52 25.35 C24.83 27.96 24.46 30.33 24.46 33.22 C25.12 33.88 25.78 34.54 26.46 35.22 C28.08 39.9 28.77 44.28 29.11 49.21 C29.37 51.53 29.37 51.53 31.46 54.22 C31.8 56.24 31.8 56.24 31.96 58.47 C32.34 62.63 33.06 66.28 34.46 70.22 C35.45 70.72 35.45 70.72 36.46 71.22 C36.45 70.49 36.45 69.75 36.44 68.99 C36.4 62.03 36.37 55.07 36.35 48.12 C36.34 44.54 36.33 40.96 36.31 37.39 C36.28 33.93 36.27 30.47 36.27 27.02 C36.26 25.07 36.25 23.12 36.23 21.16 C36.23 7.36 36.23 7.36 39.81 2.31 C41.91 0.92 43.26 0.79 45.77 0.79 C46.51 0.77 47.25 0.75 48.01 0.73 C51.59 1.45 53.65 2.9 56.46 5.22 C57.19 8.35 57.19 8.35 57.17 12.07 C57.18 13.09 57.18 13.09 57.18 14.13 C57.19 16.37 57.15 18.61 57.11 20.86 C57.11 22.41 57.1 23.97 57.1 25.53 C57.09 28.8 57.06 32.06 57.02 35.32 C56.96 39.51 56.94 43.7 56.93 47.89 C56.92 51.1 56.9 54.32 56.88 57.54 C56.87 59.08 56.86 60.63 56.85 62.17 C56.84 64.32 56.81 66.48 56.78 68.63 C56.77 69.86 56.75 71.09 56.74 72.35 C56.46 75.22 56.46 75.22 54.46 77.22 C54.23 78.34 54 79.45 53.77 80.6 C52.33 84.56 51.17 85.5 47.52 87.43 C43.94 88.81 40.5 88.76 36.71 88.66 C35.58 88.67 35.58 88.67 34.42 88.68 C29.03 88.62 29.03 88.62 26.44 86.82 C25.46 85.22 25.46 85.22 25.46 83.22 C24.85 82.99 24.24 82.75 23.62 82.51 C19.27 79.92 18 74.83 16.46 70.22 C15.14 64.61 14.28 58.92 13.46 53.22 C12.8 53.22 12.14 53.22 11.46 53.22 C11.37 52.03 11.27 50.83 11.18 49.6 C10.44 42.96 8.62 36.6 6.89 30.16 C6.57 28.91 6.24 27.67 5.9 26.38 C5.09 23.33 4.28 20.27 3.46 17.22 C3.13 17.22 2.8 17.22 2.46 17.22 C1.57 32.51 1.33 47.73 1.39 63.04 C1.4 65.2 1.4 67.37 1.41 69.54 C1.42 74.77 1.44 80 1.46 85.22 C-6.99 89.07 -6.99 89.07 -12.54 87.22 C-17.92 81.86 -18.12 77.27 -18.14 69.85 C-18.11 68.5 -18.09 67.15 -18.07 65.79 C-18.06 64.39 -18.05 62.99 -18.05 61.59 C-18.04 58.67 -18.01 55.75 -17.98 52.83 C-17.92 49.08 -17.9 45.33 -17.88 41.58 C-17.87 38.01 -17.84 34.43 -17.82 30.86 C-17.81 30.17 -17.81 29.49 -17.8 28.78 C-17.79 26.86 -17.76 24.93 -17.74 23.01 C-17.72 21.91 -17.71 20.82 -17.7 19.69 C-17.54 17.22 -17.54 17.22 -16.54 16.22 C-16.3 14.64 -16.07 13.06 -15.86 11.47 C-15.16 7.88 -14.56 5.61 -11.79 3.16 C-7.63 0.68 -4.73 0.41 0 0 Z " fill="#002237" transform="translate(366.54296875,68.77734375)"/>
<path d="M0 0 C0.66 0.66 1.32 1.32 2 2 C5.73 0.88 5.73 0.88 8 -2 C18.79 -5.47 28.7 -4.58 39 0 C39.5 0.99 39.5 0.99 40 2 C40.6 2.27 41.2 2.54 41.81 2.81 C45.65 4.89 47.64 7.93 49 12 C49.09 13.64 49.12 15.29 49.11 16.93 C49.11 18.43 49.11 18.43 49.11 19.96 C49.11 21.04 49.1 22.12 49.1 23.23 C49.1 24.34 49.09 25.44 49.09 26.58 C49.09 30.12 49.08 33.65 49.06 37.19 C49.06 39.58 49.05 41.98 49.05 44.37 C49.04 50.25 49.02 56.12 49 62 C43.33 65.02 43.33 65.02 40.38 64.81 C36.28 63.41 34.47 62.7 32 59 C31.72 57.04 31.72 57.04 31.68 54.8 C31.66 53.96 31.64 53.12 31.62 52.26 C31.61 51.35 31.6 50.45 31.59 49.52 C31.57 48.59 31.55 47.66 31.53 46.71 C31.47 43.74 31.42 40.78 31.38 37.81 C31.34 35.8 31.3 33.79 31.26 31.78 C31.16 26.86 31.08 21.93 31 17 C30.4 16.71 29.8 16.42 29.19 16.12 C27 15 27 15 24 13 C19.52 13.46 15.14 15.86 12 19 C11.83 22.02 11.77 24.96 11.8 27.99 C11.79 29.83 11.77 31.67 11.76 33.51 C11.75 36.41 11.75 39.31 11.77 42.22 C11.78 45.02 11.76 47.81 11.73 50.61 C11.75 51.48 11.77 52.34 11.78 53.23 C11.69 59.08 11.69 59.08 9.74 61.69 C6.91 64.2 5.23 64.99 1.44 65.19 C-2.68 63.76 -4.83 61.69 -7 58 C-7.57 54.47 -7.57 54.47 -7.49 50.63 C-7.48 49.95 -7.47 49.27 -7.47 48.57 C-7.44 46.42 -7.38 44.27 -7.31 42.12 C-7.29 40.66 -7.26 39.19 -7.24 37.73 C-7.19 34.15 -7.1 30.58 -7 27 C-7.33 27 -7.66 27 -8 27 C-7.67 23.7 -7.34 20.4 -7 17 C-8.32 16.34 -9.64 15.68 -11 15 C-11.66 14.34 -12.32 13.68 -13 13 C-17.74 12.47 -20.06 13.48 -24 16 C-24.66 15.67 -25.32 15.34 -26 15 C-26.33 30.18 -26.66 45.36 -27 61 C-34.67 64.83 -34.67 64.83 -38 65 C-43.38 63 -43.38 63 -45.16 60.14 C-46.04 57.9 -46.26 56.32 -46.29 53.93 C-46.3 53.13 -46.32 52.34 -46.33 51.53 C-46.33 50.68 -46.33 49.83 -46.34 48.96 C-46.34 48.07 -46.35 47.19 -46.36 46.28 C-46.37 44.41 -46.37 42.54 -46.37 40.68 C-46.37 37.84 -46.41 35.01 -46.45 32.17 C-46.46 30.35 -46.46 28.53 -46.46 26.71 C-46.48 25.87 -46.49 25.03 -46.5 24.17 C-46.46 17.98 -44.85 13.45 -42 8 C-41.69 7.3 -41.38 6.6 -41.06 5.88 C-39.4 2.93 -36.87 1.67 -34 0 C-33.34 0 -32.68 0 -32 0 C-32 -0.66 -32 -1.32 -32 -2 C-21.22 -4.52 -10.04 -5.69 0 0 Z " fill="#002237" transform="translate(256,92)"/>
<path d="M0 0 C2.8 1.61 4.2 2.44 6 5 C6.88 8.77 6.88 12.45 6.88 16.31 C6.9 17.34 6.92 18.37 6.94 19.42 C6.98 21.95 7 24.47 7 27 C10.41 27.06 12.75 26.9 15.88 25.5 C24.16 22.29 32.07 24.55 40 28 C43.44 30.49 45.52 33.04 46.54 37.2 C46.78 39.12 46.9 41.06 47 43 C47.33 43.33 47.66 43.66 48 44 C48.11 45.36 48.16 46.72 48.18 48.09 C48.2 49.39 48.2 49.39 48.22 50.72 C48.22 51.66 48.23 52.61 48.24 53.58 C48.25 54.55 48.25 55.51 48.26 56.51 C48.28 58.56 48.29 60.61 48.3 62.65 C48.31 65.79 48.36 68.92 48.4 72.06 C48.41 74.04 48.42 76.03 48.43 78.02 C48.44 78.96 48.46 79.9 48.48 80.86 C48.46 87.36 48.46 87.36 46.16 90.57 C43.37 92.41 41.33 92.86 38 93 C35.88 92.19 35.88 92.19 34 91 C33.28 90.69 32.56 90.38 31.81 90.06 C30 89 30 89 29 86 C28.89 84.57 28.82 83.14 28.79 81.71 C28.76 80.42 28.76 80.42 28.73 79.1 C28.72 78.18 28.7 77.25 28.68 76.3 C28.66 75.35 28.64 74.4 28.62 73.42 C28.56 70.39 28.5 67.35 28.44 64.31 C28.39 62.25 28.35 60.2 28.31 58.14 C28.2 53.09 28.1 48.05 28 43 C21.33 42.13 15.67 42.13 9 43 C9.33 43.99 9.66 44.98 10 46 C9.27 46.62 9.27 46.62 8.52 47.26 C5.95 50.2 6.64 53.93 6.7 57.65 C6.69 59.39 6.68 61.14 6.67 62.88 C6.68 65.63 6.69 68.38 6.72 71.12 C6.74 73.78 6.72 76.43 6.7 79.09 C6.72 79.9 6.74 80.72 6.76 81.56 C6.68 87.12 6.68 87.12 4.72 89.65 C2.21 91.84 0.3 92.95 -3 93.5 C-6.61 92.9 -8.97 92.07 -12 90 C-13.99 85.46 -14.28 81.22 -14.24 76.33 C-14.24 75.59 -14.25 74.84 -14.25 74.08 C-14.25 71.63 -14.24 69.19 -14.23 66.75 C-14.23 65.04 -14.23 63.33 -14.23 61.63 C-14.23 58.06 -14.22 54.49 -14.21 50.92 C-14.19 46.36 -14.18 41.79 -14.19 37.22 C-14.19 33.7 -14.18 30.18 -14.17 26.66 C-14.17 24.97 -14.17 23.29 -14.17 21.61 C-14.16 19.25 -14.16 16.9 -14.15 14.54 C-14.15 13.85 -14.15 13.16 -14.15 12.44 C-14.12 8.84 -13.85 5.51 -13 2 C-8.49 0.24 -4.83 -0.6 0 0 Z " fill="#002237" transform="translate(151,64)"/>
<path d="M0 0 C1.62 1.31 1.62 1.31 2.38 3.94 C2.5 5.11 2.5 5.11 2.62 6.31 C2.96 6.31 3.28 6.31 3.62 6.31 C3.96 13.24 4.28 20.17 4.62 27.31 C5.95 26.65 7.26 25.99 8.62 25.31 C17.53 22.64 25.1 22.33 33.62 26.31 C41.15 30.85 41.15 30.85 42.28 34.32 C42.39 34.98 42.51 35.63 42.62 36.31 C42.96 37.3 43.28 38.29 43.62 39.31 C43.75 40.94 43.82 42.58 43.86 44.21 C43.9 45.7 43.9 45.7 43.94 47.22 C43.97 48.3 43.99 49.37 44.01 50.47 C44.04 51.57 44.06 52.67 44.09 53.81 C44.14 56.14 44.19 58.46 44.24 60.79 C44.31 64.36 44.4 67.94 44.49 71.51 C44.54 73.77 44.59 76.03 44.64 78.29 C44.67 79.36 44.69 80.43 44.72 81.54 C44.74 82.53 44.76 83.52 44.78 84.54 C44.8 85.86 44.8 85.86 44.83 87.19 C44.62 89.31 44.62 89.31 42.62 91.31 C39.95 91.72 39.95 91.72 36.75 91.81 C35.7 91.86 34.65 91.92 33.57 91.97 C30.62 91.31 30.62 91.31 28.48 88.83 C26.16 84.43 26.04 81.19 26.05 76.3 C26.04 75.45 26.02 74.6 26.01 73.72 C25.97 71.02 25.95 68.33 25.94 65.62 C25.91 62.91 25.87 60.2 25.84 57.49 C25.81 55.81 25.8 54.13 25.79 52.44 C25.76 49.15 25.67 46.46 24.62 43.31 C21.11 41.23 17.36 40.03 13.29 40.69 C10.84 41.47 10.84 41.47 7.62 43.31 C7.29 44.3 6.97 45.29 6.62 46.31 C5.97 46.31 5.3 46.31 4.62 46.31 C4.62 47.53 4.61 48.75 4.6 50.01 C4.56 54.55 4.49 59.08 4.42 63.61 C4.39 65.57 4.37 67.53 4.35 69.49 C4.33 72.31 4.29 75.13 4.23 77.95 C4.23 79.27 4.23 79.27 4.23 80.61 C4.08 86.68 4.08 86.68 1.77 89.86 C-1.07 91.78 -3.03 91.88 -6.44 91.88 C-7.48 91.9 -8.52 91.92 -9.6 91.94 C-12.38 91.31 -12.38 91.31 -14.03 89.29 C-15.74 85.5 -15.79 82.14 -15.75 78.07 C-15.75 77.25 -15.75 76.43 -15.76 75.59 C-15.77 72.9 -15.75 70.21 -15.74 67.52 C-15.74 65.65 -15.74 63.78 -15.74 61.91 C-15.74 57.99 -15.73 54.07 -15.71 50.16 C-15.69 45.13 -15.69 40.1 -15.69 35.07 C-15.7 31.21 -15.69 27.35 -15.68 23.49 C-15.68 21.64 -15.68 19.78 -15.68 17.93 C-15.68 15.34 -15.67 12.76 -15.65 10.17 C-15.65 9.4 -15.65 8.63 -15.66 7.84 C-15.6 2.54 -15.6 2.54 -13.38 0.31 C-9.1 -1.27 -4.35 -1.26 0 0 Z " fill="#002237" transform="translate(592.375,64.6875)"/>
<path d="M0 0 C8.13 -0.32 18.07 0.18 24.38 5.66 C25.94 10.54 25.83 15.07 25.5 20.16 C23.71 20.21 21.92 20.25 20.12 20.28 C19.13 20.3 18.13 20.33 17.1 20.35 C14.5 20.16 14.5 20.16 12.5 18.16 C9.67 17.96 6.96 17.88 4.12 17.91 C3.36 17.9 2.59 17.89 1.8 17.88 C-3.7 17.79 -3.7 17.79 -8.5 20.16 C-9.32 23.72 -9.32 23.72 -9.5 27.16 C-8.51 27.49 -7.52 27.82 -6.5 28.16 C-5.5 29.15 -4.5 30.15 -3.5 31.16 C-1.57 32.32 -1.57 32.32 0.5 33.28 C1.18 33.61 1.86 33.95 2.56 34.29 C4.65 35.26 4.65 35.26 7.5 36.16 C9.5 38.16 9.5 38.16 10.5 40.16 C13.03 40.81 13.03 40.81 15.5 41.16 C15.5 41.82 15.5 42.48 15.5 43.16 C16.08 43.42 16.67 43.68 17.27 43.95 C21.82 46.41 25.85 50.13 27.44 55.09 C27.46 55.77 27.48 56.45 27.5 57.16 C28.16 57.16 28.82 57.16 29.5 57.16 C29.58 59.7 29.64 62.24 29.69 64.78 C29.71 65.49 29.74 66.21 29.76 66.94 C29.84 72.6 28.57 76.37 25.14 80.98 C21.55 84.65 18.64 86.07 13.5 87.16 C12.51 87.65 12.51 87.65 11.5 88.16 C7.36 88.37 3.22 88.34 -0.93 88.34 C-2.99 88.34 -5.05 88.36 -7.11 88.38 C-8.41 88.38 -9.7 88.38 -11.03 88.39 C-12.22 88.39 -13.41 88.39 -14.64 88.4 C-17.5 88.16 -17.5 88.16 -19.5 86.16 C-21.61 85.85 -21.61 85.85 -23.94 85.78 C-28.23 85.35 -28.23 85.35 -30.56 83.66 C-32.34 78.91 -32.09 73.92 -30.5 69.16 C-28.21 68.01 -26.85 67.99 -24.31 67.97 C-23.58 67.95 -22.84 67.94 -22.08 67.93 C-19.5 68.16 -19.5 68.16 -16.27 69.14 C-11.85 70.33 -7.87 70.52 -3.31 70.53 C-2.12 70.57 -2.12 70.57 -0.91 70.61 C2.91 70.62 4.87 70.61 8.04 68.34 C9.95 65.49 9.81 63.52 9.5 60.16 C8.96 59.89 8.43 59.62 7.88 59.34 C5.08 57.95 2.29 56.55 -0.5 55.16 C-1.2 54.83 -1.9 54.5 -2.62 54.16 C-4.78 53 -6.64 51.75 -8.5 50.16 C-8.5 49.5 -8.5 48.84 -8.5 48.16 C-9.98 48.65 -9.98 48.65 -11.5 49.16 C-11.89 48.72 -12.28 48.29 -12.69 47.84 C-14.49 46.04 -14.49 46.04 -16.94 44.72 C-19.57 43.11 -21.48 41.48 -23.5 39.16 C-23.5 38.5 -23.5 37.84 -23.5 37.16 C-24.16 37.16 -24.82 37.16 -25.5 37.16 C-25.5 36.5 -25.5 35.84 -25.5 35.16 C-26.16 34.83 -26.82 34.5 -27.5 34.16 C-31.32 28.74 -30.56 19.49 -29.5 13.16 C-27.8 9.52 -25.75 7.46 -22.5 5.16 C-21.6 4.5 -21.6 4.5 -20.68 3.84 C-14.29 0.01 -7.2 0.45 0 0 Z " fill="#002237" transform="translate(31.5,68.84375)"/>
<path d="M0 0 C7.53 0.09 15.71 1.13 21.8 5.93 C26.14 10.77 28.92 15.73 28.75 22.31 C29.07 22.92 29.39 23.53 29.73 24.15 C30.92 26.68 31.05 28.47 31.06 31.25 C31.08 32.08 31.1 32.92 31.11 33.78 C30.63 37.12 29.95 38.71 27.75 41.31 C24.7 41.84 22.2 42.03 19.14 42.02 C18.31 42.03 17.47 42.05 16.6 42.07 C13.92 42.11 11.24 42.12 8.56 42.12 C6.75 42.15 4.93 42.17 3.11 42.2 C-1.34 42.26 -5.8 42.3 -10.25 42.31 C-11.2 45.32 -11.38 46.02 -10.05 49.04 C-5.58 52.66 -1 51.88 4.56 51.69 C5.63 51.67 6.7 51.66 7.8 51.64 C12.2 51.56 16.49 51.43 20.83 50.67 C23.75 50.31 23.75 50.31 26.69 52.25 C28.96 55.63 29.5 57.4 29.24 61.38 C28.21 65.41 25.14 67.41 21.81 69.56 C16.44 71.52 10.89 71.47 5.25 71.44 C4.15 71.44 4.15 71.44 3.03 71.45 C-2.76 71.44 -8.11 71.23 -13.25 68.31 C-14.36 67.76 -14.36 67.76 -15.5 67.19 C-16.08 66.9 -16.65 66.61 -17.25 66.31 C-17.25 65.65 -17.25 64.99 -17.25 64.31 C-18.74 64.81 -18.74 64.81 -20.25 65.31 C-27.77 56.54 -30.26 49.76 -31.25 38.31 C-31.32 37.5 -31.4 36.7 -31.47 35.86 C-31.85 27.14 -30.59 16.36 -24.94 9.5 C-22.01 6.63 -19.34 5.11 -15.25 4.31 C-15.25 3.65 -15.25 2.99 -15.25 2.31 C-14.29 2.22 -14.29 2.22 -13.32 2.13 C-12.49 2.05 -11.66 1.96 -10.81 1.88 C-9.99 1.79 -9.17 1.71 -8.32 1.63 C-5.23 1.16 -3.49 0.09 0 0 Z M-11.25 22.31 C-10.92 23.96 -10.59 25.61 -10.25 27.31 C-2.99 27.31 4.27 27.31 11.75 27.31 C12.39 21.46 12.39 21.46 9.38 18.44 C5.84 15.87 2.53 15.55 -1.77 15.74 C-5.91 16.7 -8.46 19.21 -11.25 22.31 Z " fill="#002237" transform="translate(678.25,87.6875)"/>
<path d="M0 0 C0 0.66 0 1.32 0 2 C0.89 2.23 1.77 2.45 2.69 2.69 C6.46 4.18 8.39 5.92 11 9 C11 9.66 11 10.32 11 11 C11.66 11.33 12.32 11.66 13 12 C14.54 16.61 14.18 21.23 14.19 26.06 C14.2 27.08 14.21 28.1 14.22 29.15 C14.23 30.12 14.23 31.1 14.23 32.1 C14.23 32.99 14.24 33.88 14.24 34.8 C14 37 14 37 12 39 C9.3 39.23 6.7 39.35 4 39.38 C2.81 39.4 2.81 39.4 1.6 39.43 C-0.93 39.48 -3.47 39.52 -6 39.56 C-8.53 39.61 -11.07 39.65 -13.6 39.71 C-15.18 39.74 -16.76 39.76 -18.34 39.79 C-22.3 39.78 -22.3 39.78 -26 41 C-26 42.98 -26 44.96 -26 47 C-25.01 47 -24.02 47 -23 47 C-23 47.66 -23 48.32 -23 49 C-18.85 49.03 -14.71 49.05 -10.56 49.06 C-9.38 49.07 -8.19 49.08 -6.97 49.09 C-5.85 49.09 -4.73 49.09 -3.57 49.1 C-2 49.11 -2 49.11 -0.41 49.11 C1.95 49.27 1.95 49.27 3 48 C8.53 47.76 8.53 47.76 11 49 C13.45 52.53 13.3 55.81 13 60 C11.8 63.94 9.54 65.1 6 67 C5.67 67.33 5.34 67.66 5 68 C-0.19 68.94 -5.24 69.18 -10.5 69.19 C-11.22 69.2 -11.94 69.21 -12.68 69.22 C-17.5 69.24 -21.46 68.63 -26 67 C-26.66 66.34 -27.32 65.68 -28 65 C-30.07 64.36 -30.07 64.36 -32 64 C-32 63.34 -32 62.68 -32 62 C-33.05 61.91 -33.05 61.91 -34.12 61.81 C-38.03 60.71 -40.15 58.85 -43 56 C-43.75 53.69 -43.75 53.69 -44 51 C-44.33 49.86 -44.65 48.72 -44.99 47.54 C-46.33 42.25 -46.37 37.06 -46.38 31.62 C-46.4 30.65 -46.42 29.67 -46.45 28.66 C-46.48 19.96 -44.66 12.55 -38.62 6.06 C-28.13 -3.43 -13.03 -4.09 0 0 Z M-27 20 C-27 20.99 -27 21.98 -27 23 C-26.34 23 -25.68 23 -25 23 C-25 23.66 -25 24.32 -25 25 C-21.52 25.03 -18.04 25.05 -14.56 25.06 C-13.57 25.07 -12.58 25.08 -11.55 25.09 C-10.61 25.09 -9.66 25.09 -8.69 25.1 C-7.82 25.1 -6.94 25.11 -6.04 25.11 C-4.01 25.23 -4.01 25.23 -3 24 C-2.41 21.67 -2.41 21.67 -3 19 C-5.69 15.81 -7.32 14.29 -11.45 13.58 C-17.95 13.38 -22.82 14.72 -27 20 Z M-25 66 C-25 66.33 -25 66.66 -25 67 C-22.36 67 -19.72 67 -17 67 C-17 66.67 -17 66.34 -17 66 C-19.64 66 -22.28 66 -25 66 Z M-7 66 C-7 66.33 -7 66.66 -7 67 C-3.04 67 0.92 67 5 67 C5 66.67 5 66.34 5 66 C1.04 66 -2.92 66 -7 66 Z " fill="#002237" transform="translate(763,90)"/>
<path d="M0 0 C5.07 2.41 8.9 5.28 12 10 C12.73 12.31 13.41 14.65 14 17 C14.33 17 14.66 17 15 17 C15.17 21.5 15.33 26 15.48 30.51 C15.54 32.04 15.59 33.57 15.65 35.1 C15.73 37.3 15.81 39.51 15.88 41.71 C15.91 42.39 15.93 43.08 15.96 43.78 C16.06 46.85 15.98 49.06 15 52 C14.34 52 13.68 52 13 52 C12.67 54.64 12.34 57.28 12 60 C11.01 60.33 10.02 60.66 9 61 C9 61.66 9 62.32 9 63 C5.37 64.32 1.74 65.64 -2 67 C-2 67.33 -2 67.66 -2 68 C-10.3 69.57 -19.74 70.07 -28 68 C-30.69 66 -30.69 66 -33 64 C-33.68 63.86 -34.36 63.71 -35.06 63.56 C-38.22 62.65 -39.22 60.69 -41 58 C-43.11 53.46 -44.38 48.98 -45 44 C-44.34 44 -43.68 44 -43 44 C-43.5 42.51 -43.5 42.51 -44 41 C-42.69 38.06 -42.69 38.06 -41 35 C-40.71 34.24 -40.42 33.47 -40.12 32.69 C-39 31 -39 31 -36.38 30.25 C-35.59 30.17 -34.81 30.09 -34 30 C-34 29.34 -34 28.68 -34 28 C-31.33 27.33 -28.67 26.67 -26 26 C-25.38 25.83 -24.76 25.65 -24.12 25.47 C-21.97 24.99 -20.09 24.89 -17.89 24.9 C-17.14 24.91 -16.38 24.91 -15.61 24.91 C-14.83 24.92 -14.05 24.93 -13.25 24.94 C-12.46 24.94 -11.66 24.95 -10.85 24.95 C-8.9 24.96 -6.95 24.98 -5 25 C-4.67 22.69 -4.34 20.38 -4 18 C-4.8 17.69 -5.61 17.38 -6.44 17.06 C-9 16 -9 16 -10 15 C-11.85 14.84 -13.71 14.75 -15.57 14.68 C-16.69 14.64 -17.82 14.6 -18.97 14.56 C-20.16 14.52 -21.34 14.48 -22.56 14.44 C-23.75 14.39 -24.94 14.35 -26.16 14.31 C-29.11 14.2 -32.05 14.1 -35 14 C-36.72 10.75 -37.54 8.72 -37 5 C-34.83 1.27 -33.49 0.17 -29.38 -1.25 C-28.26 -1.5 -27.15 -1.75 -26 -2 C-19.03 -5.49 -7.22 -2.18 0 0 Z M-19 39 C-19 39.33 -19 39.66 -19 40 C-14.71 40 -10.42 40 -6 40 C-6 39.67 -6 39.34 -6 39 C-10.29 39 -14.58 39 -19 39 Z M-25 43 C-26.07 45.45 -26.07 45.45 -26 48 C-24.28 51.25 -24.28 51.25 -21 52 C-19.03 52.17 -17.04 52.27 -15.06 52.31 C-13.5 52.37 -13.5 52.37 -11.91 52.43 C-8.31 51.9 -7.21 50.83 -5 48 C-3.86 44.42 -3.86 44.42 -5 41 C-7.46 40.6 -9.78 40.35 -12.25 40.19 C-12.92 40.12 -13.59 40.06 -14.28 39.99 C-18.78 39.68 -21.47 40.16 -25 43 Z " fill="#002337" transform="translate(112,90)"/>
<path d="M0 0 C5.82 -0.19 10.94 0.24 16.62 1.49 C19.74 2.16 22.85 2.59 26 3 C26 3.66 26 4.32 26 5 C26.56 5.08 27.11 5.17 27.69 5.25 C33.2 7.04 36.15 11.18 39 16 C41.96 22.03 41.37 28.48 41.37 35.04 C41.37 37.3 41.41 39.55 41.45 41.81 C41.52 51.12 41.1 57.81 34.25 64.81 C30.54 67.31 27.23 68.61 23 70 C23 70.33 23 70.66 23 71 C14.65 72.58 5.32 72.99 -3 71 C-4.69 69.5 -4.69 69.5 -6 68 C-6.66 67.86 -7.32 67.71 -8 67.56 C-10.74 66.79 -11.4 65.29 -13 63 C-13.99 62.34 -14.98 61.68 -16 61 C-19.4 54.69 -18.89 46.91 -18 40 C-15.94 35.51 -13.13 33.02 -8.71 30.9 C-6.47 30.1 -4.32 29.5 -2 29 C-1.28 28.82 -0.55 28.65 0.19 28.47 C4.22 27.8 8.24 27.63 12.31 27.44 C13.15 27.39 13.98 27.35 14.85 27.31 C16.9 27.2 18.95 27.1 21 27 C21.2 23.32 20.75 21.22 19 18 C17.74 17.97 17.74 17.97 16.46 17.94 C13.36 17.86 10.25 17.78 7.15 17.68 C5.14 17.63 3.14 17.58 1.13 17.53 C-0.13 17.49 -1.38 17.45 -2.68 17.41 C-3.84 17.38 -5 17.35 -6.2 17.32 C-9 17 -9 17 -11 15 C-11.2 12.62 -11.2 12.62 -11.12 9.88 C-11.11 8.96 -11.09 8.05 -11.07 7.12 C-11.04 6.07 -11.04 6.07 -11 5 C-10.34 4.67 -9.68 4.34 -9 4 C-9 3.67 -9 3.34 -9 3 C-6.03 2.34 -3.06 1.68 0 1 C0 0.67 0 0.34 0 0 Z M38 34 C38 41.59 38 49.18 38 57 C38.33 57 38.66 57 39 57 C39 49.41 39 41.82 39 34 C38.67 34 38.34 34 38 34 Z M6 42 C6 42.33 6 42.66 6 43 C10.62 43 15.24 43 20 43 C20 42.67 20 42.34 20 42 C15.38 42 10.76 42 6 42 Z M1.94 44.78 C0.73 47.63 0.79 49.94 1 53 C4.11 54.82 6.41 55.27 10 55.25 C10.85 55.26 11.69 55.26 12.56 55.27 C15.19 54.98 16.78 54.4 19 53 C21.5 49.61 22 48.33 22 44 C19.06 43.72 16.13 43.48 13.19 43.25 C12.35 43.17 11.52 43.09 10.66 43 C5.89 42.5 5.89 42.5 1.94 44.78 Z M-3 69 C-3 69.33 -3 69.66 -3 70 C-0.36 70 2.28 70 5 70 C5 69.67 5 69.34 5 69 C2.36 69 -0.28 69 -3 69 Z " fill="#002237" transform="translate(452,87)"/>
<path d="M0 0 C2.36 2.1 2.81 3.34 3.38 6.49 C3.6 10.57 3.63 14.6 3.59 18.68 C3.6 20.19 3.62 21.7 3.63 23.21 C3.66 27.18 3.66 31.15 3.64 35.12 C3.63 39.94 3.66 44.77 3.69 49.59 C3.71 53.34 3.72 57.09 3.71 60.85 C3.71 61.54 3.71 62.23 3.71 62.94 C3.72 64.8 3.71 66.66 3.71 68.52 C3.69 71.49 3.69 71.49 4.83 74.43 C5.59 74.39 6.35 74.34 7.14 74.3 C9.83 74.43 9.83 74.43 12.83 76.43 C13.12 79.68 13.12 79.68 13.01 83.55 C12.99 84.83 12.96 86.11 12.93 87.43 C12.88 88.92 12.88 88.92 12.83 90.43 C9.76 90.53 6.7 90.61 3.64 90.68 C2.77 90.71 1.91 90.74 1.02 90.78 C-3.08 90.84 -5.51 90.81 -9.12 88.71 C-11.17 86.43 -12.58 84.42 -13.92 81.68 C-14.33 80.88 -14.74 80.08 -15.16 79.25 C-18 71.35 -17.34 62.57 -17.34 54.29 C-17.35 52.93 -17.35 51.56 -17.35 50.2 C-17.36 47.35 -17.36 44.51 -17.36 41.66 C-17.36 38.03 -17.37 34.39 -17.39 30.76 C-17.4 27.94 -17.4 25.13 -17.4 22.32 C-17.4 20.33 -17.42 18.34 -17.43 16.35 C-17.42 15.14 -17.42 13.92 -17.42 12.67 C-17.42 11.61 -17.42 10.54 -17.42 9.45 C-17.15 6.14 -16.45 3.49 -15.17 0.43 C-10.28 -2.65 -5.09 -2.52 0 0 Z " fill="#002237" transform="translate(804.174560546875,65.57373046875)"/>
<path d="M0 0 C1.62 1.19 1.62 1.19 3.62 4.19 C3.83 6.85 3.92 9.42 3.92 12.08 C3.93 13.29 3.93 13.29 3.94 14.52 C3.95 17.18 3.96 19.84 3.96 22.5 C3.97 24.34 3.97 26.19 3.98 28.04 C3.99 31.91 4 35.78 4 39.66 C4 44.62 4.02 49.58 4.06 54.55 C4.08 58.36 4.08 62.18 4.08 65.99 C4.08 67.82 4.09 69.65 4.11 71.49 C4.13 74.04 4.12 76.6 4.11 79.16 C4.12 79.92 4.13 80.68 4.14 81.46 C4.1 84.93 3.88 86.84 1.78 89.66 C-1.07 91.68 -2.96 91.72 -6.44 91.69 C-8 91.7 -8 91.7 -9.6 91.72 C-12.38 91.19 -12.38 91.19 -14.02 89.67 C-15.93 86.17 -15.81 82.86 -15.79 78.98 C-15.8 78.15 -15.81 77.33 -15.82 76.48 C-15.84 73.76 -15.84 71.03 -15.84 68.31 C-15.85 66.42 -15.86 64.52 -15.87 62.63 C-15.88 58.66 -15.88 54.7 -15.88 50.73 C-15.87 45.65 -15.9 40.56 -15.94 35.47 C-15.97 31.57 -15.97 27.66 -15.97 23.75 C-15.97 21.88 -15.98 20 -16 18.12 C-16.02 15.5 -16.01 12.89 -15.99 10.27 C-16 9.49 -16.02 8.71 -16.03 7.91 C-16 5.75 -16 5.75 -15.38 2.19 C-10.71 -1.65 -5.71 -1.95 0 0 Z M1.62 19.19 C1.62 28.76 1.62 38.33 1.62 48.19 C1.96 48.19 2.28 48.19 2.62 48.19 C2.62 38.62 2.62 29.05 2.62 19.19 C2.29 19.19 1.97 19.19 1.62 19.19 Z " fill="#002237" transform="translate(519.375,64.8125)"/>
<path d="M0 0 C0.8 0 1.6 0.01 2.43 0.01 C4.41 0.03 6.39 0.04 8.38 0.06 C9.03 1.71 9.7 3.36 10.38 5.06 C9.72 5.06 9.05 5.06 8.38 5.06 C8.13 5.68 7.88 6.3 7.62 6.94 C6.38 9.06 6.38 9.06 4.31 9.94 C3.35 10.49 3.35 10.49 2.38 11.06 C2.26 11.98 2.15 12.9 2.03 13.84 C1.23 17.79 -0.11 19.01 -3.06 21.69 C-7.08 25.35 -7.08 25.35 -9.62 30.06 C-8.99 36.38 -4.97 40.82 -0.62 45.06 C0.35 46.34 1.31 47.63 2.25 48.94 C4.84 52.5 7.7 55.46 10.96 58.42 C12.59 60.31 13.07 61.6 13.38 64.06 C13.04 64.72 12.72 65.38 12.38 66.06 C9.62 66.14 6.88 66.2 4.12 66.25 C3.35 66.28 2.57 66.3 1.77 66.33 C-4.05 66.4 -4.05 66.4 -6.98 64.68 C-7.53 64.14 -8.07 63.61 -8.62 63.06 C-9.62 62.4 -10.61 61.74 -11.62 61.06 C-12.04 60.36 -12.45 59.66 -12.88 58.94 C-14.96 55.52 -17.49 52.77 -20.2 49.83 C-21.62 48.06 -21.62 48.06 -21.62 46.06 C-22.28 45.73 -22.95 45.4 -23.62 45.06 C-24.65 43.31 -25.67 41.55 -26.62 39.75 C-27.63 37.89 -27.63 37.89 -29.62 36.06 C-30.68 28.43 -29.01 23.39 -24.56 17.19 C-23.92 16.49 -23.28 15.78 -22.62 15.06 C-21.97 15.06 -21.3 15.06 -20.62 15.06 C-20.46 14.24 -20.29 13.41 -20.12 12.56 C-16.06 3.07 -9.76 -0.1 0 0 Z " fill="#002338" transform="translate(554.625,89.9375)"/>
<path d="M0 0 C0.7 0 1.41 0.01 2.13 0.01 C2.83 0.01 3.53 0 4.26 0 C9.5 0.01 9.5 0.01 10.63 1.14 C10.7 3.67 10.72 6.17 10.69 8.7 C10.69 9.41 10.68 10.12 10.68 10.85 C10.67 12.61 10.65 14.38 10.63 16.14 C8.17 16.22 5.71 16.28 3.25 16.32 C2.56 16.35 1.86 16.37 1.14 16.4 C-0.89 16.43 -0.89 16.43 -4.37 16.14 C-6.7 12.64 -6.61 11.14 -6.56 7.01 C-6.55 5.94 -6.55 4.86 -6.54 3.75 C-6.24 -0.91 -4.18 0.01 0 0 Z " fill="#002338" transform="translate(309.37109375,215.86328125)"/>
<path d="M0 0 C1.04 -0.03 2.08 -0.05 3.14 -0.08 C6.66 0.3 8.48 0.98 11.19 3.25 C11.78 5.66 11.78 5.66 11.69 8.31 C11.68 9.19 11.67 10.07 11.66 10.97 C11.19 13.25 11.19 13.25 8.19 15.25 C5.58 15.28 3.14 15.21 0.56 15 C-0.13 14.96 -0.82 14.92 -1.54 14.88 C-3.3 14.75 -5.06 14.51 -6.81 14.25 C-8.13 11.61 -7.91 9.57 -7.88 6.62 C-7.87 5.62 -7.86 4.62 -7.85 3.59 C-7.84 2.82 -7.82 2.04 -7.81 1.25 C-5.14 -0.09 -2.99 0.04 0 0 Z " fill="#002135" transform="translate(245.8125,299.75)"/>
<path d="M0 0 C2.27 -0.03 4.54 -0.05 6.81 -0.06 C8.08 -0.07 9.34 -0.09 10.64 -0.1 C14 0 14 0 17 1 C17 5.29 17 9.58 17 14 C11.39 14 5.78 14 0 14 C-1.42 11.16 -0.86 9.01 -0.56 5.88 C-0.46 4.78 -0.36 3.68 -0.25 2.55 C-0.17 1.71 -0.09 0.87 0 0 Z " fill="#002338" transform="translate(383,218)"/>
<path d="M0 0 C1.75 0 1.75 0 3.54 0.01 C4.7 0.01 5.86 0 7.06 0 C10.16 0.13 10.16 0.13 13.16 1.13 C13.16 5.42 13.16 9.71 13.16 14.13 C8.21 14.46 3.26 14.79 -1.84 15.13 C-4.1 11.74 -4.08 10.48 -4.02 6.51 C-4.02 5.53 -4.01 4.54 -4 3.53 C-3.76 0.05 -3.54 0.17 0 0 Z " fill="#002237" transform="translate(218.8359375,299.8671875)"/>
<path d="M0 0 C0.33 0 0.66 0 1 0 C1.33 4.62 1.66 9.24 2 14 C2.33 14 2.66 14 3 14 C3 25.88 3 37.76 3 50 C2.67 50 2.34 50 2 50 C1.67 54.95 1.34 59.9 1 65 C0.67 65 0.34 65 0 65 C0 59.06 0 53.12 0 47 C-0.66 47 -1.32 47 -2 47 C-3.2 44.59 -3.1 43.05 -3.06 40.38 C-3.05 39.56 -3.04 38.74 -3.04 37.9 C-3.02 37.27 -3.01 36.65 -3 36 C-2.34 36 -1.68 36 -1 36 C-1.01 34.99 -1.02 33.99 -1.04 32.95 C-1.12 21.93 -0.68 10.99 0 0 Z " fill="#7DD887" transform="translate(1105,107)"/>
<path d="M0 0 C44.22 0 88.44 0 134 0 C134 0.33 134 0.66 134 1 C89.78 1 45.56 1 0 1 C0 0.67 0 0.34 0 0 Z " fill="#000102" transform="translate(85,295)"/>
<path d="M0 0 C40.59 0 81.18 0 123 0 C123 0.33 123 0.66 123 1 C82.41 1 41.82 1 0 1 C0 0.67 0 0.34 0 0 Z " fill="#000102" transform="translate(263,295)"/>
<path d="M0 0 C36.63 0 73.26 0 111 0 C111 0.33 111 0.66 111 1 C74.37 1 37.74 1 0 1 C0 0.67 0 0.34 0 0 Z " fill="#000102" transform="translate(538,295)"/>
<path d="M0 0 C0.33 0 0.66 0 1 0 C1 27.39 1 54.78 1 83 C0.67 83 0.34 83 0 83 C-0.78 60.27 -1.2 37.72 0 15 C-0.66 15 -1.32 15 -2 15 C-2 13.68 -2 12.36 -2 11 C-1.34 11 -0.68 11 0 11 C0 7.37 0 3.74 0 0 Z " fill="#000102" transform="translate(522,69)"/>
<path d="M0 0 C2.37 3.68 2.29 7.27 2.27 11.5 C2.27 12.22 2.27 12.94 2.27 13.68 C2.27 15.2 2.27 16.72 2.26 18.24 C2.25 20.56 2.26 22.88 2.27 25.2 C2.27 26.68 2.27 28.15 2.27 29.63 C2.27 30.32 2.27 31.02 2.28 31.73 C2.24 35.38 2.08 36.88 0 40 C-0.17 35.75 -0.33 31.5 -0.48 27.25 C-0.54 25.81 -0.59 24.37 -0.65 22.92 C-0.96 15.19 -1.16 7.68 0 0 Z " fill="#000102" transform="translate(491,104)"/>
<path d="M0 0 C0.66 0 1.32 0 2 0 C2 8.91 2 17.82 2 27 C1.34 26.67 0.68 26.34 0 26 C-1.31 20.8 -1.15 15.51 -1.12 10.19 C-1.13 9.32 -1.13 8.45 -1.14 7.55 C-1.14 6.72 -1.13 5.89 -1.13 5.04 C-1.13 4.29 -1.13 3.54 -1.13 2.76 C-1 1 -1 1 0 0 Z " fill="#000102" transform="translate(747,248)"/>
<path d="M0 0 C0.33 0 0.66 0 1 0 C1 11.88 1 23.76 1 36 C0.67 36 0.34 36 0 36 C0 32.7 0 29.4 0 26 C-0.66 26 -1.32 26 -2 26 C-2 20.06 -2 14.12 -2 8 C-1.34 8 -0.68 8 0 8 C0 5.36 0 2.72 0 0 Z " fill="#000102" transform="translate(1107,121)"/>
<path d="M0 0 C0 8.25 0 16.5 0 25 C-4.57 18.14 -3.1 8.93 -3 1 C-1 0 -1 0 0 0 Z " fill="#000102" transform="translate(257,248)"/>
<path d="M0 0 C0 0.33 0 0.66 0 1 C-4.89 1.97 -9.54 2.15 -14.5 2.12 C-15.6 2.13 -15.6 2.13 -16.72 2.14 C-20.92 2.13 -24.86 1.83 -29 1 C-29 0.67 -29 0.34 -29 0 C-19.37 -1.75 -9.67 -1.2 0 0 Z " fill="#000102" transform="translate(698,157)"/>
<path d="M0 0 C0 0.33 0 0.66 0 1 C-5.23 1.87 -10.26 2.15 -15.56 2.12 C-16.29 2.13 -17.02 2.13 -17.77 2.14 C-21.96 2.13 -25.88 1.82 -30 1 C-30 0.67 -30 0.34 -30 0 C-19.88 -1.5 -10.16 -0.98 0 0 Z " fill="#000102" transform="translate(768,157)"/>
<path d="M0 0 C0.33 0 0.66 0 1 0 C1 18.81 1 37.62 1 57 C0.67 57 0.34 57 0 57 C0 38.19 0 19.38 0 0 Z " fill="#002338" transform="translate(348,89)"/>
<path d="M0 0 C0.33 0 0.66 0 1 0 C1 17.82 1 35.64 1 54 C0.67 54 0.34 54 0 54 C0 36.18 0 18.36 0 0 Z " fill="#002338" transform="translate(60,220)"/>
<path d="M0 0 C0.33 0 0.66 0 1 0 C1 16.83 1 33.66 1 51 C0.67 51 0.34 51 0 51 C0 34.17 0 17.34 0 0 Z " fill="#000102" transform="translate(637,102)"/>
<path d="M0 0 C0 0.33 0 0.66 0 1 C-9.9 1.49 -9.9 1.49 -20 2 C-20 2.33 -20 2.66 -20 3 C-24.29 3 -28.58 3 -33 3 C-33 2.67 -33 2.34 -33 2 C-21.92 -0.7 -11.32 -1.89 0 0 Z " fill="#2B653D" transform="translate(1045,48)"/>
<path d="M0 0 C0.33 0 0.66 0 1 0 C1.61 10.34 2.19 20.64 2 31 C1.34 30.67 0.68 30.34 0 30 C-1.07 26.29 -1.06 22.87 -0.88 19.04 C-0.83 17.93 -0.78 16.82 -0.73 15.67 C-0.68 14.52 -0.62 13.37 -0.56 12.19 C-0.51 11.02 -0.46 9.85 -0.4 8.64 C-0.27 5.76 -0.14 2.88 0 0 Z " fill="#66B26C" transform="translate(1121,131)"/>
<path d="M0 0 C0 0.33 0 0.66 0 1 C-8.57 2.62 -17.42 2.6 -26 1 C-26 0.67 -26 0.34 -26 0 C-17.21 -1.5 -8.83 -1.03 0 0 Z " fill="#000102" transform="translate(110,157)"/>
<path d="M0 0 C0.82 0.05 1.64 0.1 2.49 0.16 C4.5 0.29 6.5 0.42 8.5 0.56 C8.5 0.89 8.5 1.22 8.5 1.56 C-0.07 3.19 -8.92 3.16 -17.5 1.56 C-17.5 1.23 -17.5 0.9 -17.5 0.56 C-11.53 -0.36 -6.02 -0.43 0 0 Z " fill="#000102" transform="translate(466.5,156.4375)"/>
<path d="M0 0 C0.33 0 0.66 0 1 0 C1 15.18 1 30.36 1 46 C0.67 46 0.34 46 0 46 C0 30.82 0 15.64 0 0 Z " fill="#000102" transform="translate(368,107)"/>
<path d="M0 0 C0.33 0 0.66 0 1 0 C1 15.18 1 30.36 1 46 C0.67 46 0.34 46 0 46 C0 30.82 0 15.64 0 0 Z " fill="#000102" transform="translate(306,107)"/>
<path d="M0 0 C0.99 0.49 0.99 0.49 2 1 C1.01 1.49 1.01 1.49 0 2 C0 1.34 0 0.68 0 0 Z M-2 2 C-1.34 2.33 -0.68 2.66 0 3 C-1.98 3.99 -1.98 3.99 -4 5 C-4 5.99 -4 6.98 -4 8 C-5.29 9.63 -5.29 9.63 -7.06 11.36 C-7.69 11.98 -8.33 12.6 -8.98 13.24 C-9.64 13.88 -10.31 14.53 -11 15.19 C-12 16.17 -12 16.17 -13.02 17.17 C-14.68 18.79 -16.33 20.4 -18 22 C-18 19 -18 19 -15.63 16.44 C-14.1 14.98 -12.55 13.55 -11 12.12 C-8.26 9.51 -6.59 7.77 -6 4 C-4.06 2.69 -4.06 2.69 -2 2 Z " fill="#1A7253" transform="translate(999,55)"/>
<path d="M0 0 C0.66 0.66 1.32 1.32 2 2 C-3.33 7.33 -8.67 12.67 -14 18 C-12.65 12.32 -9.98 9.48 -5.88 5.62 C-5.03 4.81 -5.03 4.81 -4.17 3.97 C-2.79 2.64 -1.4 1.32 0 0 Z " fill="#6FBE7C" transform="translate(991,61)"/>
<path d="M0 0 C0.33 0 0.66 0 1 0 C2.33 10.56 2.33 10.56 1 15 C0.34 14.01 -0.32 13.02 -1 12 C-0.67 11.34 -0.34 10.68 0 10 C-0.66 10 -1.32 10 -2 10 C-1.94 10.89 -1.88 11.77 -1.81 12.69 C-2.02 16.34 -2.92 18.05 -5 21 C-5.33 20.34 -5.66 19.68 -6 19 C-5.34 17.66 -4.67 16.33 -4 15 C-3.43 12.8 -2.92 10.59 -2.44 8.38 C-1.1 2.19 -1.1 2.19 0 0 Z " fill="#194A31" transform="translate(1112,247)"/>
<path d="M0 0 C0 8.25 0 16.5 0 25 C-0.33 25 -0.66 25 -1 25 C-1 19.06 -1 13.12 -1 7 C-1.66 7 -2.32 7 -3 7 C-3.33 5.02 -3.66 3.04 -4 1 C-2 0 -2 0 0 0 Z " fill="#7DC385" transform="translate(1106,147)"/>
<path d="M0 0 C0.33 0 0.66 0 1 0 C1 12.87 1 25.74 1 39 C0.67 39 0.34 39 0 39 C0 26.13 0 13.26 0 0 Z " fill="#000102" transform="translate(268,111)"/>
<path d="M0 0 C12.21 0 24.42 0 37 0 C37 0.33 37 0.66 37 1 C24.79 1 12.58 1 0 1 C0 0.67 0 0.34 0 0 Z " fill="#000102" transform="translate(668,130)"/>
<path d="M0 0 C0.33 0 0.66 0 1 0 C1 11.55 1 23.1 1 35 C0.67 35 0.34 35 0 35 C0 23.45 0 11.9 0 0 Z " fill="#000102" transform="translate(456,280)"/>
<path d="M0 0 C11.55 0 23.1 0 35 0 C35 0.33 35 0.66 35 1 C23.45 1 11.9 1 0 1 C0 0.67 0 0.34 0 0 Z " fill="#000102" transform="translate(739,130)"/>
<path d="M0 0 C0.33 0 0.66 0 1 0 C1 11.22 1 22.44 1 34 C0.67 34 0.34 34 0 34 C0 22.78 0 11.56 0 0 Z " fill="#000102" transform="translate(818,244)"/>
<path d="M0 0 C0.33 0.99 0.66 1.98 1 3 C-2.3 6.3 -5.6 9.6 -9 13 C-9.66 12.34 -10.32 11.68 -11 11 C-7.37 7.37 -3.74 3.74 0 0 Z " fill="#469C73" transform="translate(1150,101)"/>
<path d="M0 0 C10.23 0 20.46 0 31 0 C31 0.33 31 0.66 31 1 C20.77 1 10.54 1 0 1 C0 0.67 0 0.34 0 0 Z " fill="#000102" transform="translate(700,295)"/>
<path d="M0 0 C0.33 0 0.66 0 1 0 C1 9.9 1 19.8 1 30 C0.67 30 0.34 30 0 30 C0 20.1 0 10.2 0 0 Z " fill="#000102" transform="translate(783,248)"/>
<path d="M0 0 C0.33 0 0.66 0 1 0 C1 9.57 1 19.14 1 29 C0.67 29 0.34 29 0 29 C0 19.43 0 9.86 0 0 Z " fill="#000102" transform="translate(404,244)"/>
<path d="M0 0 C0 0.66 0 1.32 0 2 C-1.96 3.39 -3.96 4.73 -6 6 C-6 3 -6 3 -4.69 1.31 C-3 0 -3 0 0 0 Z M-10 6 C-9.34 6.33 -8.68 6.66 -8 7 C-9.32 8.32 -10.64 9.64 -12 11 C-12 9.68 -12 8.36 -12 7 C-11.34 6.67 -10.68 6.34 -10 6 Z " fill="#1E8260" transform="translate(974,111)"/>
<path d="M0 0 C0.33 0 0.66 0 1 0 C1 9.24 1 18.48 1 28 C0.67 28 0.34 28 0 28 C0 18.76 0 9.52 0 0 Z " fill="#62B66C" transform="translate(1119,117)"/>
<path d="M0 0 C0.66 0.39 1.32 0.78 2 1.19 C2 1.52 2 1.85 2 2.19 C1.22 2.25 0.44 2.31 -0.37 2.37 C-1.89 2.5 -1.89 2.5 -3.44 2.62 C-4.45 2.71 -5.46 2.79 -6.5 2.87 C-8.94 2.92 -8.94 2.92 -10 4.19 C-12.67 4.33 -15.32 4.23 -18 4.19 C-18 3.86 -18 3.53 -18 3.19 C-17.01 3.08 -16.02 2.98 -15 2.88 C-12.04 2.48 -9.61 1.68 -6.88 0.5 C-3.88 -0.71 -3.28 -0.89 0 0 Z " fill="#ABF5AE" transform="translate(1204,26.8125)"/>
<path d="M0 0 C6.6 0 13.2 0 20 0 C20 0.33 20 0.66 20 1 C17.79 1.2 15.58 1.38 13.38 1.56 C12.15 1.67 10.92 1.77 9.65 1.88 C6.24 1.99 3.32 1.69 0 1 C0 0.67 0 0.34 0 0 Z " fill="#000102" transform="translate(667,315)"/>
<path d="M0 0 C8.58 0 17.16 0 26 0 C26 0.33 26 0.66 26 1 C17.18 1.85 8.81 2.05 0 1 C0 0.67 0 0.34 0 0 Z " fill="#000102" transform="translate(16,157)"/>
<path d="M0 0 C7.92 0 15.84 0 24 0 C24 0.33 24 0.66 24 1 C16.08 1 8.16 1 0 1 C0 0.67 0 0.34 0 0 Z " fill="#000102" transform="translate(444,105)"/>
<path d="M0 0 C7.59 0 15.18 0 23 0 C23 0.33 23 0.66 23 1 C15.41 1 7.82 1 0 1 C0 0.67 0 0.34 0 0 Z " fill="#000102" transform="translate(79,105)"/>
<path d="M0 0 C5.94 0 11.88 0 18 0 C18 0.33 18 0.66 18 1 C11.79 1.73 6.16 2.23 0 1 C0 0.67 0 0.34 0 0 Z " fill="#000102" transform="translate(497,295)"/>
<path d="M0 0 C0.33 0 0.66 0 1 0 C1 6.93 1 13.86 1 21 C0.67 21 0.34 21 0 21 C0 14.07 0 7.14 0 0 Z " fill="#000102" transform="translate(1154,328)"/>
<path d="M0 0 C0.33 0 0.66 0 1 0 C1 6.93 1 13.86 1 21 C0.67 21 0.34 21 0 21 C0 14.07 0 7.14 0 0 Z " fill="#000102" transform="translate(692,251)"/>
<path d="M0 0 C4.95 0 9.9 0 15 0 C15 0.33 15 0.66 15 1 C13.25 1.22 11.5 1.43 9.75 1.62 C8.78 1.74 7.8 1.86 6.8 1.98 C4 2 4 2 0 0 Z " fill="#000102" transform="translate(397,157)"/>
<path d="M0 0 C6.27 0 12.54 0 19 0 C19 0.33 19 0.66 19 1 C12.73 1 6.46 1 0 1 C0 0.67 0 0.34 0 0 Z " fill="#000102" transform="translate(1007,85)"/>
<path d="M0 0 C5.94 0 11.88 0 18 0 C18 0.33 18 0.66 18 1 C12.06 1 6.12 1 0 1 C0 0.67 0 0.34 0 0 Z " fill="#000102" transform="translate(1203,85)"/>
<path d="M0 0 C4.62 0 9.24 0 14 0 C14 0.33 14 0.66 14 1 C12.42 1.22 10.83 1.43 9.25 1.62 C8.37 1.74 7.49 1.86 6.58 1.98 C4 2 4 2 0 0 Z " fill="#000102" transform="translate(801,157)"/>
<path d="M0 0 C5.61 0 11.22 0 17 0 C17 0.33 17 0.66 17 1 C11.39 1 5.78 1 0 1 C0 0.67 0 0.34 0 0 Z " fill="#000102" transform="translate(27,87)"/>
<path d="M0 0 C5.28 0 10.56 0 16 0 C16 0.33 16 0.66 16 1 C10.72 1 5.44 1 0 1 C0 0.67 0 0.34 0 0 Z " fill="#000102" transform="translate(280,265)"/>
<path d="M0 0 C4.95 0 9.9 0 15 0 C15 0.33 15 0.66 15 1 C10.05 1 5.1 1 0 1 C0 0.67 0 0.34 0 0 Z " fill="#000102" transform="translate(441,315)"/>
<path d="M0 0 C4.95 0 9.9 0 15 0 C15 0.33 15 0.66 15 1 C10.05 1 5.1 1 0 1 C0 0.67 0 0.34 0 0 Z " fill="#000102" transform="translate(384,233)"/>
<path d="M0 0 C4.62 0 9.24 0 14 0 C14 0.33 14 0.66 14 1 C9.38 1 4.76 1 0 1 C0 0.67 0 0.34 0 0 Z " fill="#000102" transform="translate(1215,316)"/>
<path d="M0 0 C4.62 0 9.24 0 14 0 C14 0.33 14 0.66 14 1 C9.38 1 4.76 1 0 1 C0 0.67 0 0.34 0 0 Z " fill="#000102" transform="translate(999,316)"/>
<path d="M0 0 C4.62 0 9.24 0 14 0 C14 0.33 14 0.66 14 1 C9.38 1 4.76 1 0 1 C0 0.67 0 0.34 0 0 Z " fill="#000102" transform="translate(240,315)"/>
<path d="M0 0 C4.62 0 9.24 0 14 0 C14 0.33 14 0.66 14 1 C9.38 1 4.76 1 0 1 C0 0.67 0 0.34 0 0 Z " fill="#000102" transform="translate(218,315)"/>
<path d="M0 0 C0.33 0 0.66 0 1 0 C1 4.62 1 9.24 1 14 C0.67 14 0.34 14 0 14 C0 9.38 0 4.76 0 0 Z " fill="#000102" transform="translate(778,111)"/>
<path d="M0 0 C4.29 0 8.58 0 13 0 C13 0.33 13 0.66 13 1 C8.71 1 4.42 1 0 1 C0 0.67 0 0.34 0 0 Z " fill="#000102" transform="translate(34,315)"/>
<path d="M0 0 C4.29 0 8.58 0 13 0 C13 0.33 13 0.66 13 1 C8.71 1 4.42 1 0 1 C0 0.67 0 0.34 0 0 Z " fill="#000102" transform="translate(463,273)"/>
<path d="M0 0 C0.33 0 0.66 0 1 0 C1 3.96 1 7.92 1 12 C0.67 12 0.34 12 0 12 C0 8.04 0 4.08 0 0 Z " fill="#000102" transform="translate(321,218)"/>
<path d="M0 0 C3.96 0 7.92 0 12 0 C12 0.33 12 0.66 12 1 C8.04 1 4.08 1 0 1 C0 0.67 0 0.34 0 0 Z " fill="#002338" transform="translate(305,215)"/>
<path d="M0 0 C0.33 0 0.66 0 1 0 C1 3.96 1 7.92 1 12 C0.67 12 0.34 12 0 12 C0 8.04 0 4.08 0 0 Z " fill="#002338" transform="translate(248,120)"/>
<path d="M0 0 C0.33 0 0.66 0 1 0 C1 3.63 1 7.26 1 11 C0.67 11 0.34 11 0 11 C0 7.37 0 3.74 0 0 Z " fill="#000102" transform="translate(17,269)"/>
<path d="M0 0 C0.33 0 0.66 0 1 0 C1 3.3 1 6.6 1 10 C0.67 10 0.34 10 0 10 C0 6.7 0 3.4 0 0 Z " fill="#000102" transform="translate(233,303)"/>
<path d="M0 0 C3.3 0 6.6 0 10 0 C10 0.33 10 0.66 10 1 C6.7 1 3.4 1 0 1 C0 0.67 0 0.34 0 0 Z " fill="#000102" transform="translate(744,105)"/>
<path d="M0 0 C3.3 0 6.6 0 10 0 C10 0.33 10 0.66 10 1 C6.7 1 3.4 1 0 1 C0 0.67 0 0.34 0 0 Z " fill="#000102" transform="translate(674,105)"/>
<path d="M0 0 C0.33 0 0.66 0 1 0 C1 3.3 1 6.6 1 10 C0.67 10 0.34 10 0 10 C0 6.7 0 3.4 0 0 Z " fill="#000102" transform="translate(57,78)"/>
<path d="M0 0 C1.06 1.81 1.06 1.81 2 4 C1.67 4.99 1.34 5.98 1 7 C0 6 0 6 -0.06 2.94 C-0.04 1.97 -0.02 1 0 0 Z " fill="#000102" transform="translate(348,266)"/>
<path d="M0 0 C0.33 0 0.66 0 1 0 C1 2.97 1 5.94 1 9 C0.67 9 0.34 9 0 9 C0 6.03 0 3.06 0 0 Z " fill="#000102" transform="translate(534,263)"/>
<path d="M0 0 C0.33 0 0.66 0 1 0 C1 2.97 1 5.94 1 9 C0.67 9 0.34 9 0 9 C0 6.03 0 3.06 0 0 Z " fill="#002338" transform="translate(381,220)"/>
<path d="M0 0 C0.33 0 0.66 0 1 0 C1 2.97 1 5.94 1 9 C0.67 9 0.34 9 0 9 C0 6.03 0 3.06 0 0 Z " fill="#002338" transform="translate(248,138)"/>
<path d="M0 0 C2.97 0 5.94 0 9 0 C9 0.33 9 0.66 9 1 C6.03 1 3.06 1 0 1 C0 0.67 0 0.34 0 0 Z " fill="#000102" transform="translate(1196,30)"/>
<path d="M0 0 C2.97 0 5.94 0 9 0 C9 0.33 9 0.66 9 1 C6.03 1 3.06 1 0 1 C0 0.67 0 0.34 0 0 Z " fill="#000102" transform="translate(1024,30)"/>
<path d="M0 0 C0.33 0 0.66 0 1 0 C1 2.64 1 5.28 1 8 C0.67 8 0.34 8 0 8 C0 5.36 0 2.72 0 0 Z " fill="#000102" transform="translate(62,131)"/>
<path d="M0 0 C2.64 0 5.28 0 8 0 C8 0.33 8 0.66 8 1 C5.36 1 2.72 1 0 1 C0 0.67 0 0.34 0 0 Z " fill="#86D989" transform="translate(1042,88)"/>
<path d="M0 0 C0.33 0 0.66 0 1 0 C1 2.31 1 4.62 1 7 C0.67 7 0.34 7 0 7 C0 4.69 0 2.38 0 0 Z " fill="#000102" transform="translate(818,145)"/>
<path d="M0 0 C0.33 0 0.66 0 1 0 C1 1.98 1 3.96 1 6 C0.67 6 0.34 6 0 6 C0 4.02 0 2.04 0 0 Z " fill="#000102" transform="translate(494,264)"/>
<path d="M0 0 C1.98 0 3.96 0 6 0 C6 0.33 6 0.66 6 1 C4.02 1 2.04 1 0 1 C0 0.67 0 0.34 0 0 Z " fill="#000102" transform="translate(312,255)"/>
<path d="M0 0 C0.33 0 0.66 0 1 0 C1 1.98 1 3.96 1 6 C0.67 6 0.34 6 0 6 C0 4.02 0 2.04 0 0 Z " fill="#000102" transform="translate(1116,249)"/>
<path d="M0 0 C1.98 0 3.96 0 6 0 C6 0.33 6 0.66 6 1 C4.02 1 2.04 1 0 1 C0 0.67 0 0.34 0 0 Z " fill="#000102" transform="translate(237,105)"/>
<path d="M0 0 C0.33 0 0.66 0 1 0 C1 1.98 1 3.96 1 6 C0.67 6 0.34 6 0 6 C0 4.02 0 2.04 0 0 Z " fill="#000102" transform="translate(198,101)"/>
<path d="M0 0 C0.33 0 0.66 0 1 0 C1 1.98 1 3.96 1 6 C0.67 6 0.34 6 0 6 C0 4.02 0 2.04 0 0 Z " fill="#000102" transform="translate(391,96)"/>
<path d="M0 0 C1.65 0 3.3 0 5 0 C5 0.33 5 0.66 5 1 C3.35 1 1.7 1 0 1 C0 0.67 0 0.34 0 0 Z " fill="#000102" transform="translate(25,313)"/>
<path d="M0 0 C1.65 0 3.3 0 5 0 C5 0.33 5 0.66 5 1 C3.35 1 1.7 1 0 1 C0 0.67 0 0.34 0 0 Z " fill="#000102" transform="translate(233,295)"/>
<path d="M0 0 C0.33 0 0.66 0 1 0 C1 1.65 1 3.3 1 5 C0.67 5 0.34 5 0 5 C0 3.35 0 1.7 0 0 Z " fill="#000102" transform="translate(1079,239)"/>
<path d="M0 0 C0.33 0 0.66 0 1 0 C1 1.65 1 3.3 1 5 C0.67 5 0.34 5 0 5 C0 3.35 0 1.7 0 0 Z " fill="#000102" transform="translate(1084,216)"/>
<path d="M0 0 C1.65 0 3.3 0 5 0 C5 0.33 5 0.66 5 1 C3.35 1 1.7 1 0 1 C0 0.67 0 0.34 0 0 Z " fill="#000102" transform="translate(7,155)"/>
<path d="M0 0 C0.33 0 0.66 0 1 0 C1 1.65 1 3.3 1 5 C0.67 5 0.34 5 0 5 C0 3.35 0 1.7 0 0 Z " fill="#2FA67B" transform="translate(1087,149)"/>
<path d="M0 0 C0.33 0 0.66 0 1 0 C1 1.65 1 3.3 1 5 C0.67 5 0.34 5 0 5 C0 3.35 0 1.7 0 0 Z " fill="#000102" transform="translate(707,105)"/>
<path d="M0 0 C4 1 4 1 4 1 Z " fill="#000102" transform="translate(1202,313)"/>
<path d="M0 0 C4 1 4 1 4 1 Z " fill="#000102" transform="translate(759,298)"/>
<path d="M0 0 C1 4 1 4 1 4 Z " fill="#000102" transform="translate(20,258)"/>
<path d="M0 0 C1 4 1 4 1 4 Z " fill="#000102" transform="translate(690,244)"/>
<path d="M0 0 C1 4 1 4 1 4 Z " fill="#1E9C7B" transform="translate(1082,216)"/>
<path d="M0 0 C1 4 1 4 1 4 Z " fill="#000102" transform="translate(1089,194)"/>
<path d="M0 0 C4 1 4 1 4 1 Z " fill="#000102" transform="translate(46,155)"/>
<path d="M0 0 C1 4 1 4 1 4 Z " fill="#000102" transform="translate(421,146)"/>
<path d="M0 0 C1 4 1 4 1 4 Z " fill="#000102" transform="translate(396,116)"/>
<path d="M0 0 C1 4 1 4 1 4 Z " fill="#000102" transform="translate(125,101)"/>
<path d="M0 0 C1.48 0.99 1.48 0.99 3 2 C2.01 2 1.02 2 0 2 C0 1.34 0 0.68 0 0 Z " fill="#77B17A" transform="translate(1256,90)"/>
<path d="M0 0 C4 1 4 1 4 1 Z " fill="#000102" transform="translate(1047,90)"/>
<path d="M0 0 C1 4 1 4 1 4 Z " fill="#000102" transform="translate(389,88)"/>
<path d="M0 0 C3 1 3 1 3 1 Z " fill="#000102" transform="translate(1023,313)"/>
<path d="M0 0 C3 1 3 1 3 1 Z " fill="#000102" transform="translate(51,313)"/>
<path d="M0 0 C3 1 3 1 3 1 Z " fill="#000102" transform="translate(390,293)"/>
<path d="M0 0 C3 1 3 1 3 1 Z " fill="#000102" transform="translate(257,293)"/>
<path d="" fill="#000102" transform="translate(0,0)"/>
<path d="" fill="#000102" transform="translate(0,0)"/>
<path d="" fill="#000102" transform="translate(0,0)"/>
<path d="M0 0 C3 1 3 1 3 1 Z " fill="#000102" transform="translate(303,255)"/>
<path d="" fill="#000102" transform="translate(0,0)"/>
<path d="M0 0 C3 1 3 1 3 1 Z " fill="#000102" transform="translate(732,155)"/>
<path d="M0 0 C3 1 3 1 3 1 Z " fill="#000102" transform="translate(224,155)"/>
<path d="M0 0 C3 1 3 1 3 1 Z " fill="#000102" transform="translate(114,155)"/>
<path d="" fill="#000102" transform="translate(0,0)"/>
<path d="" fill="#000102" transform="translate(0,0)"/>
<path d="" fill="#000102" transform="translate(0,0)"/>
<path d="" fill="#000102" transform="translate(0,0)"/>
<path d="" fill="#000102" transform="translate(0,0)"/>
<path d="" fill="#000102" transform="translate(0,0)"/>
<path d="" fill="#002338" transform="translate(0,0)"/>
<path d="" fill="#000102" transform="translate(0,0)"/>
<path d="" fill="#000102" transform="translate(0,0)"/>
<path d="" fill="#000102" transform="translate(0,0)"/>
<path d="M0 0 C3 1 3 1 3 1 Z " fill="#000102" transform="translate(277,105)"/>
<path d="" fill="#000102" transform="translate(0,0)"/>
<path d="M0 0 C0.66 0 1.32 0 2 0 C1.67 0.66 1.34 1.32 1 2 C0.67 1.34 0.34 0.68 0 0 Z " fill="#000102" transform="translate(634,99)"/>
<path d="M0 0 C3 1 3 1 3 1 Z " fill="#000102" transform="translate(1178,90)"/>
<path d="M0 0 C3 1 3 1 3 1 Z " fill="#000102" transform="translate(977,90)"/>
<path d="M0 0 C3 1 3 1 3 1 Z " fill="#000102" transform="translate(52,90)"/>
<path d="" fill="#000102" transform="translate(0,0)"/>
<path d="M0 0 C3 1 3 1 3 1 Z " fill="#68BD70" transform="translate(1178,88)"/>
<path d="" fill="#000102" transform="translate(0,0)"/>
<path d="M0 0 C0.66 0.66 1.32 1.32 2 2 C1.34 2 0.68 2 0 2 C0 1.34 0 0.68 0 0 Z " fill="#000102" transform="translate(1091,73)"/>
<path d="M0 0 C0.66 0.66 1.32 1.32 2 2 C1.34 2 0.68 2 0 2 C0 1.34 0 0.68 0 0 Z " fill="#000102" transform="translate(594,68)"/>
<path d="M0 0 C3 1 3 1 3 1 Z " fill="#000102" transform="translate(1063,35)"/>
<path d="M0 0 C2 1 2 1 2 1 Z " fill="#000102" transform="translate(1135,373)"/>
<path d="M0 0 C2 1 2 1 2 1 Z " fill="#000102" transform="translate(1091,373)"/>
<path d="" fill="#000102" transform="translate(0,0)"/>
<path d="M0 0 C2 1 2 1 2 1 Z " fill="#000102" transform="translate(1244,313)"/>
<path d="M0 0 C2 1 2 1 2 1 Z " fill="#000102" transform="translate(981,313)"/>
<path d="M0 0 C2 1 2 1 2 1 Z " fill="#000102" transform="translate(20,310)"/>
<path d="M0 0 C2 1 2 1 2 1 Z " fill="#000102" transform="translate(971,308)"/>
<path d="M0 0 C2 1 2 1 2 1 Z " fill="#4AB57B" transform="translate(1039,306)"/>
<path d="M0 0 C2 1 2 1 2 1 Z " fill="#000102" transform="translate(1141,302)"/>
<path d="M0 0 C2 1 2 1 2 1 Z " fill="#000102" transform="translate(253,300)"/>
<path d="M0 0 C2 1 2 1 2 1 Z " fill="#000102" transform="translate(788,295)"/>
<path d="M0 0 C2 1 2 1 2 1 Z " fill="#000102" transform="translate(771,295)"/>
<path d="M0 0 C2 1 2 1 2 1 Z " fill="#000102" transform="translate(736,293)"/>
<path d="M0 0 C2 1 2 1 2 1 Z " fill="#000102" transform="translate(532,293)"/>
<path d="M0 0 C2 1 2 1 2 1 Z " fill="#000102" transform="translate(492,293)"/>
<path d="M0 0 C2 1 2 1 2 1 Z " fill="#000102" transform="translate(242,293)"/>
<path d="M0 0 C2 1 2 1 2 1 Z " fill="#000102" transform="translate(80,293)"/>
<path d="" fill="#51C088" transform="translate(0,0)"/>
<path d="" fill="#000102" transform="translate(0,0)"/>
<path d="" fill="#000102" transform="translate(0,0)"/>
<path d="" fill="#4AB57B" transform="translate(0,0)"/>
<path d="" fill="#000102" transform="translate(0,0)"/>
<path d="" fill="#000102" transform="translate(0,0)"/>
<path d="" fill="#000102" transform="translate(0,0)"/>
<path d="" fill="#000102" transform="translate(0,0)"/>
<path d="M0 0 C2 1 2 1 2 1 Z " fill="#000102" transform="translate(253,245)"/>
<path d="" fill="#7FCB89" transform="translate(0,0)"/>
<path d="" fill="#000102" transform="translate(0,0)"/>
<path d="" fill="#106E53" transform="translate(0,0)"/>
<path d="M0 0 C2 1 2 1 2 1 Z " fill="#000102" transform="translate(771,155)"/>
<path d="M0 0 C2 1 2 1 2 1 Z " fill="#000102" transform="translate(480,155)"/>
<path d="M0 0 C2 1 2 1 2 1 Z " fill="#000102" transform="translate(444,155)"/>
<path d="M0 0 C2 1 2 1 2 1 Z " fill="#000102" transform="translate(415,155)"/>
<path d="M0 0 C2 1 2 1 2 1 Z " fill="#000102" transform="translate(302,155)"/>
<path d="M0 0 C2 1 2 1 2 1 Z " fill="#000102" transform="translate(291,155)"/>
<path d="M0 0 C2 1 2 1 2 1 Z " fill="#000102" transform="translate(213,155)"/>
<path d="M0 0 C2 1 2 1 2 1 Z " fill="#000102" transform="translate(183,155)"/>
<path d="" fill="#000102" transform="translate(0,0)"/>
<path d="" fill="#000102" transform="translate(0,0)"/>
<path d="" fill="#000102" transform="translate(0,0)"/>
<path d="" fill="#000102" transform="translate(0,0)"/>
<path d="" fill="#000102" transform="translate(0,0)"/>
<path d="" fill="#000102" transform="translate(0,0)"/>
<path d="" fill="#000102" transform="translate(0,0)"/>
<path d="" fill="#000102" transform="translate(0,0)"/>
<path d="" fill="#000102" transform="translate(0,0)"/>
<path d="M0 0 C2 1 2 1 2 1 Z " fill="#000102" transform="translate(175,107)"/>
<path d="M0 0 C2 1 2 1 2 1 Z " fill="#000102" transform="translate(162,107)"/>
<path d="" fill="#000102" transform="translate(0,0)"/>
<path d="M0 0 C2 1 2 1 2 1 Z " fill="#B4FBB6" transform="translate(1157,98)"/>
<path d="M0 0 C2 1 2 1 2 1 Z " fill="#84E596" transform="translate(1167,93)"/>
<path d="M0 0 C2 1 2 1 2 1 Z " fill="#B4FBB6" transform="translate(1060,93)"/>
<path d="" fill="#000102" transform="translate(0,0)"/>
<path d="M0 0 C2 1 2 1 2 1 Z " fill="#B4FBB6" transform="translate(1182,88)"/>
<path d="" fill="#000102" transform="translate(0,0)"/>
<path d="" fill="#000102" transform="translate(0,0)"/>
<path d="" fill="#000102" transform="translate(0,0)"/>
<path d="M0 0 C2 1 2 1 2 1 Z " fill="#000102" transform="translate(1163,35)"/>
<path d="" fill="#4B9C5C" transform="translate(0,0)"/>
<path d="" fill="#000102" transform="translate(0,0)"/>
<path d="" fill="#000102" transform="translate(0,0)"/>
<path d="" fill="#000102" transform="translate(0,0)"/>
<path d="" fill="#84E596" transform="translate(0,0)"/>
<path d="" fill="#000102" transform="translate(0,0)"/>
<path d="" fill="#77CE7B" transform="translate(0,0)"/>
<path d="" fill="#000102" transform="translate(0,0)"/>
<path d="" fill="#000102" transform="translate(0,0)"/>
<path d="" fill="#77CE7B" transform="translate(0,0)"/>
<path d="" fill="#000102" transform="translate(0,0)"/>
<path d="" fill="#77CE7B" transform="translate(0,0)"/>
<path d="" fill="#000102" transform="translate(0,0)"/>
<path d="" fill="#000102" transform="translate(0,0)"/>
<path d="" fill="#000102" transform="translate(0,0)"/>
<path d="" fill="#000102" transform="translate(0,0)"/>
<path d="" fill="#000102" transform="translate(0,0)"/>
<path d="" fill="#000102" transform="translate(0,0)"/>
<path d="" fill="#77CE7B" transform="translate(0,0)"/>
<path d="" fill="#000102" transform="translate(0,0)"/>
<path d="" fill="#0B3E59" transform="translate(0,0)"/>
<path d="" fill="#000102" transform="translate(0,0)"/>
<path d="" fill="#84E596" transform="translate(0,0)"/>
<path d="" fill="#77CE7B" transform="translate(0,0)"/>
<path d="" fill="#B4FBB6" transform="translate(0,0)"/>
<path d="" fill="#106E53" transform="translate(0,0)"/>
<path d="" fill="#000102" transform="translate(0,0)"/>
<path d="" fill="#000102" transform="translate(0,0)"/>
<path d="" fill="#000102" transform="translate(0,0)"/>
<path d="" fill="#000102" transform="translate(0,0)"/>
<path d="" fill="#000102" transform="translate(0,0)"/>
<path d="" fill="#000102" transform="translate(0,0)"/>
<path d="" fill="#000102" transform="translate(0,0)"/>
<path d="" fill="#000102" transform="translate(0,0)"/>
<path d="" fill="#000102" transform="translate(0,0)"/>
<path d="" fill="#000102" transform="translate(0,0)"/>
<path d="" fill="#000102" transform="translate(0,0)"/>
<path d="" fill="#000102" transform="translate(0,0)"/>
<path d="" fill="#000102" transform="translate(0,0)"/>
<path d="" fill="#000102" transform="translate(0,0)"/>
<path d="" fill="#106E53" transform="translate(0,0)"/>
<path d="" fill="#000102" transform="translate(0,0)"/>
<path d="" fill="#0F3B1B" transform="translate(0,0)"/>
<path d="" fill="#000102" transform="translate(0,0)"/>
<path d="" fill="#000102" transform="translate(0,0)"/>
<path d="" fill="#000102" transform="translate(0,0)"/>
<path d="" fill="#000102" transform="translate(0,0)"/>
<path d="" fill="#106E53" transform="translate(0,0)"/>
<path d="" fill="#000102" transform="translate(0,0)"/>
<path d="" fill="#000102" transform="translate(0,0)"/>
<path d="" fill="#000102" transform="translate(0,0)"/>
<path d="" fill="#000102" transform="translate(0,0)"/>
<path d="" fill="#000102" transform="translate(0,0)"/>
<path d="" fill="#000102" transform="translate(0,0)"/>
<path d="" fill="#77CE7B" transform="translate(0,0)"/>
<path d="" fill="#106E53" transform="translate(0,0)"/>
<path d="" fill="#0F3B1B" transform="translate(0,0)"/>
<path d="" fill="#000102" transform="translate(0,0)"/>
<path d="" fill="#000102" transform="translate(0,0)"/>
<path d="" fill="#000102" transform="translate(0,0)"/>
<path d="" fill="#000102" transform="translate(0,0)"/>
<path d="" fill="#000102" transform="translate(0,0)"/>
<path d="" fill="#77CE7B" transform="translate(0,0)"/>
<path d="" fill="#106E53" transform="translate(0,0)"/>
<path d="" fill="#002338" transform="translate(0,0)"/>
<path d="" fill="#000102" transform="translate(0,0)"/>
<path d="" fill="#000102" transform="translate(0,0)"/>
<path d="" fill="#000102" transform="translate(0,0)"/>
<path d="" fill="#000102" transform="translate(0,0)"/>
<path d="" fill="#000102" transform="translate(0,0)"/>
<path d="" fill="#000102" transform="translate(0,0)"/>
<path d="" fill="#000102" transform="translate(0,0)"/>
<path d="" fill="#000102" transform="translate(0,0)"/>
<path d="" fill="#000102" transform="translate(0,0)"/>
<path d="" fill="#000102" transform="translate(0,0)"/>
<path d="" fill="#000102" transform="translate(0,0)"/>
<path d="" fill="#000102" transform="translate(0,0)"/>
<path d="" fill="#000102" transform="translate(0,0)"/>
<path d="" fill="#000102" transform="translate(0,0)"/>
<path d="" fill="#000102" transform="translate(0,0)"/>
<path d="" fill="#000102" transform="translate(0,0)"/>
<path d="" fill="#000102" transform="translate(0,0)"/>
<path d="" fill="#000102" transform="translate(0,0)"/>
<path d="" fill="#000102" transform="translate(0,0)"/>
<path d="" fill="#000102" transform="translate(0,0)"/>
<path d="" fill="#000102" transform="translate(0,0)"/>
<path d="" fill="#000102" transform="translate(0,0)"/>
<path d="" fill="#000102" transform="translate(0,0)"/>
<path d="" fill="#000102" transform="translate(0,0)"/>
<path d="" fill="#000102" transform="translate(0,0)"/>
<path d="" fill="#000102" transform="translate(0,0)"/>
<path d="" fill="#000102" transform="translate(0,0)"/>
<path d="" fill="#000102" transform="translate(0,0)"/>
<path d="" fill="#000102" transform="translate(0,0)"/>
<path d="" fill="#000102" transform="translate(0,0)"/>
<path d="" fill="#77CE7B" transform="translate(0,0)"/>
<path d="" fill="#000102" transform="translate(0,0)"/>
<path d="" fill="#0B3E59" transform="translate(0,0)"/>
<path d="" fill="#000102" transform="translate(0,0)"/>
<path d="" fill="#000102" transform="translate(0,0)"/>
<path d="" fill="#000102" transform="translate(0,0)"/>
<path d="" fill="#000102" transform="translate(0,0)"/>
<path d="" fill="#000102" transform="translate(0,0)"/>
<path d="" fill="#000102" transform="translate(0,0)"/>
<path d="" fill="#000102" transform="translate(0,0)"/>
<path d="" fill="#000102" transform="translate(0,0)"/>
<path d="" fill="#002338" transform="translate(0,0)"/>
<path d="" fill="#000102" transform="translate(0,0)"/>
<path d="" fill="#000102" transform="translate(0,0)"/>
<path d="" fill="#0F3B1B" transform="translate(0,0)"/>
<path d="" fill="#000102" transform="translate(0,0)"/>
<path d="" fill="#000102" transform="translate(0,0)"/>
<path d="" fill="#000102" transform="translate(0,0)"/>
<path d="" fill="#000102" transform="translate(0,0)"/>
<path d="" fill="#000102" transform="translate(0,0)"/>
<path d="" fill="#000102" transform="translate(0,0)"/>
<path d="" fill="#000102" transform="translate(0,0)"/>
<path d="" fill="#0F3B1B" transform="translate(0,0)"/>
<path d="" fill="#000102" transform="translate(0,0)"/>
<path d="" fill="#000102" transform="translate(0,0)"/>
<path d="" fill="#000102" transform="translate(0,0)"/>
<path d="" fill="#000102" transform="translate(0,0)"/>
<path d="" fill="#000102" transform="translate(0,0)"/>
<path d="" fill="#000102" transform="translate(0,0)"/>
<path d="" fill="#002338" transform="translate(0,0)"/>
<path d="" fill="#000102" transform="translate(0,0)"/>
<path d="" fill="#000102" transform="translate(0,0)"/>
<path d="" fill="#000102" transform="translate(0,0)"/>
<path d="" fill="#000102" transform="translate(0,0)"/>
<path d="" fill="#84E596" transform="translate(0,0)"/>
<path d="" fill="#000102" transform="translate(0,0)"/>
<path d="" fill="#000102" transform="translate(0,0)"/>
<path d="" fill="#000102" transform="translate(0,0)"/>
<path d="" fill="#000102" transform="translate(0,0)"/>
<path d="" fill="#000102" transform="translate(0,0)"/>
<path d="" fill="#000102" transform="translate(0,0)"/>
<path d="" fill="#000102" transform="translate(0,0)"/>
<path d="" fill="#000102" transform="translate(0,0)"/>
<path d="" fill="#000102" transform="translate(0,0)"/>
<path d="" fill="#000102" transform="translate(0,0)"/>
<path d="" fill="#000102" transform="translate(0,0)"/>
<path d="" fill="#000102" transform="translate(0,0)"/>
<path d="" fill="#000102" transform="translate(0,0)"/>
<path d="" fill="#000102" transform="translate(0,0)"/>
<path d="" fill="#000102" transform="translate(0,0)"/>
</svg>
