<svg width="254" height="311" viewBox="0 0 254 311" fill="none" xmlns="http://www.w3.org/2000/svg">
<g clip-path="url(#clip0_60_4048)">
<path d="M207.186 80.5C207.186 96.3897 202.469 111.842 193.546 125.188C192.334 127.002 190.341 127.982 188.312 127.982C187.111 127.982 185.896 127.64 184.823 126.921C181.935 124.991 181.16 121.085 183.089 118.198C190.625 106.928 194.607 93.8925 194.607 80.5C194.607 74.7453 193.888 69.0298 192.468 63.5146C191.602 60.1514 193.627 56.7219 196.99 55.856C200.356 54.9912 203.783 57.0155 204.649 60.3787C206.332 66.9183 207.186 73.6877 207.186 80.5ZM161.821 138.641C151.257 145.039 139.108 148.422 126.686 148.422C89.2337 148.422 58.7637 117.952 58.7637 80.5C58.7637 43.0481 89.2337 12.5781 126.686 12.5781C140.552 12.5781 153.886 16.7274 165.247 24.5777C168.104 26.5516 172.021 25.8355 173.996 22.9784C175.97 20.1213 175.255 16.2041 172.397 14.229C158.924 4.92067 143.118 -3.05176e-05 126.686 -3.05176e-05C105.184 -3.05176e-05 84.9677 8.37352 69.7634 23.5778C54.5591 38.7821 46.1855 58.998 46.1855 80.5C46.1855 102.002 54.5591 122.218 69.7634 137.422C84.9677 152.626 105.184 161 126.686 161C141.406 161 155.809 156.988 168.338 149.398C171.31 147.599 172.259 143.732 170.46 140.761C168.659 137.789 164.792 136.841 161.821 138.641ZM127.292 98.7358C126.296 98.7751 125.366 98.4214 124.644 97.7335L91.7063 66.5031C89.1858 64.1128 85.2048 64.2184 82.8157 66.739C80.4253 69.2595 80.531 73.2406 83.0515 75.6297L115.983 106.855C119.024 109.747 122.959 111.316 127.128 111.316C127.351 111.316 127.575 111.312 127.798 111.303C132.214 111.125 136.27 109.214 139.218 105.92C139.293 105.838 139.364 105.753 139.434 105.666L205.798 23.1221C207.974 20.4149 207.544 16.4559 204.837 14.2806C202.131 12.104 198.171 12.5339 195.994 15.2411L129.761 97.6242C129.11 98.3035 128.238 98.6978 127.292 98.7358Z" fill="#00263A"/>
</g>
<path d="M32.6616 203.36C32.6616 204.107 32.4816 204.807 32.1216 205.46C31.7749 206.113 31.2216 206.64 30.4616 207.04C29.7149 207.44 28.7682 207.64 27.6216 207.64H25.2816V213H22.4816V199.04H27.6216C28.7016 199.04 29.6216 199.227 30.3816 199.6C31.1416 199.973 31.7082 200.487 32.0816 201.14C32.4682 201.793 32.6616 202.533 32.6616 203.36ZM27.5016 205.38C28.2749 205.38 28.8482 205.207 29.2216 204.86C29.5949 204.5 29.7816 204 29.7816 203.36C29.7816 202 29.0216 201.32 27.5016 201.32H25.2816V205.38H27.5016ZM33.9295 207.42C33.9295 206.3 34.1495 205.307 34.5895 204.44C35.0429 203.573 35.6495 202.907 36.4095 202.44C37.1829 201.973 38.0429 201.74 38.9895 201.74C39.8162 201.74 40.5362 201.907 41.1495 202.24C41.7762 202.573 42.2762 202.993 42.6495 203.5V201.92H45.4695V213H42.6495V211.38C42.2895 211.9 41.7895 212.333 41.1495 212.68C40.5229 213.013 39.7962 213.18 38.9695 213.18C38.0362 213.18 37.1829 212.94 36.4095 212.46C35.6495 211.98 35.0429 211.307 34.5895 210.44C34.1495 209.56 33.9295 208.553 33.9295 207.42ZM42.6495 207.46C42.6495 206.78 42.5162 206.2 42.2495 205.72C41.9829 205.227 41.6229 204.853 41.1695 204.6C40.7162 204.333 40.2295 204.2 39.7095 204.2C39.1895 204.2 38.7095 204.327 38.2695 204.58C37.8295 204.833 37.4695 205.207 37.1895 205.7C36.9229 206.18 36.7895 206.753 36.7895 207.42C36.7895 208.087 36.9229 208.673 37.1895 209.18C37.4695 209.673 37.8295 210.053 38.2695 210.32C38.7229 210.587 39.2029 210.72 39.7095 210.72C40.2295 210.72 40.7162 210.593 41.1695 210.34C41.6229 210.073 41.9829 209.7 42.2495 209.22C42.5162 208.727 42.6495 208.14 42.6495 207.46ZM52.4442 213.18C51.5376 213.18 50.7242 213.02 50.0042 212.7C49.2842 212.367 48.7109 211.92 48.2842 211.36C47.8709 210.8 47.6442 210.18 47.6042 209.5H50.4242C50.4776 209.927 50.6842 210.28 51.0442 210.56C51.4176 210.84 51.8776 210.98 52.4242 210.98C52.9576 210.98 53.3709 210.873 53.6642 210.66C53.9709 210.447 54.1242 210.173 54.1242 209.84C54.1242 209.48 53.9376 209.213 53.5642 209.04C53.2042 208.853 52.6242 208.653 51.8242 208.44C50.9976 208.24 50.3176 208.033 49.7842 207.82C49.2642 207.607 48.8109 207.28 48.4242 206.84C48.0509 206.4 47.8642 205.807 47.8642 205.06C47.8642 204.447 48.0376 203.887 48.3842 203.38C48.7442 202.873 49.2509 202.473 49.9042 202.18C50.5709 201.887 51.3509 201.74 52.2442 201.74C53.5642 201.74 54.6176 202.073 55.4042 202.74C56.1909 203.393 56.6242 204.28 56.7042 205.4H54.0242C53.9842 204.96 53.7976 204.613 53.4642 204.36C53.1442 204.093 52.7109 203.96 52.1642 203.96C51.6576 203.96 51.2642 204.053 50.9842 204.24C50.7176 204.427 50.5842 204.687 50.5842 205.02C50.5842 205.393 50.7709 205.68 51.1442 205.88C51.5176 206.067 52.0976 206.26 52.8842 206.46C53.6842 206.66 54.3442 206.867 54.8642 207.08C55.3842 207.293 55.8309 207.627 56.2042 208.08C56.5909 208.52 56.7909 209.107 56.8042 209.84C56.8042 210.48 56.6242 211.053 56.2642 211.56C55.9176 212.067 55.4109 212.467 54.7442 212.76C54.0909 213.04 53.3242 213.18 52.4442 213.18ZM63.3427 213.18C62.436 213.18 61.6227 213.02 60.9027 212.7C60.1827 212.367 59.6093 211.92 59.1827 211.36C58.7693 210.8 58.5427 210.18 58.5027 209.5H61.3227C61.376 209.927 61.5827 210.28 61.9427 210.56C62.316 210.84 62.776 210.98 63.3227 210.98C63.856 210.98 64.2693 210.873 64.5627 210.66C64.8693 210.447 65.0227 210.173 65.0227 209.84C65.0227 209.48 64.836 209.213 64.4627 209.04C64.1027 208.853 63.5227 208.653 62.7227 208.44C61.896 208.24 61.216 208.033 60.6827 207.82C60.1627 207.607 59.7093 207.28 59.3227 206.84C58.9493 206.4 58.7627 205.807 58.7627 205.06C58.7627 204.447 58.936 203.887 59.2827 203.38C59.6427 202.873 60.1493 202.473 60.8027 202.18C61.4693 201.887 62.2493 201.74 63.1427 201.74C64.4627 201.74 65.516 202.073 66.3027 202.74C67.0893 203.393 67.5227 204.28 67.6027 205.4H64.9227C64.8827 204.96 64.696 204.613 64.3627 204.36C64.0427 204.093 63.6093 203.96 63.0627 203.96C62.556 203.96 62.1627 204.053 61.8827 204.24C61.616 204.427 61.4827 204.687 61.4827 205.02C61.4827 205.393 61.6693 205.68 62.0427 205.88C62.416 206.067 62.996 206.26 63.7827 206.46C64.5827 206.66 65.2427 206.867 65.7627 207.08C66.2827 207.293 66.7293 207.627 67.1027 208.08C67.4893 208.52 67.6893 209.107 67.7027 209.84C67.7027 210.48 67.5227 211.053 67.1627 211.56C66.816 212.067 66.3093 212.467 65.6427 212.76C64.9893 213.04 64.2227 213.18 63.3427 213.18ZM85.3611 201.92L82.1211 213H79.1011L77.0811 205.26L75.0611 213H72.0211L68.7611 201.92H71.6011L73.5611 210.36L75.6811 201.92H78.6411L80.7211 210.34L82.6811 201.92H85.3611ZM91.7961 213.18C90.7294 213.18 89.7694 212.947 88.9161 212.48C88.0628 212 87.3894 211.327 86.8961 210.46C86.4161 209.593 86.1761 208.593 86.1761 207.46C86.1761 206.327 86.4228 205.327 86.9161 204.46C87.4228 203.593 88.1094 202.927 88.9761 202.46C89.8428 201.98 90.8094 201.74 91.8761 201.74C92.9428 201.74 93.9094 201.98 94.7761 202.46C95.6428 202.927 96.3228 203.593 96.8161 204.46C97.3228 205.327 97.5761 206.327 97.5761 207.46C97.5761 208.593 97.3161 209.593 96.7961 210.46C96.2894 211.327 95.5961 212 94.7161 212.48C93.8494 212.947 92.8761 213.18 91.7961 213.18ZM91.7961 210.74C92.3028 210.74 92.7761 210.62 93.2161 210.38C93.6694 210.127 94.0294 209.753 94.2961 209.26C94.5628 208.767 94.6961 208.167 94.6961 207.46C94.6961 206.407 94.4161 205.6 93.8561 205.04C93.3094 204.467 92.6361 204.18 91.8361 204.18C91.0361 204.18 90.3628 204.467 89.8161 205.04C89.2828 205.6 89.0161 206.407 89.0161 207.46C89.0161 208.513 89.2761 209.327 89.7961 209.9C90.3294 210.46 90.9961 210.74 91.7961 210.74ZM102.43 203.64C102.79 203.053 103.257 202.593 103.83 202.26C104.417 201.927 105.083 201.76 105.83 201.76V204.7H105.09C104.21 204.7 103.543 204.907 103.09 205.32C102.65 205.733 102.43 206.453 102.43 207.48V213H99.63V201.92H102.43V203.64ZM106.996 207.42C106.996 206.3 107.216 205.307 107.656 204.44C108.109 203.573 108.723 202.907 109.496 202.44C110.269 201.973 111.129 201.74 112.076 201.74C112.796 201.74 113.483 201.9 114.136 202.22C114.789 202.527 115.309 202.94 115.696 203.46V198.2H118.536V213H115.696V211.36C115.349 211.907 114.863 212.347 114.236 212.68C113.609 213.013 112.883 213.18 112.056 213.18C111.123 213.18 110.269 212.94 109.496 212.46C108.723 211.98 108.109 211.307 107.656 210.44C107.216 209.56 106.996 208.553 106.996 207.42ZM115.716 207.46C115.716 206.78 115.583 206.2 115.316 205.72C115.049 205.227 114.689 204.853 114.236 204.6C113.783 204.333 113.296 204.2 112.776 204.2C112.256 204.2 111.776 204.327 111.336 204.58C110.896 204.833 110.536 205.207 110.256 205.7C109.989 206.18 109.856 206.753 109.856 207.42C109.856 208.087 109.989 208.673 110.256 209.18C110.536 209.673 110.896 210.053 111.336 210.32C111.789 210.587 112.269 210.72 112.776 210.72C113.296 210.72 113.783 210.593 114.236 210.34C114.689 210.073 115.049 209.7 115.316 209.22C115.583 208.727 115.716 208.14 115.716 207.46ZM133.236 213L130.156 207.56H128.836V213H126.036V199.04H131.276C132.356 199.04 133.276 199.233 134.036 199.62C134.796 199.993 135.363 200.507 135.736 201.16C136.123 201.8 136.316 202.52 136.316 203.32C136.316 204.24 136.05 205.073 135.516 205.82C134.983 206.553 134.19 207.06 133.136 207.34L136.476 213H133.236ZM128.836 205.46H131.176C131.936 205.46 132.503 205.28 132.876 204.92C133.25 204.547 133.436 204.033 133.436 203.38C133.436 202.74 133.25 202.247 132.876 201.9C132.503 201.54 131.936 201.36 131.176 201.36H128.836V205.46ZM149.149 207.22C149.149 207.62 149.122 207.98 149.069 208.3H140.969C141.035 209.1 141.315 209.727 141.809 210.18C142.302 210.633 142.909 210.86 143.629 210.86C144.669 210.86 145.409 210.413 145.849 209.52H148.869C148.549 210.587 147.935 211.467 147.029 212.16C146.122 212.84 145.009 213.18 143.689 213.18C142.622 213.18 141.662 212.947 140.809 212.48C139.969 212 139.309 211.327 138.829 210.46C138.362 209.593 138.129 208.593 138.129 207.46C138.129 206.313 138.362 205.307 138.829 204.44C139.295 203.573 139.949 202.907 140.789 202.44C141.629 201.973 142.595 201.74 143.689 201.74C144.742 201.74 145.682 201.967 146.509 202.42C147.349 202.873 147.995 203.52 148.449 204.36C148.915 205.187 149.149 206.14 149.149 207.22ZM146.249 206.42C146.235 205.7 145.975 205.127 145.469 204.7C144.962 204.26 144.342 204.04 143.609 204.04C142.915 204.04 142.329 204.253 141.849 204.68C141.382 205.093 141.095 205.673 140.989 206.42H146.249ZM150.472 207.46C150.472 206.313 150.706 205.313 151.173 204.46C151.639 203.593 152.286 202.927 153.113 202.46C153.939 201.98 154.886 201.74 155.953 201.74C157.326 201.74 158.459 202.087 159.353 202.78C160.259 203.46 160.866 204.42 161.173 205.66H158.153C157.993 205.18 157.719 204.807 157.333 204.54C156.959 204.26 156.493 204.12 155.933 204.12C155.133 204.12 154.499 204.413 154.033 205C153.566 205.573 153.333 206.393 153.333 207.46C153.333 208.513 153.566 209.333 154.033 209.92C154.499 210.493 155.133 210.78 155.933 210.78C157.066 210.78 157.806 210.273 158.153 209.26H161.173C160.866 210.46 160.259 211.413 159.353 212.12C158.446 212.827 157.313 213.18 155.953 213.18C154.886 213.18 153.939 212.947 153.113 212.48C152.286 212 151.639 211.333 151.173 210.48C150.706 209.613 150.472 208.607 150.472 207.46ZM168.144 213.18C167.077 213.18 166.117 212.947 165.264 212.48C164.41 212 163.737 211.327 163.244 210.46C162.764 209.593 162.524 208.593 162.524 207.46C162.524 206.327 162.77 205.327 163.264 204.46C163.77 203.593 164.457 202.927 165.324 202.46C166.19 201.98 167.157 201.74 168.224 201.74C169.29 201.74 170.257 201.98 171.124 202.46C171.99 202.927 172.67 203.593 173.164 204.46C173.67 205.327 173.924 206.327 173.924 207.46C173.924 208.593 173.664 209.593 173.144 210.46C172.637 211.327 171.944 212 171.064 212.48C170.197 212.947 169.224 213.18 168.144 213.18ZM168.144 210.74C168.65 210.74 169.124 210.62 169.564 210.38C170.017 210.127 170.377 209.753 170.644 209.26C170.91 208.767 171.044 208.167 171.044 207.46C171.044 206.407 170.764 205.6 170.204 205.04C169.657 204.467 168.984 204.18 168.184 204.18C167.384 204.18 166.71 204.467 166.164 205.04C165.63 205.6 165.364 206.407 165.364 207.46C165.364 208.513 165.624 209.327 166.144 209.9C166.677 210.46 167.344 210.74 168.144 210.74ZM180.598 210.42L183.398 201.92H186.378L182.278 213H178.878L174.798 201.92H177.798L180.598 210.42ZM198.25 207.22C198.25 207.62 198.224 207.98 198.17 208.3H190.07C190.137 209.1 190.417 209.727 190.91 210.18C191.404 210.633 192.01 210.86 192.73 210.86C193.77 210.86 194.51 210.413 194.95 209.52H197.97C197.65 210.587 197.037 211.467 196.13 212.16C195.224 212.84 194.11 213.18 192.79 213.18C191.724 213.18 190.764 212.947 189.91 212.48C189.07 212 188.41 211.327 187.93 210.46C187.464 209.593 187.23 208.593 187.23 207.46C187.23 206.313 187.464 205.307 187.93 204.44C188.397 203.573 189.05 202.907 189.89 202.44C190.73 201.973 191.697 201.74 192.79 201.74C193.844 201.74 194.784 201.967 195.61 202.42C196.45 202.873 197.097 203.52 197.55 204.36C198.017 205.187 198.25 206.14 198.25 207.22ZM195.35 206.42C195.337 205.7 195.077 205.127 194.57 204.7C194.064 204.26 193.444 204.04 192.71 204.04C192.017 204.04 191.43 204.253 190.95 204.68C190.484 205.093 190.197 205.673 190.09 206.42H195.35ZM203.094 203.64C203.454 203.053 203.921 202.593 204.494 202.26C205.081 201.927 205.747 201.76 206.494 201.76V204.7H205.754C204.874 204.7 204.207 204.907 203.754 205.32C203.314 205.733 203.094 206.453 203.094 207.48V213H200.294V201.92H203.094V203.64ZM218.68 207.22C218.68 207.62 218.653 207.98 218.6 208.3H210.5C210.567 209.1 210.847 209.727 211.34 210.18C211.833 210.633 212.44 210.86 213.16 210.86C214.2 210.86 214.94 210.413 215.38 209.52H218.4C218.08 210.587 217.467 211.467 216.56 212.16C215.653 212.84 214.54 213.18 213.22 213.18C212.153 213.18 211.193 212.947 210.34 212.48C209.5 212 208.84 211.327 208.36 210.46C207.893 209.593 207.66 208.593 207.66 207.46C207.66 206.313 207.893 205.307 208.36 204.44C208.827 203.573 209.48 202.907 210.32 202.44C211.16 201.973 212.127 201.74 213.22 201.74C214.273 201.74 215.213 201.967 216.04 202.42C216.88 202.873 217.527 203.52 217.98 204.36C218.447 205.187 218.68 206.14 218.68 207.22ZM215.78 206.42C215.767 205.7 215.507 205.127 215 204.7C214.493 204.26 213.873 204.04 213.14 204.04C212.447 204.04 211.86 204.253 211.38 204.68C210.913 205.093 210.627 205.673 210.52 206.42H215.78ZM220.004 207.42C220.004 206.3 220.224 205.307 220.664 204.44C221.117 203.573 221.73 202.907 222.504 202.44C223.277 201.973 224.137 201.74 225.084 201.74C225.804 201.74 226.49 201.9 227.144 202.22C227.797 202.527 228.317 202.94 228.704 203.46V198.2H231.544V213H228.704V211.36C228.357 211.907 227.87 212.347 227.244 212.68C226.617 213.013 225.89 213.18 225.064 213.18C224.13 213.18 223.277 212.94 222.504 212.46C221.73 211.98 221.117 211.307 220.664 210.44C220.224 209.56 220.004 208.553 220.004 207.42ZM228.724 207.46C228.724 206.78 228.59 206.2 228.324 205.72C228.057 205.227 227.697 204.853 227.244 204.6C226.79 204.333 226.304 204.2 225.784 204.2C225.264 204.2 224.784 204.327 224.344 204.58C223.904 204.833 223.544 205.207 223.264 205.7C222.997 206.18 222.864 206.753 222.864 207.42C222.864 208.087 222.997 208.673 223.264 209.18C223.544 209.673 223.904 210.053 224.344 210.32C224.797 210.587 225.277 210.72 225.784 210.72C226.304 210.72 226.79 210.593 227.244 210.34C227.697 210.073 228.057 209.7 228.324 209.22C228.59 208.727 228.724 208.14 228.724 207.46ZM66.1785 243.14C65.2052 243.14 64.3252 242.973 63.5385 242.64C62.7652 242.307 62.1518 241.827 61.6985 241.2C61.2452 240.573 61.0118 239.833 60.9985 238.98H63.9985C64.0385 239.553 64.2385 240.007 64.5985 240.34C64.9718 240.673 65.4785 240.84 66.1185 240.84C66.7718 240.84 67.2852 240.687 67.6585 240.38C68.0318 240.06 68.2185 239.647 68.2185 239.14C68.2185 238.727 68.0918 238.387 67.8385 238.12C67.5852 237.853 67.2652 237.647 66.8785 237.5C66.5052 237.34 65.9852 237.167 65.3185 236.98C64.4118 236.713 63.6718 236.453 63.0985 236.2C62.5385 235.933 62.0518 235.54 61.6385 235.02C61.2385 234.487 61.0385 233.78 61.0385 232.9C61.0385 232.073 61.2452 231.353 61.6585 230.74C62.0718 230.127 62.6518 229.66 63.3985 229.34C64.1452 229.007 64.9985 228.84 65.9585 228.84C67.3985 228.84 68.5652 229.193 69.4585 229.9C70.3652 230.593 70.8652 231.567 70.9585 232.82H67.8785C67.8518 232.34 67.6452 231.947 67.2585 231.64C66.8852 231.32 66.3852 231.16 65.7585 231.16C65.2118 231.16 64.7718 231.3 64.4385 231.58C64.1185 231.86 63.9585 232.267 63.9585 232.8C63.9585 233.173 64.0785 233.487 64.3185 233.74C64.5718 233.98 64.8785 234.18 65.2385 234.34C65.6118 234.487 66.1318 234.66 66.7985 234.86C67.7052 235.127 68.4452 235.393 69.0185 235.66C69.5918 235.927 70.0852 236.327 70.4985 236.86C70.9118 237.393 71.1185 238.093 71.1185 238.96C71.1185 239.707 70.9252 240.4 70.5385 241.04C70.1518 241.68 69.5852 242.193 68.8385 242.58C68.0918 242.953 67.2052 243.14 66.1785 243.14ZM84.006 231.92V243H81.186V241.6C80.826 242.08 80.3527 242.46 79.766 242.74C79.1927 243.007 78.566 243.14 77.886 243.14C77.0193 243.14 76.2527 242.96 75.586 242.6C74.9193 242.227 74.3927 241.687 74.006 240.98C73.6327 240.26 73.446 239.407 73.446 238.42V231.92H76.246V238.02C76.246 238.9 76.466 239.58 76.906 240.06C77.346 240.527 77.946 240.76 78.706 240.76C79.4793 240.76 80.086 240.527 80.526 240.06C80.966 239.58 81.186 238.9 81.186 238.02V231.92H84.006ZM86.0487 237.46C86.0487 236.313 86.282 235.313 86.7487 234.46C87.2153 233.593 87.862 232.927 88.6887 232.46C89.5153 231.98 90.462 231.74 91.5287 231.74C92.902 231.74 94.0353 232.087 94.9287 232.78C95.8353 233.46 96.442 234.42 96.7487 235.66H93.7287C93.5687 235.18 93.2953 234.807 92.9087 234.54C92.5353 234.26 92.0687 234.12 91.5087 234.12C90.7087 234.12 90.0753 234.413 89.6087 235C89.142 235.573 88.9087 236.393 88.9087 237.46C88.9087 238.513 89.142 239.333 89.6087 239.92C90.0753 240.493 90.7087 240.78 91.5087 240.78C92.642 240.78 93.382 240.273 93.7287 239.26H96.7487C96.442 240.46 95.8353 241.413 94.9287 242.12C94.022 242.827 92.8887 243.18 91.5287 243.18C90.462 243.18 89.5153 242.947 88.6887 242.48C87.862 242 87.2153 241.333 86.7487 240.48C86.282 239.613 86.0487 238.607 86.0487 237.46ZM98.0799 237.46C98.0799 236.313 98.3133 235.313 98.7799 234.46C99.2466 233.593 99.8933 232.927 100.72 232.46C101.547 231.98 102.493 231.74 103.56 231.74C104.933 231.74 106.067 232.087 106.96 232.78C107.867 233.46 108.473 234.42 108.78 235.66H105.76C105.6 235.18 105.327 234.807 104.94 234.54C104.567 234.26 104.1 234.12 103.54 234.12C102.74 234.12 102.107 234.413 101.64 235C101.173 235.573 100.94 236.393 100.94 237.46C100.94 238.513 101.173 239.333 101.64 239.92C102.107 240.493 102.74 240.78 103.54 240.78C104.673 240.78 105.413 240.273 105.76 239.26H108.78C108.473 240.46 107.867 241.413 106.96 242.12C106.053 242.827 104.92 243.18 103.56 243.18C102.493 243.18 101.547 242.947 100.72 242.48C99.8933 242 99.2466 241.333 98.7799 240.48C98.3133 239.613 98.0799 238.607 98.0799 237.46ZM121.131 237.22C121.131 237.62 121.105 237.98 121.051 238.3H112.951C113.018 239.1 113.298 239.727 113.791 240.18C114.285 240.633 114.891 240.86 115.611 240.86C116.651 240.86 117.391 240.413 117.831 239.52H120.851C120.531 240.587 119.918 241.467 119.011 242.16C118.105 242.84 116.991 243.18 115.671 243.18C114.605 243.18 113.645 242.947 112.791 242.48C111.951 242 111.291 241.327 110.811 240.46C110.345 239.593 110.111 238.593 110.111 237.46C110.111 236.313 110.345 235.307 110.811 234.44C111.278 233.573 111.931 232.907 112.771 232.44C113.611 231.973 114.578 231.74 115.671 231.74C116.725 231.74 117.665 231.967 118.491 232.42C119.331 232.873 119.978 233.52 120.431 234.36C120.898 235.187 121.131 236.14 121.131 237.22ZM118.231 236.42C118.218 235.7 117.958 235.127 117.451 234.7C116.945 234.26 116.325 234.04 115.591 234.04C114.898 234.04 114.311 234.253 113.831 234.68C113.365 235.093 113.078 235.673 112.971 236.42H118.231ZM127.415 243.18C126.508 243.18 125.695 243.02 124.975 242.7C124.255 242.367 123.682 241.92 123.255 241.36C122.842 240.8 122.615 240.18 122.575 239.5H125.395C125.448 239.927 125.655 240.28 126.015 240.56C126.388 240.84 126.848 240.98 127.395 240.98C127.928 240.98 128.342 240.873 128.635 240.66C128.942 240.447 129.095 240.173 129.095 239.84C129.095 239.48 128.908 239.213 128.535 239.04C128.175 238.853 127.595 238.653 126.795 238.44C125.968 238.24 125.288 238.033 124.755 237.82C124.235 237.607 123.782 237.28 123.395 236.84C123.022 236.4 122.835 235.807 122.835 235.06C122.835 234.447 123.008 233.887 123.355 233.38C123.715 232.873 124.222 232.473 124.875 232.18C125.542 231.887 126.322 231.74 127.215 231.74C128.535 231.74 129.588 232.073 130.375 232.74C131.162 233.393 131.595 234.28 131.675 235.4H128.995C128.955 234.96 128.768 234.613 128.435 234.36C128.115 234.093 127.682 233.96 127.135 233.96C126.628 233.96 126.235 234.053 125.955 234.24C125.688 234.427 125.555 234.687 125.555 235.02C125.555 235.393 125.742 235.68 126.115 235.88C126.488 236.067 127.068 236.26 127.855 236.46C128.655 236.66 129.315 236.867 129.835 237.08C130.355 237.293 130.802 237.627 131.175 238.08C131.562 238.52 131.762 239.107 131.775 239.84C131.775 240.48 131.595 241.053 131.235 241.56C130.888 242.067 130.382 242.467 129.715 242.76C129.062 243.04 128.295 243.18 127.415 243.18ZM138.313 243.18C137.407 243.18 136.593 243.02 135.873 242.7C135.153 242.367 134.58 241.92 134.153 241.36C133.74 240.8 133.513 240.18 133.473 239.5H136.293C136.347 239.927 136.553 240.28 136.913 240.56C137.287 240.84 137.747 240.98 138.293 240.98C138.827 240.98 139.24 240.873 139.533 240.66C139.84 240.447 139.993 240.173 139.993 239.84C139.993 239.48 139.807 239.213 139.433 239.04C139.073 238.853 138.493 238.653 137.693 238.44C136.867 238.24 136.187 238.033 135.653 237.82C135.133 237.607 134.68 237.28 134.293 236.84C133.92 236.4 133.733 235.807 133.733 235.06C133.733 234.447 133.907 233.887 134.253 233.38C134.613 232.873 135.12 232.473 135.773 232.18C136.44 231.887 137.22 231.74 138.113 231.74C139.433 231.74 140.487 232.073 141.273 232.74C142.06 233.393 142.493 234.28 142.573 235.4H139.893C139.853 234.96 139.667 234.613 139.333 234.36C139.013 234.093 138.58 233.96 138.033 233.96C137.527 233.96 137.133 234.053 136.853 234.24C136.587 234.427 136.453 234.687 136.453 235.02C136.453 235.393 136.64 235.68 137.013 235.88C137.387 236.067 137.967 236.26 138.753 236.46C139.553 236.66 140.213 236.867 140.733 237.08C141.253 237.293 141.7 237.627 142.073 238.08C142.46 238.52 142.66 239.107 142.673 239.84C142.673 240.48 142.493 241.053 142.133 241.56C141.787 242.067 141.28 242.467 140.613 242.76C139.96 243.04 139.193 243.18 138.313 243.18ZM150.052 234.22H148.112V243H145.272V234.22H144.012V231.92H145.272V231.36C145.272 230 145.658 229 146.432 228.36C147.205 227.72 148.372 227.42 149.932 227.46V229.82C149.252 229.807 148.778 229.92 148.512 230.16C148.245 230.4 148.112 230.833 148.112 231.46V231.92H150.052V234.22ZM162.326 231.92V243H159.506V241.6C159.146 242.08 158.673 242.46 158.086 242.74C157.513 243.007 156.886 243.14 156.206 243.14C155.34 243.14 154.573 242.96 153.906 242.6C153.24 242.227 152.713 241.687 152.326 240.98C151.953 240.26 151.766 239.407 151.766 238.42V231.92H154.566V238.02C154.566 238.9 154.786 239.58 155.226 240.06C155.666 240.527 156.266 240.76 157.026 240.76C157.8 240.76 158.406 240.527 158.846 240.06C159.286 239.58 159.506 238.9 159.506 238.02V231.92H162.326ZM167.889 228.2V243H165.089V228.2H167.889ZM173.455 228.2V243H170.655V228.2H173.455ZM186.822 231.92L179.962 248.24H176.982L179.382 242.72L174.942 231.92H178.082L180.942 239.66L183.842 231.92H186.822ZM191.951 228.8L191.631 238.46H189.271L188.931 228.8H191.951ZM190.511 243.14C190.005 243.14 189.585 242.987 189.251 242.68C188.931 242.36 188.771 241.967 188.771 241.5C188.771 241.033 188.931 240.647 189.251 240.34C189.585 240.02 190.005 239.86 190.511 239.86C191.005 239.86 191.411 240.02 191.731 240.34C192.051 240.647 192.211 241.033 192.211 241.5C192.211 241.967 192.051 242.36 191.731 242.68C191.411 242.987 191.005 243.14 190.511 243.14Z" fill="#137054"/>
<path d="M39.8276 259.02L35.8676 273H34.3076L30.7876 261.08L27.1876 273L25.6676 273.02L21.7876 259.02H23.2876L26.4876 271.28L30.0676 259.02H31.6276L35.1076 271.28L38.3276 259.02H39.8276ZM51.8491 266.98C51.8491 267.46 51.8358 267.827 51.8091 268.08H42.7491C42.7891 268.907 42.9891 269.613 43.3491 270.2C43.7091 270.787 44.1825 271.233 44.7691 271.54C45.3558 271.833 45.9958 271.98 46.6891 271.98C47.5958 271.98 48.3558 271.76 48.9691 271.32C49.5958 270.88 50.0091 270.287 50.2091 269.54H51.6891C51.4225 270.607 50.8491 271.48 49.9691 272.16C49.1025 272.827 48.0091 273.16 46.6891 273.16C45.6625 273.16 44.7425 272.933 43.9291 272.48C43.1158 272.013 42.4758 271.36 42.0091 270.52C41.5558 269.667 41.3291 268.673 41.3291 267.54C41.3291 266.407 41.5558 265.413 42.0091 264.56C42.4625 263.707 43.0958 263.053 43.9091 262.6C44.7225 262.147 45.6491 261.92 46.6891 261.92C47.7291 261.92 48.6358 262.147 49.4091 262.6C50.1958 263.053 50.7958 263.667 51.2091 264.44C51.6358 265.2 51.8491 266.047 51.8491 266.98ZM50.4291 266.94C50.4425 266.127 50.2758 265.433 49.9291 264.86C49.5958 264.287 49.1358 263.853 48.5491 263.56C47.9625 263.267 47.3225 263.12 46.6291 263.12C45.5891 263.12 44.7025 263.453 43.9691 264.12C43.2358 264.787 42.8291 265.727 42.7491 266.94H50.4291ZM65.0988 261.88C65.9255 261.88 66.6655 262.053 67.3188 262.4C67.9855 262.747 68.5055 263.28 68.8788 264C69.2655 264.707 69.4588 265.573 69.4588 266.6V273H68.0788V266.76C68.0788 265.573 67.7788 264.667 67.1788 264.04C66.5922 263.413 65.7855 263.1 64.7588 263.1C63.7055 263.1 62.8655 263.433 62.2388 264.1C61.6122 264.767 61.2988 265.747 61.2988 267.04V273H59.8988V258.2H61.2988V263.94C61.6455 263.287 62.1522 262.78 62.8188 262.42C63.4988 262.06 64.2588 261.88 65.0988 261.88ZM71.9151 267.52C71.9151 266.4 72.1351 265.42 72.5751 264.58C73.0284 263.727 73.6484 263.073 74.4351 262.62C75.2351 262.153 76.1351 261.92 77.1351 261.92C78.1751 261.92 79.0684 262.16 79.8151 262.64C80.5751 263.12 81.1217 263.733 81.4551 264.48V262.08H82.8551V273H81.4551V270.58C81.1084 271.327 80.5551 271.947 79.7951 272.44C79.0484 272.92 78.1551 273.16 77.1151 273.16C76.1284 273.16 75.2351 272.927 74.4351 272.46C73.6484 271.993 73.0284 271.333 72.5751 270.48C72.1351 269.627 71.9151 268.64 71.9151 267.52ZM81.4551 267.54C81.4551 266.66 81.2751 265.887 80.9151 265.22C80.5551 264.553 80.0617 264.04 79.4351 263.68C78.8217 263.32 78.1417 263.14 77.3951 263.14C76.6217 263.14 75.9284 263.313 75.3151 263.66C74.7017 264.007 74.2151 264.513 73.8551 265.18C73.5084 265.833 73.3351 266.613 73.3351 267.52C73.3351 268.413 73.5084 269.2 73.8551 269.88C74.2151 270.547 74.7017 271.06 75.3151 271.42C75.9284 271.767 76.6217 271.94 77.3951 271.94C78.1417 271.94 78.8217 271.76 79.4351 271.4C80.0617 271.04 80.5551 270.527 80.9151 269.86C81.2751 269.193 81.4551 268.42 81.4551 267.54ZM89.9312 271.64L93.6112 262.08H95.0912L90.7112 273H89.1312L84.7512 262.08H86.2512L89.9312 271.64ZM106.869 266.98C106.869 267.46 106.855 267.827 106.829 268.08H97.7687C97.8087 268.907 98.0087 269.613 98.3687 270.2C98.7287 270.787 99.202 271.233 99.7887 271.54C100.375 271.833 101.015 271.98 101.709 271.98C102.615 271.98 103.375 271.76 103.989 271.32C104.615 270.88 105.029 270.287 105.229 269.54H106.709C106.442 270.607 105.869 271.48 104.989 272.16C104.122 272.827 103.029 273.16 101.709 273.16C100.682 273.16 99.762 272.933 98.9487 272.48C98.1353 272.013 97.4953 271.36 97.0287 270.52C96.5753 269.667 96.3487 268.673 96.3487 267.54C96.3487 266.407 96.5753 265.413 97.0287 264.56C97.482 263.707 98.1153 263.053 98.9287 262.6C99.742 262.147 100.669 261.92 101.709 261.92C102.749 261.92 103.655 262.147 104.429 262.6C105.215 263.053 105.815 263.667 106.229 264.44C106.655 265.2 106.869 266.047 106.869 266.98ZM105.449 266.94C105.462 266.127 105.295 265.433 104.949 264.86C104.615 264.287 104.155 263.853 103.569 263.56C102.982 263.267 102.342 263.12 101.649 263.12C100.609 263.12 99.722 263.453 98.9887 264.12C98.2553 264.787 97.8487 265.727 97.7687 266.94H105.449ZM118.678 273.16C117.425 273.16 116.398 272.873 115.598 272.3C114.812 271.713 114.372 270.92 114.278 269.92H115.718C115.785 270.533 116.072 271.033 116.578 271.42C117.098 271.793 117.792 271.98 118.658 271.98C119.418 271.98 120.012 271.8 120.438 271.44C120.878 271.08 121.098 270.633 121.098 270.1C121.098 269.727 120.978 269.42 120.738 269.18C120.498 268.94 120.192 268.753 119.818 268.62C119.458 268.473 118.965 268.32 118.338 268.16C117.525 267.947 116.865 267.733 116.358 267.52C115.852 267.307 115.418 266.993 115.058 266.58C114.712 266.153 114.538 265.587 114.538 264.88C114.538 264.347 114.698 263.853 115.018 263.4C115.338 262.947 115.792 262.587 116.378 262.32C116.965 262.053 117.632 261.92 118.378 261.92C119.552 261.92 120.498 262.22 121.218 262.82C121.938 263.407 122.325 264.22 122.378 265.26H120.978C120.938 264.62 120.685 264.107 120.218 263.72C119.765 263.32 119.138 263.12 118.338 263.12C117.632 263.12 117.058 263.287 116.618 263.62C116.178 263.953 115.958 264.367 115.958 264.86C115.958 265.287 116.085 265.64 116.338 265.92C116.605 266.187 116.932 266.4 117.318 266.56C117.705 266.707 118.225 266.873 118.878 267.06C119.665 267.273 120.292 267.48 120.758 267.68C121.225 267.88 121.625 268.173 121.958 268.56C122.292 268.947 122.465 269.46 122.478 270.1C122.478 270.687 122.318 271.213 121.998 271.68C121.678 272.133 121.232 272.493 120.658 272.76C120.085 273.027 119.425 273.16 118.678 273.16ZM134.574 262.08V273H133.174V271.08C132.854 271.76 132.36 272.28 131.694 272.64C131.027 273 130.28 273.18 129.454 273.18C128.147 273.18 127.08 272.78 126.254 271.98C125.427 271.167 125.014 269.993 125.014 268.46V262.08H126.394V268.3C126.394 269.487 126.687 270.393 127.274 271.02C127.874 271.647 128.687 271.96 129.714 271.96C130.767 271.96 131.607 271.627 132.234 270.96C132.86 270.293 133.174 269.313 133.174 268.02V262.08H134.574ZM137.13 267.54C137.13 266.407 137.357 265.42 137.81 264.58C138.263 263.727 138.89 263.073 139.69 262.62C140.49 262.153 141.403 261.92 142.43 261.92C143.777 261.92 144.883 262.253 145.75 262.92C146.63 263.587 147.197 264.493 147.45 265.64H145.95C145.763 264.853 145.357 264.24 144.73 263.8C144.117 263.347 143.35 263.12 142.43 263.12C141.697 263.12 141.037 263.287 140.45 263.62C139.863 263.953 139.397 264.453 139.05 265.12C138.717 265.773 138.55 266.58 138.55 267.54C138.55 268.5 138.717 269.313 139.05 269.98C139.397 270.647 139.863 271.147 140.45 271.48C141.037 271.813 141.697 271.98 142.43 271.98C143.35 271.98 144.117 271.76 144.73 271.32C145.357 270.867 145.763 270.24 145.95 269.44H147.45C147.197 270.56 146.63 271.46 145.75 272.14C144.87 272.82 143.763 273.16 142.43 273.16C141.403 273.16 140.49 272.933 139.69 272.48C138.89 272.013 138.263 271.36 137.81 270.52C137.357 269.667 137.13 268.673 137.13 267.54ZM149.396 267.54C149.396 266.407 149.622 265.42 150.076 264.58C150.529 263.727 151.156 263.073 151.956 262.62C152.756 262.153 153.669 261.92 154.696 261.92C156.042 261.92 157.149 262.253 158.016 262.92C158.896 263.587 159.462 264.493 159.716 265.64H158.216C158.029 264.853 157.622 264.24 156.996 263.8C156.382 263.347 155.616 263.12 154.696 263.12C153.962 263.12 153.302 263.287 152.716 263.62C152.129 263.953 151.662 264.453 151.316 265.12C150.982 265.773 150.816 266.58 150.816 267.54C150.816 268.5 150.982 269.313 151.316 269.98C151.662 270.647 152.129 271.147 152.716 271.48C153.302 271.813 153.962 271.98 154.696 271.98C155.616 271.98 156.382 271.76 156.996 271.32C157.622 270.867 158.029 270.24 158.216 269.44H159.716C159.462 270.56 158.896 271.46 158.016 272.14C157.136 272.82 156.029 273.16 154.696 273.16C153.669 273.16 152.756 272.933 151.956 272.48C151.156 272.013 150.529 271.36 150.076 270.52C149.622 269.667 149.396 268.673 149.396 267.54ZM172.181 266.98C172.181 267.46 172.168 267.827 172.141 268.08H163.081C163.121 268.907 163.321 269.613 163.681 270.2C164.041 270.787 164.515 271.233 165.101 271.54C165.688 271.833 166.328 271.98 167.021 271.98C167.928 271.98 168.688 271.76 169.301 271.32C169.928 270.88 170.341 270.287 170.541 269.54H172.021C171.755 270.607 171.181 271.48 170.301 272.16C169.435 272.827 168.341 273.16 167.021 273.16C165.995 273.16 165.075 272.933 164.261 272.48C163.448 272.013 162.808 271.36 162.341 270.52C161.888 269.667 161.661 268.673 161.661 267.54C161.661 266.407 161.888 265.413 162.341 264.56C162.795 263.707 163.428 263.053 164.241 262.6C165.055 262.147 165.981 261.92 167.021 261.92C168.061 261.92 168.968 262.147 169.741 262.6C170.528 263.053 171.128 263.667 171.541 264.44C171.968 265.2 172.181 266.047 172.181 266.98ZM170.761 266.94C170.775 266.127 170.608 265.433 170.261 264.86C169.928 264.287 169.468 263.853 168.881 263.56C168.295 263.267 167.655 263.12 166.961 263.12C165.921 263.12 165.035 263.453 164.301 264.12C163.568 264.787 163.161 265.727 163.081 266.94H170.761ZM178.503 273.16C177.249 273.16 176.223 272.873 175.423 272.3C174.636 271.713 174.196 270.92 174.103 269.92H175.543C175.609 270.533 175.896 271.033 176.403 271.42C176.923 271.793 177.616 271.98 178.483 271.98C179.243 271.98 179.836 271.8 180.263 271.44C180.703 271.08 180.923 270.633 180.923 270.1C180.923 269.727 180.803 269.42 180.563 269.18C180.323 268.94 180.016 268.753 179.643 268.62C179.283 268.473 178.789 268.32 178.163 268.16C177.349 267.947 176.689 267.733 176.183 267.52C175.676 267.307 175.243 266.993 174.883 266.58C174.536 266.153 174.363 265.587 174.363 264.88C174.363 264.347 174.523 263.853 174.843 263.4C175.163 262.947 175.616 262.587 176.203 262.32C176.789 262.053 177.456 261.92 178.203 261.92C179.376 261.92 180.323 262.22 181.043 262.82C181.763 263.407 182.149 264.22 182.203 265.26H180.803C180.763 264.62 180.509 264.107 180.043 263.72C179.589 263.32 178.963 263.12 178.163 263.12C177.456 263.12 176.883 263.287 176.443 263.62C176.003 263.953 175.783 264.367 175.783 264.86C175.783 265.287 175.909 265.64 176.163 265.92C176.429 266.187 176.756 266.4 177.143 266.56C177.529 266.707 178.049 266.873 178.703 267.06C179.489 267.273 180.116 267.48 180.583 267.68C181.049 267.88 181.449 268.173 181.783 268.56C182.116 268.947 182.289 269.46 182.303 270.1C182.303 270.687 182.143 271.213 181.823 271.68C181.503 272.133 181.056 272.493 180.483 272.76C179.909 273.027 179.249 273.16 178.503 273.16ZM188.698 273.16C187.445 273.16 186.418 272.873 185.618 272.3C184.831 271.713 184.391 270.92 184.298 269.92H185.738C185.805 270.533 186.091 271.033 186.598 271.42C187.118 271.793 187.811 271.98 188.678 271.98C189.438 271.98 190.031 271.8 190.458 271.44C190.898 271.08 191.118 270.633 191.118 270.1C191.118 269.727 190.998 269.42 190.758 269.18C190.518 268.94 190.211 268.753 189.838 268.62C189.478 268.473 188.985 268.32 188.358 268.16C187.545 267.947 186.885 267.733 186.378 267.52C185.871 267.307 185.438 266.993 185.078 266.58C184.731 266.153 184.558 265.587 184.558 264.88C184.558 264.347 184.718 263.853 185.038 263.4C185.358 262.947 185.811 262.587 186.398 262.32C186.985 262.053 187.651 261.92 188.398 261.92C189.571 261.92 190.518 262.22 191.238 262.82C191.958 263.407 192.345 264.22 192.398 265.26H190.998C190.958 264.62 190.705 264.107 190.238 263.72C189.785 263.32 189.158 263.12 188.358 263.12C187.651 263.12 187.078 263.287 186.638 263.62C186.198 263.953 185.978 264.367 185.978 264.86C185.978 265.287 186.105 265.64 186.358 265.92C186.625 266.187 186.951 266.4 187.338 266.56C187.725 266.707 188.245 266.873 188.898 267.06C189.685 267.273 190.311 267.48 190.778 267.68C191.245 267.88 191.645 268.173 191.978 268.56C192.311 268.947 192.485 269.46 192.498 270.1C192.498 270.687 192.338 271.213 192.018 271.68C191.698 272.133 191.251 272.493 190.678 272.76C190.105 273.027 189.445 273.16 188.698 273.16ZM199.433 263.26H196.893V273H195.493V263.26H193.973V262.08H195.493V261.32C195.493 260.133 195.793 259.26 196.393 258.7C197.007 258.14 197.993 257.86 199.353 257.86V259.06C198.447 259.06 197.807 259.233 197.433 259.58C197.073 259.927 196.893 260.507 196.893 261.32V262.08H199.433V263.26ZM211.097 262.08V273H209.697V271.08C209.377 271.76 208.884 272.28 208.217 272.64C207.55 273 206.804 273.18 205.977 273.18C204.67 273.18 203.604 272.78 202.777 271.98C201.95 271.167 201.537 269.993 201.537 268.46V262.08H202.917V268.3C202.917 269.487 203.21 270.393 203.797 271.02C204.397 271.647 205.21 271.96 206.237 271.96C207.29 271.96 208.13 271.627 208.757 270.96C209.384 270.293 209.697 269.313 209.697 268.02V262.08H211.097ZM215.693 258.2V273H214.293V258.2H215.693ZM220.264 258.2V273H218.864V258.2H220.264ZM232.434 262.08L225.954 278.14H224.494L226.614 272.94L222.134 262.08H223.674L227.394 271.4L230.994 262.08H232.434ZM3.38867 294.02C3.69534 293.34 4.16201 292.813 4.78867 292.44C5.42867 292.067 6.20867 291.88 7.12867 291.88V293.34H6.74867C5.73534 293.34 4.92201 293.613 4.30867 294.16C3.69534 294.707 3.38867 295.62 3.38867 296.9V303H1.98867V292.08H3.38867V294.02ZM19.1148 296.98C19.1148 297.46 19.1014 297.827 19.0748 298.08H10.0148C10.0548 298.907 10.2548 299.613 10.6148 300.2C10.9748 300.787 11.4481 301.233 12.0348 301.54C12.6214 301.833 13.2614 301.98 13.9548 301.98C14.8614 301.98 15.6214 301.76 16.2348 301.32C16.8614 300.88 17.2748 300.287 17.4748 299.54H18.9548C18.6881 300.607 18.1148 301.48 17.2348 302.16C16.3681 302.827 15.2748 303.16 13.9548 303.16C12.9281 303.16 12.0081 302.933 11.1948 302.48C10.3814 302.013 9.74143 301.36 9.27477 300.52C8.82143 299.667 8.59477 298.673 8.59477 297.54C8.59477 296.407 8.82143 295.413 9.27477 294.56C9.7281 293.707 10.3614 293.053 11.1748 292.6C11.9881 292.147 12.9148 291.92 13.9548 291.92C14.9948 291.92 15.9014 292.147 16.6748 292.6C17.4614 293.053 18.0614 293.667 18.4748 294.44C18.9014 295.2 19.1148 296.047 19.1148 296.98ZM17.6948 296.94C17.7081 296.127 17.5414 295.433 17.1948 294.86C16.8614 294.287 16.4014 293.853 15.8148 293.56C15.2281 293.267 14.5881 293.12 13.8948 293.12C12.8548 293.12 11.9681 293.453 11.2348 294.12C10.5014 294.787 10.0948 295.727 10.0148 296.94H17.6948ZM21.0362 297.54C21.0362 296.407 21.2628 295.42 21.7162 294.58C22.1695 293.727 22.7962 293.073 23.5962 292.62C24.3962 292.153 25.3095 291.92 26.3362 291.92C27.6828 291.92 28.7895 292.253 29.6562 292.92C30.5362 293.587 31.1028 294.493 31.3562 295.64H29.8562C29.6695 294.853 29.2628 294.24 28.6362 293.8C28.0228 293.347 27.2562 293.12 26.3362 293.12C25.6028 293.12 24.9428 293.287 24.3562 293.62C23.7695 293.953 23.3028 294.453 22.9562 295.12C22.6228 295.773 22.4562 296.58 22.4562 297.54C22.4562 298.5 22.6228 299.313 22.9562 299.98C23.3028 300.647 23.7695 301.147 24.3562 301.48C24.9428 301.813 25.6028 301.98 26.3362 301.98C27.2562 301.98 28.0228 301.76 28.6362 301.32C29.2628 300.867 29.6695 300.24 29.8562 299.44H31.3562C31.1028 300.56 30.5362 301.46 29.6562 302.14C28.7762 302.82 27.6695 303.16 26.3362 303.16C25.3095 303.16 24.3962 302.933 23.5962 302.48C22.7962 302.013 22.1695 301.36 21.7162 300.52C21.2628 299.667 21.0362 298.673 21.0362 297.54ZM38.7218 303.16C37.6951 303.16 36.7685 302.933 35.9418 302.48C35.1285 302.013 34.4818 301.36 34.0018 300.52C33.5351 299.667 33.3018 298.673 33.3018 297.54C33.3018 296.407 33.5418 295.42 34.0218 294.58C34.5018 293.727 35.1551 293.073 35.9818 292.62C36.8085 292.153 37.7351 291.92 38.7618 291.92C39.7885 291.92 40.7151 292.153 41.5418 292.62C42.3818 293.073 43.0351 293.727 43.5018 294.58C43.9818 295.42 44.2218 296.407 44.2218 297.54C44.2218 298.66 43.9818 299.647 43.5018 300.5C43.0218 301.353 42.3618 302.013 41.5218 302.48C40.6818 302.933 39.7485 303.16 38.7218 303.16ZM38.7218 301.94C39.4418 301.94 40.1085 301.78 40.7218 301.46C41.3351 301.127 41.8285 300.633 42.2018 299.98C42.5885 299.313 42.7818 298.5 42.7818 297.54C42.7818 296.58 42.5951 295.773 42.2218 295.12C41.8485 294.453 41.3551 293.96 40.7418 293.64C40.1285 293.307 39.4618 293.14 38.7418 293.14C38.0218 293.14 37.3551 293.307 36.7418 293.64C36.1285 293.96 35.6351 294.453 35.2618 295.12C34.9018 295.773 34.7218 296.58 34.7218 297.54C34.7218 298.5 34.9018 299.313 35.2618 299.98C35.6351 300.633 36.1218 301.127 36.7218 301.46C37.3351 301.78 38.0018 301.94 38.7218 301.94ZM50.6538 301.64L54.3338 292.08H55.8138L51.4338 303H49.8538L45.4738 292.08H46.9738L50.6538 301.64ZM67.5913 296.98C67.5913 297.46 67.578 297.827 67.5513 298.08H58.4913C58.5313 298.907 58.7313 299.613 59.0913 300.2C59.4513 300.787 59.9247 301.233 60.5113 301.54C61.098 301.833 61.738 301.98 62.4313 301.98C63.338 301.98 64.098 301.76 64.7113 301.32C65.338 300.88 65.7513 300.287 65.9513 299.54H67.4313C67.1647 300.607 66.5913 301.48 65.7113 302.16C64.8447 302.827 63.7513 303.16 62.4313 303.16C61.4047 303.16 60.4847 302.933 59.6713 302.48C58.858 302.013 58.218 301.36 57.7513 300.52C57.298 299.667 57.0713 298.673 57.0713 297.54C57.0713 296.407 57.298 295.413 57.7513 294.56C58.2047 293.707 58.838 293.053 59.6513 292.6C60.4647 292.147 61.3913 291.92 62.4313 291.92C63.4713 291.92 64.378 292.147 65.1513 292.6C65.938 293.053 66.538 293.667 66.9513 294.44C67.378 295.2 67.5913 296.047 67.5913 296.98ZM66.1713 296.94C66.1847 296.127 66.018 295.433 65.6713 294.86C65.338 294.287 64.878 293.853 64.2913 293.56C63.7047 293.267 63.0647 293.12 62.3713 293.12C61.3313 293.12 60.4447 293.453 59.7113 294.12C58.978 294.787 58.5713 295.727 58.4913 296.94H66.1713ZM71.5527 294.02C71.8594 293.34 72.3261 292.813 72.9527 292.44C73.5927 292.067 74.3727 291.88 75.2927 291.88V293.34H74.9127C73.8994 293.34 73.0861 293.613 72.4727 294.16C71.8594 294.707 71.5527 295.62 71.5527 296.9V303H70.1527V292.08H71.5527V294.02ZM87.2788 296.98C87.2788 297.46 87.2655 297.827 87.2388 298.08H78.1788C78.2188 298.907 78.4188 299.613 78.7788 300.2C79.1388 300.787 79.6122 301.233 80.1988 301.54C80.7855 301.833 81.4255 301.98 82.1188 301.98C83.0255 301.98 83.7855 301.76 84.3988 301.32C85.0255 300.88 85.4388 300.287 85.6388 299.54H87.1188C86.8522 300.607 86.2788 301.48 85.3988 302.16C84.5322 302.827 83.4388 303.16 82.1188 303.16C81.0922 303.16 80.1722 302.933 79.3588 302.48C78.5455 302.013 77.9055 301.36 77.4388 300.52C76.9855 299.667 76.7588 298.673 76.7588 297.54C76.7588 296.407 76.9855 295.413 77.4388 294.56C77.8922 293.707 78.5255 293.053 79.3388 292.6C80.1522 292.147 81.0788 291.92 82.1188 291.92C83.1588 291.92 84.0655 292.147 84.8388 292.6C85.6255 293.053 86.2255 293.667 86.6388 294.44C87.0655 295.2 87.2788 296.047 87.2788 296.98ZM85.8588 296.94C85.8722 296.127 85.7055 295.433 85.3588 294.86C85.0255 294.287 84.5655 293.853 83.9788 293.56C83.3922 293.267 82.7522 293.12 82.0588 293.12C81.0188 293.12 80.1322 293.453 79.3988 294.12C78.6655 294.787 78.2588 295.727 78.1788 296.94H85.8588ZM89.2002 297.52C89.2002 296.4 89.4269 295.42 89.8802 294.58C90.3336 293.727 90.9536 293.073 91.7402 292.62C92.5402 292.153 93.4402 291.92 94.4402 291.92C95.4002 291.92 96.2669 292.153 97.0402 292.62C97.8136 293.087 98.3802 293.693 98.7402 294.44V288.2H100.14V303H98.7402V300.56C98.4069 301.32 97.8602 301.947 97.1002 302.44C96.3402 302.92 95.4469 303.16 94.4202 303.16C93.4202 303.16 92.5202 302.927 91.7202 302.46C90.9336 301.993 90.3136 301.333 89.8602 300.48C89.4202 299.627 89.2002 298.64 89.2002 297.52ZM98.7402 297.54C98.7402 296.66 98.5602 295.887 98.2002 295.22C97.8402 294.553 97.3469 294.04 96.7202 293.68C96.1069 293.32 95.4269 293.14 94.6802 293.14C93.9069 293.14 93.2136 293.313 92.6002 293.66C91.9869 294.007 91.5002 294.513 91.1402 295.18C90.7936 295.833 90.6202 296.613 90.6202 297.52C90.6202 298.413 90.7936 299.2 91.1402 299.88C91.5002 300.547 91.9869 301.06 92.6002 301.42C93.2136 301.767 93.9069 301.94 94.6802 301.94C95.4269 301.94 96.1069 301.76 96.7202 301.4C97.3469 301.04 97.8402 300.527 98.2002 299.86C98.5602 299.193 98.7402 298.42 98.7402 297.54ZM117.825 292.08L111.345 308.14H109.885L112.005 302.94L107.525 292.08H109.065L112.785 301.4L116.385 292.08H117.825ZM124.503 303.16C123.476 303.16 122.55 302.933 121.723 302.48C120.91 302.013 120.263 301.36 119.783 300.52C119.316 299.667 119.083 298.673 119.083 297.54C119.083 296.407 119.323 295.42 119.803 294.58C120.283 293.727 120.936 293.073 121.763 292.62C122.59 292.153 123.516 291.92 124.543 291.92C125.57 291.92 126.496 292.153 127.323 292.62C128.163 293.073 128.816 293.727 129.283 294.58C129.763 295.42 130.003 296.407 130.003 297.54C130.003 298.66 129.763 299.647 129.283 300.5C128.803 301.353 128.143 302.013 127.303 302.48C126.463 302.933 125.53 303.16 124.503 303.16ZM124.503 301.94C125.223 301.94 125.89 301.78 126.503 301.46C127.116 301.127 127.61 300.633 127.983 299.98C128.37 299.313 128.563 298.5 128.563 297.54C128.563 296.58 128.376 295.773 128.003 295.12C127.63 294.453 127.136 293.96 126.523 293.64C125.91 293.307 125.243 293.14 124.523 293.14C123.803 293.14 123.136 293.307 122.523 293.64C121.91 293.96 121.416 294.453 121.043 295.12C120.683 295.773 120.503 296.58 120.503 297.54C120.503 298.5 120.683 299.313 121.043 299.98C121.416 300.633 121.903 301.127 122.503 301.46C123.116 301.78 123.783 301.94 124.503 301.94ZM142.015 292.08V303H140.615V301.08C140.295 301.76 139.802 302.28 139.135 302.64C138.468 303 137.722 303.18 136.895 303.18C135.588 303.18 134.522 302.78 133.695 301.98C132.868 301.167 132.455 299.993 132.455 298.46V292.08H133.835V298.3C133.835 299.487 134.128 300.393 134.715 301.02C135.315 301.647 136.128 301.96 137.155 301.96C138.208 301.96 139.048 301.627 139.675 300.96C140.302 300.293 140.615 299.313 140.615 298.02V292.08H142.015ZM146.611 294.02C146.918 293.34 147.385 292.813 148.011 292.44C148.651 292.067 149.431 291.88 150.351 291.88V293.34H149.971C148.958 293.34 148.145 293.613 147.531 294.16C146.918 294.707 146.611 295.62 146.611 296.9V303H145.211V292.08H146.611V294.02ZM159.326 294.48C159.672 293.747 160.219 293.14 160.966 292.66C161.726 292.167 162.626 291.92 163.666 291.92C164.652 291.92 165.539 292.153 166.326 292.62C167.126 293.073 167.746 293.727 168.186 294.58C168.639 295.42 168.866 296.4 168.866 297.52C168.866 298.64 168.639 299.627 168.186 300.48C167.746 301.333 167.126 301.993 166.326 302.46C165.539 302.927 164.652 303.16 163.666 303.16C162.639 303.16 161.746 302.92 160.986 302.44C160.226 301.947 159.672 301.333 159.326 300.6V308.16H157.946V292.08H159.326V294.48ZM167.446 297.52C167.446 296.613 167.266 295.833 166.906 295.18C166.559 294.513 166.079 294.007 165.466 293.66C164.852 293.313 164.159 293.14 163.386 293.14C162.639 293.14 161.952 293.32 161.326 293.68C160.712 294.04 160.226 294.553 159.866 295.22C159.506 295.887 159.326 296.66 159.326 297.54C159.326 298.42 159.506 299.193 159.866 299.86C160.226 300.527 160.712 301.04 161.326 301.4C161.952 301.76 162.639 301.94 163.386 301.94C164.159 301.94 164.852 301.767 165.466 301.42C166.079 301.06 166.559 300.547 166.906 299.88C167.266 299.2 167.446 298.413 167.446 297.52ZM170.802 297.52C170.802 296.4 171.022 295.42 171.462 294.58C171.915 293.727 172.535 293.073 173.322 292.62C174.122 292.153 175.022 291.92 176.022 291.92C177.062 291.92 177.955 292.16 178.702 292.64C179.462 293.12 180.008 293.733 180.342 294.48V292.08H181.742V303H180.342V300.58C179.995 301.327 179.442 301.947 178.682 302.44C177.935 302.92 177.042 303.16 176.002 303.16C175.015 303.16 174.122 302.927 173.322 302.46C172.535 301.993 171.915 301.333 171.462 300.48C171.022 299.627 170.802 298.64 170.802 297.52ZM180.342 297.54C180.342 296.66 180.162 295.887 179.802 295.22C179.442 294.553 178.948 294.04 178.322 293.68C177.708 293.32 177.028 293.14 176.282 293.14C175.508 293.14 174.815 293.313 174.202 293.66C173.588 294.007 173.102 294.513 172.742 295.18C172.395 295.833 172.222 296.613 172.222 297.52C172.222 298.413 172.395 299.2 172.742 299.88C173.102 300.547 173.588 301.06 174.202 301.42C174.815 301.767 175.508 301.94 176.282 301.94C177.028 301.94 177.708 301.76 178.322 301.4C178.948 301.04 179.442 300.527 179.802 299.86C180.162 299.193 180.342 298.42 180.342 297.54ZM188.698 303.16C187.445 303.16 186.418 302.873 185.618 302.3C184.831 301.713 184.391 300.92 184.298 299.92H185.738C185.805 300.533 186.091 301.033 186.598 301.42C187.118 301.793 187.811 301.98 188.678 301.98C189.438 301.98 190.031 301.8 190.458 301.44C190.898 301.08 191.118 300.633 191.118 300.1C191.118 299.727 190.998 299.42 190.758 299.18C190.518 298.94 190.211 298.753 189.838 298.62C189.478 298.473 188.985 298.32 188.358 298.16C187.545 297.947 186.885 297.733 186.378 297.52C185.871 297.307 185.438 296.993 185.078 296.58C184.731 296.153 184.558 295.587 184.558 294.88C184.558 294.347 184.718 293.853 185.038 293.4C185.358 292.947 185.811 292.587 186.398 292.32C186.985 292.053 187.651 291.92 188.398 291.92C189.571 291.92 190.518 292.22 191.238 292.82C191.958 293.407 192.345 294.22 192.398 295.26H190.998C190.958 294.62 190.705 294.107 190.238 293.72C189.785 293.32 189.158 293.12 188.358 293.12C187.651 293.12 187.078 293.287 186.638 293.62C186.198 293.953 185.978 294.367 185.978 294.86C185.978 295.287 186.105 295.64 186.358 295.92C186.625 296.187 186.951 296.4 187.338 296.56C187.725 296.707 188.245 296.873 188.898 297.06C189.685 297.273 190.311 297.48 190.778 297.68C191.245 297.88 191.645 298.173 191.978 298.56C192.311 298.947 192.485 299.46 192.498 300.1C192.498 300.687 192.338 301.213 192.018 301.68C191.698 302.133 191.251 302.493 190.678 302.76C190.105 303.027 189.445 303.16 188.698 303.16ZM198.893 303.16C197.64 303.16 196.613 302.873 195.813 302.3C195.027 301.713 194.587 300.92 194.493 299.92H195.933C196 300.533 196.287 301.033 196.793 301.42C197.313 301.793 198.007 301.98 198.873 301.98C199.633 301.98 200.227 301.8 200.653 301.44C201.093 301.08 201.313 300.633 201.313 300.1C201.313 299.727 201.193 299.42 200.953 299.18C200.713 298.94 200.407 298.753 200.033 298.62C199.673 298.473 199.18 298.32 198.553 298.16C197.74 297.947 197.08 297.733 196.573 297.52C196.067 297.307 195.633 296.993 195.273 296.58C194.927 296.153 194.753 295.587 194.753 294.88C194.753 294.347 194.913 293.853 195.233 293.4C195.553 292.947 196.007 292.587 196.593 292.32C197.18 292.053 197.847 291.92 198.593 291.92C199.767 291.92 200.713 292.22 201.433 292.82C202.153 293.407 202.54 294.22 202.593 295.26H201.193C201.153 294.62 200.9 294.107 200.433 293.72C199.98 293.32 199.353 293.12 198.553 293.12C197.847 293.12 197.273 293.287 196.833 293.62C196.393 293.953 196.173 294.367 196.173 294.86C196.173 295.287 196.3 295.64 196.553 295.92C196.82 296.187 197.147 296.4 197.533 296.56C197.92 296.707 198.44 296.873 199.093 297.06C199.88 297.273 200.507 297.48 200.973 297.68C201.44 297.88 201.84 298.173 202.173 298.56C202.507 298.947 202.68 299.46 202.693 300.1C202.693 300.687 202.533 301.213 202.213 301.68C201.893 302.133 201.447 302.493 200.873 302.76C200.3 303.027 199.64 303.16 198.893 303.16ZM219.729 292.08L216.309 303H214.909L211.889 293.84L208.869 303H207.449L204.029 292.08H205.449L208.169 301.58L211.229 292.08H212.629L215.649 301.6L218.349 292.08H219.729ZM226.417 303.16C225.39 303.16 224.464 302.933 223.637 302.48C222.824 302.013 222.177 301.36 221.697 300.52C221.23 299.667 220.997 298.673 220.997 297.54C220.997 296.407 221.237 295.42 221.717 294.58C222.197 293.727 222.85 293.073 223.677 292.62C224.504 292.153 225.43 291.92 226.457 291.92C227.484 291.92 228.41 292.153 229.237 292.62C230.077 293.073 230.73 293.727 231.197 294.58C231.677 295.42 231.917 296.407 231.917 297.54C231.917 298.66 231.677 299.647 231.197 300.5C230.717 301.353 230.057 302.013 229.217 302.48C228.377 302.933 227.444 303.16 226.417 303.16ZM226.417 301.94C227.137 301.94 227.804 301.78 228.417 301.46C229.03 301.127 229.524 300.633 229.897 299.98C230.284 299.313 230.477 298.5 230.477 297.54C230.477 296.58 230.29 295.773 229.917 295.12C229.544 294.453 229.05 293.96 228.437 293.64C227.824 293.307 227.157 293.14 226.437 293.14C225.717 293.14 225.05 293.307 224.437 293.64C223.824 293.96 223.33 294.453 222.957 295.12C222.597 295.773 222.417 296.58 222.417 297.54C222.417 298.5 222.597 299.313 222.957 299.98C223.33 300.633 223.817 301.127 224.417 301.46C225.03 301.78 225.697 301.94 226.417 301.94ZM235.869 294.02C236.176 293.34 236.642 292.813 237.269 292.44C237.909 292.067 238.689 291.88 239.609 291.88V293.34H239.229C238.216 293.34 237.402 293.613 236.789 294.16C236.176 294.707 235.869 295.62 235.869 296.9V303H234.469V292.08H235.869V294.02ZM241.075 297.52C241.075 296.4 241.302 295.42 241.755 294.58C242.209 293.727 242.829 293.073 243.615 292.62C244.415 292.153 245.315 291.92 246.315 291.92C247.275 291.92 248.142 292.153 248.915 292.62C249.689 293.087 250.255 293.693 250.615 294.44V288.2H252.015V303H250.615V300.56C250.282 301.32 249.735 301.947 248.975 302.44C248.215 302.92 247.322 303.16 246.295 303.16C245.295 303.16 244.395 302.927 243.595 302.46C242.809 301.993 242.189 301.333 241.735 300.48C241.295 299.627 241.075 298.64 241.075 297.52ZM250.615 297.54C250.615 296.66 250.435 295.887 250.075 295.22C249.715 294.553 249.222 294.04 248.595 293.68C247.982 293.32 247.302 293.14 246.555 293.14C245.782 293.14 245.089 293.313 244.475 293.66C243.862 294.007 243.375 294.513 243.015 295.18C242.669 295.833 242.495 296.613 242.495 297.52C242.495 298.413 242.669 299.2 243.015 299.88C243.375 300.547 243.862 301.06 244.475 301.42C245.089 301.767 245.782 301.94 246.555 301.94C247.302 301.94 247.982 301.76 248.595 301.4C249.222 301.04 249.715 300.527 250.075 299.86C250.435 299.193 250.615 298.42 250.615 297.54Z" fill="#00263A"/>
<defs>
<clipPath id="clip0_60_4048">
<rect width="161" height="161" fill="white" transform="translate(46.5)"/>
</clipPath>
</defs>
</svg>
