<svg width="40" height="40" viewBox="0 0 40 40" fill="none" xmlns="http://www.w3.org/2000/svg">
<rect width="40" height="40" rx="5" fill="#137054" fill-opacity="0.1"/>
<g clip-path="url(#clip0_60_3949)">
<path d="M21.8293 20.0001L29.6209 12.2084C29.7416 12.0883 29.8373 11.9454 29.9023 11.7881C29.9674 11.6307 30.0007 11.462 30.0001 11.2918C30.0022 11.1219 29.9697 10.9533 29.9045 10.7965C29.8393 10.6396 29.7428 10.4976 29.6209 10.3793C29.5026 10.2574 29.3606 10.1609 29.2037 10.0957C29.0469 10.0305 28.8783 9.99797 28.7084 10.0001C28.5382 9.99954 28.3695 10.0328 28.2121 10.0979C28.0548 10.1629 27.9119 10.2586 27.7918 10.3793L20.0001 18.1709L12.2084 10.3793C12.0883 10.2586 11.9454 10.1629 11.7881 10.0979C11.6307 10.0328 11.462 9.99954 11.2918 10.0001C11.1219 9.99797 10.9533 10.0305 10.7965 10.0957C10.6396 10.1609 10.4976 10.2574 10.3793 10.3793C10.2574 10.4976 10.1609 10.6396 10.0957 10.7965C10.0305 10.9533 9.99797 11.1219 10.0001 11.2918C9.99954 11.462 10.0328 11.6307 10.0979 11.7881C10.1629 11.9454 10.2586 12.0883 10.3793 12.2084L18.1709 20.0001L10.3793 27.7918C10.2586 27.9119 10.1629 28.0548 10.0979 28.2121C10.0328 28.3695 9.99954 28.5382 10.0001 28.7084C9.99797 28.8783 10.0305 29.0469 10.0957 29.2037C10.1609 29.3606 10.2574 29.5026 10.3793 29.6209C10.4976 29.7428 10.6396 29.8393 10.7965 29.9045C10.9533 29.9697 11.1219 30.0022 11.2918 30.0001C11.462 30.0007 11.6307 29.9674 11.7881 29.9023C11.9454 29.8373 12.0883 29.7416 12.2084 29.6209L20.0001 21.8293L27.7918 29.6209C27.9119 29.7416 28.0548 29.8373 28.2121 29.9023C28.3695 29.9674 28.5382 30.0007 28.7084 30.0001C29.0507 29.999 29.3786 29.8626 29.6206 29.6206C29.8626 29.3786 29.999 29.0507 30.0001 28.7084C30.0007 28.5382 29.9674 28.3695 29.9023 28.2121C29.8373 28.0548 29.7416 27.9119 29.6209 27.7918L21.8293 20.0001Z" fill="#7FCE7A"/>
</g>
<defs>
<clipPath id="clip0_60_3949">
<rect width="20" height="20" fill="white" transform="translate(10 10)"/>
</clipPath>
</defs>
</svg>
