<svg width="76" height="79" viewBox="0 0 76 79" fill="none" xmlns="http://www.w3.org/2000/svg">
<path d="M72.9375 78.625H59.5C58.0146 78.625 56.8125 77.4215 56.8125 75.9375V71.9062C56.6921 69.7041 54.9737 67.9962 53.028 67.8814C50.7842 67.7492 48.6535 69.7611 48.75 72.3352V75.9375C48.75 77.4215 47.5479 78.625 46.0625 78.625H29.9375C28.4521 78.625 27.25 77.4215 27.25 75.9375V71.9062C27.1296 69.7041 25.4112 67.9962 23.4655 67.8814C21.2217 67.7495 19.091 69.7611 19.1875 72.3354V75.9375C19.1875 77.4215 17.9854 78.625 16.5 78.625H3.0625C1.57712 78.625 0.375 77.4215 0.375 75.9375V8.21196C0.375 4.06273 3.75023 0.6875 7.89946 0.6875H68.1005C72.2498 0.6875 75.625 4.06273 75.625 8.21196V75.9375C75.625 77.4215 74.4229 78.625 72.9375 78.625ZM62.1875 73.25H70.25V8.21196C70.25 7.02704 69.2868 6.0625 68.1005 6.0625H7.89946C6.7132 6.0625 5.75 7.02704 5.75 8.21196V73.25H13.8125V72.3354C13.7999 66.6379 18.5949 62.2122 23.7882 62.5172C28.4535 62.7911 32.4398 66.8236 32.625 71.9062V73.25H43.375V72.3354C43.3624 66.6379 48.1574 62.2122 53.3507 62.5172C58.016 62.7911 62.0023 66.8236 62.1875 71.9062V73.25Z" fill="#7FCE7A"/>
<path d="M44.5717 51.2985C43.3452 50.4807 43.0087 48.7983 43.8265 47.5717L46.4167 43.6875H24.5625C23.0881 43.6875 21.875 42.4744 21.875 41C21.875 39.5256 23.0881 38.3125 24.5625 38.3125H51.4375C52.4295 38.3125 53.3402 38.8583 53.8073 39.7323C54.2744 40.6063 54.222 41.6665 53.6735 42.4908L48.2985 50.5533C47.4807 51.7798 45.7983 52.1163 44.5717 51.2985Z" fill="#7FCE7A"/>
<path d="M51.4375 32.9375H24.5625C23.5705 32.9375 22.6597 32.3916 22.1926 31.5177C21.7255 30.6437 21.7779 29.5835 22.3265 28.7592L27.7015 20.6967C28.523 19.4605 30.1869 19.1245 31.4282 19.9515C32.6645 20.7744 32.9977 22.4433 32.1735 23.6782L29.5832 27.5625H51.4375C52.9228 27.5625 54.125 28.7659 54.125 30.25C54.125 31.734 52.9228 32.9375 51.4375 32.9375Z" fill="#7FCE7A"/>
</svg>
